<svg width="390" height="375" viewBox="0 0 390 375" fill="none" xmlns="http://www.w3.org/2000/svg">
<style>
   #rotate,#translate_1,#translate_2,#translate_3{transform-origin:center;transform-box:fill-box}#rotate{animation:rotate 5s linear infinite}#translate_1,#translate_3{animation:translateX 3s linear infinite}#translate_2{animation:translateY 3s linear infinite}@keyframes rotate{0%{transform:rotate(0)}100%{transform:rotate(360deg)}}@keyframes rotateReverse{0%{transform:rotate(0)}100%{transform:rotate(-360deg)}}@keyframes translateX{0%,100%{transform:translateX(2px)}50%{transform:translateX(-2px)}}@keyframes translateY{0%,100%{transform:translateY(2px)}50%{transform:translateY(-2px)}}
</style>
<g id="01 1" clip-path="url(#clip0_258:2)">
<g id="01">
<g id="Group 207">
<path id="Path 221" d="M27.7311 2.28882e-05L13.353 10.54C12.2747 11.3307 11.3979 12.3642 10.7934 13.5569C10.189 14.7496 9.87402 16.0679 9.874 17.405V86.075L36.653 60.636L27.7311 2.28882e-05Z" fill="#2F6BC1"/>
<g id="Group 206">
<path id="Path 222" d="M332.827 88.076L19.798 73.437V10.865L332.828 30.233L332.827 88.076Z" fill="#2F6BC1"/>
<path id="Path 223" d="M323.716 67.8851L30.409 52.6561C30.2193 52.6367 30.0276 52.6567 29.846 52.7148C29.6643 52.7728 29.4966 52.8676 29.3532 52.9933C29.2099 53.1191 29.094 53.273 29.0127 53.4455C28.9315 53.618 28.8866 53.8054 28.881 53.996V53.996C28.8991 54.3929 29.0667 54.7682 29.3501 55.0464C29.6336 55.3247 30.0119 55.4853 30.409 55.496L323.716 70.523C323.886 70.5339 324.057 70.5095 324.217 70.4515C324.377 70.3934 324.524 70.3029 324.648 70.1856C324.771 70.0683 324.87 69.9266 324.936 69.7696C325.002 69.6126 325.036 69.4435 325.034 69.273C325.032 68.9176 324.894 68.5764 324.649 68.3187C324.405 68.0609 324.071 67.9059 323.716 67.8851V67.8851Z" fill="url(#paint0_linear_258:2)"/>
<g id="Path 224" style="mix-blend-mode:soft-light" opacity="0.6">
<path d="M134.558 63.599C134.558 70.217 140.192 75.85 147.122 76.179L217.176 79.505C218.711 79.6191 220.252 79.4165 221.705 78.9096C223.158 78.4028 224.491 77.6026 225.621 76.5588C226.752 75.515 227.656 74.2498 228.277 72.842C228.898 71.4341 229.222 69.9136 229.231 68.375L134.558 63.599Z" fill="white"/>
</g>
<path id="Path 225" d="M331.114 25.504L326.035 19.278L27.717 2.28882e-05L21.801 5.99203C20.5154 7.28748 19.7962 9.03994 19.801 10.865L332.831 30.233C332.819 28.5062 332.213 26.8362 331.114 25.504V25.504Z" fill="#2F6BC1"/>
<g id="Group 205">
<path id="Path 226" d="M87.828 10.683L31.152 7.12104C30.9819 7.10113 30.8095 7.1168 30.6457 7.16712C30.482 7.21743 30.3305 7.30126 30.2009 7.41327C30.0713 7.52528 29.9665 7.66303 29.893 7.81775C29.8195 7.97248 29.779 8.14079 29.774 8.31202C29.792 8.67026 29.9434 9.00881 30.1984 9.26105C30.4534 9.5133 30.7936 9.66095 31.152 9.67499L87.828 13.202C87.9947 13.2202 88.1633 13.2035 88.3232 13.1531C88.4831 13.1026 88.6307 13.0194 88.7568 12.9088C88.8828 12.7982 88.9844 12.6627 89.0552 12.5107C89.126 12.3587 89.1644 12.1936 89.168 12.026C89.1529 11.6752 89.007 11.3428 88.759 11.0942C88.5109 10.8456 88.1788 10.6989 87.828 10.683V10.683Z" fill="url(#paint1_linear_258:2)"/>
<path id="Path 227" d="M87.828 6.67502L31.152 3.05802C30.9819 3.03796 30.8096 3.05354 30.6459 3.10373C30.4821 3.15393 30.3306 3.23765 30.201 3.34958C30.0714 3.46152 29.9665 3.5992 29.893 3.75388C29.8195 3.90856 29.779 4.07684 29.774 4.24802C29.792 4.60647 29.9432 4.94522 30.1982 5.19779C30.4532 5.45036 30.7934 5.59849 31.152 5.61301L87.828 9.19498C87.9946 9.21349 88.1632 9.19712 88.3231 9.14689C88.483 9.09665 88.6306 9.01367 88.7567 8.90323C88.8827 8.79279 88.9844 8.6573 89.0552 8.50541C89.126 8.35351 89.1645 8.18859 89.168 8.02103C89.1532 7.66984 89.0074 7.33691 88.7594 7.0878C88.5114 6.8387 88.1792 6.69145 87.828 6.67502V6.67502Z" fill="url(#paint2_linear_258:2)"/>
<path id="Path 228" d="M149.3 14.555L94.334 11.101C94.1677 11.0829 93.9996 11.0996 93.8401 11.1501C93.6806 11.2005 93.5334 11.2836 93.4077 11.394C93.2821 11.5044 93.1808 11.6398 93.1102 11.7914C93.0397 11.9431 93.0015 12.1078 92.9981 12.275C93.0125 12.6252 93.1577 12.9572 93.405 13.2055C93.6524 13.4538 93.9839 13.6003 94.334 13.616L149.3 17.036C149.463 17.0527 149.628 17.0352 149.784 16.9847C149.939 16.9343 150.083 16.8519 150.205 16.7429C150.328 16.6339 150.426 16.5006 150.494 16.3515C150.562 16.2024 150.598 16.0408 150.6 15.877C150.588 15.534 150.448 15.2081 150.207 14.9634C149.966 14.7187 149.643 14.573 149.3 14.555V14.555Z" fill="url(#paint3_linear_258:2)"/>
<path id="Path 229" d="M149.3 10.607L94.334 7.09901C94.1676 7.08001 93.9992 7.09604 93.8394 7.14607C93.6796 7.1961 93.532 7.279 93.4061 7.38948C93.2803 7.49996 93.1789 7.63556 93.1087 7.78755C93.0384 7.93954 93.0007 8.10455 92.9981 8.27199C93.0122 8.62234 93.1573 8.95464 93.4047 9.20314C93.6521 9.45164 93.9837 9.59822 94.334 9.61397L149.3 13.088C149.463 13.1048 149.628 13.0875 149.783 13.0372C149.939 12.9868 150.083 12.9046 150.205 12.7956C150.328 12.6867 150.426 12.5534 150.494 12.4044C150.562 12.2553 150.598 12.0938 150.6 11.93C150.588 11.5869 150.448 11.2609 150.207 11.0161C149.966 10.7712 149.643 10.6253 149.3 10.607V10.607Z" fill="url(#paint4_linear_258:2)"/>
<path id="Path 230" d="M208.947 18.312L155.615 14.961C155.452 14.944 155.287 14.9612 155.131 15.0115C154.975 15.0618 154.832 15.144 154.709 15.253C154.587 15.362 154.489 15.4953 154.421 15.6444C154.353 15.7935 154.317 15.9552 154.315 16.119C154.327 16.4619 154.467 16.7879 154.708 17.0323C154.949 17.2768 155.272 17.4219 155.615 17.439L208.947 20.757C209.106 20.772 209.267 20.7536 209.419 20.703C209.571 20.6525 209.711 20.5709 209.829 20.4634C209.948 20.3558 210.043 20.2248 210.108 20.0785C210.173 19.9323 210.207 19.7741 210.208 19.614C210.199 19.2785 210.064 18.9587 209.831 18.7177C209.597 18.4766 209.282 18.3319 208.947 18.312V18.312Z" fill="url(#paint5_linear_258:2)"/>
<path id="Path 231" d="M208.947 14.4229L155.615 11.023C155.452 11.0057 155.287 11.0226 155.132 11.0727C154.976 11.1227 154.832 11.2048 154.709 11.3136C154.587 11.4225 154.489 11.5556 154.421 11.7046C154.353 11.8536 154.317 12.0152 154.315 12.179C154.327 12.5219 154.467 12.8479 154.708 13.0924C154.949 13.337 155.272 13.4824 155.615 13.5L208.947 16.871C209.106 16.8862 209.267 16.8679 209.419 16.8175C209.571 16.767 209.711 16.6855 209.829 16.578C209.948 16.4706 210.043 16.3396 210.108 16.1934C210.173 16.0472 210.207 15.889 210.208 15.729C210.199 15.393 210.065 15.0725 209.832 14.8307C209.598 14.5889 209.282 14.4434 208.947 14.4229V14.4229Z" fill="url(#paint6_linear_258:2)"/>
<path id="Path 232" d="M266.845 21.958L215.075 18.705C214.916 18.69 214.755 18.7083 214.604 18.7589C214.452 18.8094 214.312 18.891 214.194 18.9984C214.076 19.1059 213.981 19.2369 213.916 19.383C213.851 19.5291 213.817 19.6871 213.817 19.847C213.826 20.1818 213.96 20.5011 214.193 20.7418C214.426 20.9825 214.741 21.1271 215.075 21.147L266.845 24.368C267.001 24.3815 267.158 24.3623 267.307 24.3117C267.455 24.261 267.591 24.1801 267.706 24.074C267.821 23.9679 267.913 23.8389 267.976 23.6953C268.039 23.5517 268.071 23.3967 268.07 23.24C268.063 22.9118 267.934 22.5981 267.707 22.3607C267.48 22.1234 267.173 21.9797 266.845 21.958Z" fill="url(#paint7_linear_258:2)"/>
<path id="Path 233" d="M266.845 18.126L215.075 14.826C214.916 14.8108 214.755 14.8291 214.604 14.8795C214.452 14.9299 214.313 15.0113 214.194 15.1187C214.076 15.2261 213.981 15.357 213.916 15.5031C213.851 15.6491 213.817 15.8071 213.817 15.967C213.826 16.3017 213.96 16.6209 214.193 16.8616C214.426 17.1022 214.741 17.2468 215.075 17.267L266.845 20.539C267.001 20.5526 267.158 20.5336 267.306 20.4832C267.454 20.4327 267.59 20.3519 267.706 20.246C267.821 20.14 267.913 20.0113 267.975 19.8679C268.038 19.7244 268.07 19.5695 268.07 19.413C268.064 19.084 267.935 18.7692 267.708 18.5308C267.481 18.2925 267.173 18.148 266.845 18.126V18.126Z" fill="url(#paint8_linear_258:2)"/>
<path id="Path 234" d="M323.074 25.5001L272.798 22.3411C272.642 22.3277 272.486 22.3469 272.338 22.3975C272.19 22.4481 272.054 22.5289 271.939 22.6349C271.825 22.7408 271.733 22.8695 271.671 23.0128C271.608 23.1561 271.576 23.3108 271.577 23.467C271.584 23.7943 271.713 24.1073 271.939 24.3441C272.165 24.5809 272.471 24.7243 272.798 24.746L323.074 27.874C323.227 27.8864 323.381 27.8668 323.525 27.8163C323.67 27.7658 323.803 27.6855 323.915 27.5807C324.027 27.4759 324.116 27.3489 324.176 27.2077C324.235 27.0665 324.265 26.9144 324.263 26.761C324.259 26.4402 324.134 26.1326 323.914 25.8992C323.694 25.6657 323.394 25.5233 323.074 25.5001V25.5001Z" fill="url(#paint9_linear_258:2)"/>
<path id="Path 235" d="M272.799 20.919L323.075 24.097C323.228 24.1094 323.381 24.0898 323.526 24.0394C323.671 23.989 323.803 23.9089 323.915 23.8043C324.027 23.6997 324.116 23.5729 324.176 23.432C324.236 23.2911 324.266 23.1391 324.264 22.986C324.26 22.6649 324.135 22.3572 323.915 22.1234C323.695 21.8896 323.395 21.7467 323.075 21.723L272.799 18.514C272.643 18.5005 272.487 18.5196 272.339 18.5701C272.191 18.6206 272.055 18.7013 271.94 18.8072C271.826 18.9131 271.734 19.0417 271.672 19.1849C271.609 19.3281 271.577 19.4828 271.578 19.639C271.585 19.9663 271.714 20.2793 271.94 20.5162C272.166 20.7531 272.472 20.8968 272.799 20.919V20.919Z" fill="url(#paint10_linear_258:2)"/>
</g>
<g id="Path 236" style="mix-blend-mode:soft-light" opacity="0.3">
<path d="M332.827 30.233L66.162 13.733C67.203 20.32 69.691 26.115 74.15 30.601C94.368 50.939 136.111 25.901 184.716 37.456C205.979 42.512 230.806 55.131 256.339 84.502L332.827 88.08V30.233Z" fill="white"/>
</g>
</g>
<path id="Path 237" d="M9.874 86.079L19.782 73.4359L332.829 88.075L320.822 98.5041L9.874 86.079Z" fill="#2F6BC1"/>
</g>
<g id="translate_3">
<path id="Path 238" d="M9.87498 63.6C5.86964 58.267 3.31055 51.9893 2.44596 45.376C0.897961 34.139 12.288 7.06501 29.198 8.65901L27.446 36.095C27.446 36.095 10.48 35.914 10.207 42.068C9.87501 49.471 9.87498 63.6 9.87498 63.6Z" fill="#FFC444"/>
<path id="Path 239" d="M97.4359 21.433C97.6506 20.5976 98.1116 19.846 98.7589 19.276C99.2369 18.793 99.335 18.869 99.647 18.476C100.433 17.481 100.247 16.454 100.547 16.42C100.81 16.39 101.271 17.13 101.24 17.895C101.205 18.75 100.58 19.005 100.698 19.479C100.864 20.146 102.345 20.63 103.657 20.379C105.178 20.091 105.92 18.865 106.515 19.179C106.947 19.405 106.915 20.212 106.915 20.279C106.849 21.793 104.826 23.379 102.853 23.589C101.717 23.708 101.292 23.297 99.944 23.639C99.05 23.866 98.7379 24.174 98.2889 23.99C97.5539 23.689 97.2559 22.397 97.4359 21.433Z" fill="url(#paint11_linear_258:2)"/>
<path id="Path 240" d="M43.929 9.723L40.622 14.263L43.822 16.954L46.58 11.309L43.929 9.723Z" fill="#EEE9DD"/>
<g id="Group 209">
<g id="Group 208">
<path id="Path 241" d="M44.883 12.283C45.206 12.289 47.339 13.189 48.228 12.274C49.436 11.032 49.142 8.50999 49.143 8.13199C49.143 6.54699 49.065 6.28799 48.864 5.90299L48.571 5.392L48.529 5.34397C48.1086 4.98944 47.6399 4.69651 47.137 4.47397C46.437 4.26897 44.4 6.446 42.637 10.137C42.537 10.2597 42.437 10.384 42.337 10.51C42.081 10.838 44.829 12.419 44.883 12.283Z" fill="#EEE9DD"/>
<path id="Path 242" d="M50.771 6.35495C50.0147 6.81678 49.1558 7.08438 48.271 7.13394C48.0464 7.17193 47.8295 7.2466 47.629 7.35495C47.5798 7.38217 47.5344 7.41577 47.494 7.45493C46.87 8.02293 47.536 9.45493 47.15 9.64993C46.87 9.79293 46.2791 9.07695 46.0821 9.22495C45.8851 9.37295 46.318 10.089 46.101 10.258C45.937 10.386 45.633 10.022 45.25 10.146C45.059 10.207 45.0401 10.328 44.6991 10.646C44.5208 10.816 44.3274 10.9694 44.1211 11.104C43.3821 11.548 42.1651 11.195 42.0971 10.82C42.0781 10.72 42.1611 10.6809 42.2351 10.4049C42.2796 10.2082 42.2971 10.0064 42.2871 9.80496C42.1351 9.1832 41.8806 8.59108 41.534 8.05295C41.1357 7.35098 40.9534 6.54709 41.01 5.74198C41.01 5.71298 41.017 5.68693 41.021 5.66293C41.026 5.61993 41.0341 5.57698 41.0431 5.53598C41.2431 4.65898 42.2891 4.19392 42.8211 4.00192C43.9467 3.59997 45.1268 3.37139 46.3211 3.32395C46.7361 3.30795 50.7531 3.17593 51.3211 4.70493C51.3874 5.00398 51.3713 5.3155 51.2744 5.60611C51.1776 5.89672 51.0035 6.15553 50.771 6.35495V6.35495Z" fill="black"/>
<path id="Path 243" d="M46.892 9.16803C46.823 8.64603 46.153 8.73697 45.892 9.21997C45.8247 9.33912 45.7826 9.47083 45.7682 9.60693C45.7538 9.74304 45.7676 9.88065 45.8085 10.0112C45.8495 10.1418 45.9168 10.2626 46.0064 10.3661C46.0959 10.4696 46.2057 10.5536 46.3291 10.613C46.8311 10.765 46.981 9.87103 46.892 9.16803Z" fill="#EEE9DD"/>
</g>
</g>
<path id="Path 244" d="M12.199 143.722L12.674 149.34L14.701 150.24L15.476 144.295L12.199 143.722Z" fill="#EEE9DD"/>
<path id="Path 245" d="M11.995 149.272L11.612 151.161C11.612 151.161 11.728 151.977 16.164 153.069C20.6 154.161 21.322 152.408 20.258 152.113C19.194 151.818 15.875 150.237 15.875 150.237L13.1 148.753C12.9955 148.697 12.8793 148.666 12.7607 148.663C12.6421 148.66 12.5245 148.685 12.4172 148.735C12.3098 148.785 12.2158 148.86 12.1425 148.953C12.0692 149.047 12.0187 149.156 11.995 149.272Z" fill="black"/>
<path id="Path 246" d="M47.095 140.526L44.9 146.132L46.082 147.669L50.424 142.402L47.095 140.526Z" fill="#EEE9DD"/>
<path id="Path 247" d="M44.532 145.65L43.212 147.05C43.212 147.05 42.881 147.805 46.078 151.069C49.275 154.333 50.812 153.222 50.062 152.411C49.312 151.6 47.323 148.511 47.323 148.511L45.745 145.789C45.6855 145.686 45.6028 145.599 45.5035 145.534C45.4043 145.469 45.2912 145.428 45.1734 145.415C45.0556 145.401 44.9362 145.415 44.8248 145.456C44.7135 145.497 44.6132 145.563 44.532 145.65V145.65Z" fill="black"/>
<path id="Path 248" d="M17.633 74.023C17.262 77.444 16.584 82.6499 15.293 88.9099C12.378 103.047 9.27799 108.295 7.83699 116.363C6.62199 123.163 6.35799 133.236 11.363 146.586L16.163 146.995C16.4478 138.757 17.8879 130.599 20.441 122.761C23.814 112.525 29.685 101.361 33.719 84.0199C34.558 80.4149 35.397 76.199 33.094 73.71C29.133 69.426 18.871 73.515 17.633 74.023Z" fill="#26264F"/>
<g id="Path 249" style="mix-blend-mode:multiply" opacity="0.3">
<path d="M33.098 73.711C29.134 69.427 18.872 73.511 17.633 74.023C17.433 75.875 17.133 78.2651 16.707 81.0471C22.446 88.7561 22.819 93.901 21.851 97.299C20.351 102.548 15.508 104.26 15.29 110.421C15.144 114.544 17.253 115.535 16.54 119.638C15.757 124.138 12.988 124.281 12.01 128.538C10.947 133.171 13.735 135.117 14.197 140.879C14.3427 142.859 14.1928 144.851 13.752 146.787L16.167 146.992C16.4519 138.754 17.8919 130.596 20.445 122.758C23.818 112.522 29.689 101.358 33.723 84.017C34.561 80.416 35.401 76.198 33.098 73.711Z" fill="#FFC444"/>
</g>
<path id="Path 250" d="M20.132 70.118C20.6459 74.3429 21.9571 78.432 23.996 82.168C28.439 90.207 33.696 91.4099 39.789 99.5879C43.2483 104.243 45.8007 109.508 47.313 115.107C50.251 126.507 47.326 136.735 45.026 142.507L49.344 145.1C55.3897 137.677 59.2147 128.697 60.378 119.195C63.321 93.127 43.506 75.0069 41.25 73.0099L20.132 70.118Z" fill="#26264F"/>
<path id="Path 251" d="M29.197 8.65899C26.9079 8.76269 24.7104 9.58886 22.92 11.019C14.32 17.56 12.332 37.227 12.332 37.227C11.0648 50.3038 12.1201 63.5017 15.449 76.211C18.696 76.489 24.303 76.999 31.373 77.805C40.346 78.828 43.23 79.364 45.683 77.489C48.998 74.954 48.467 70.348 49.192 63.87C50.1786 55.625 52.667 47.6304 56.534 40.282C59.613 43.5487 63.5048 45.9385 67.811 47.2066C72.1172 48.4747 76.683 48.5756 81.041 47.499C91.352 44.799 98.967 35.332 99.641 24.083L96.797 22.391C92.1937 26.4241 86.5028 29.0094 80.437 29.823C68.653 31.149 58.032 24.382 53.565 21.536C47.031 17.373 40.087 13.891 33.414 9.95696C32.143 9.1697 30.6908 8.72273 29.197 8.65899V8.65899Z" fill="#FFC444"/>
<g id="Path 252" style="mix-blend-mode:multiply" opacity="0.3">
<path d="M37.784 75.117C36.96 75.007 30.179 74.017 28.099 69.337C26.492 65.723 29.39 63.731 27.943 59.496C26.374 54.906 22.236 55.096 20.757 50.748C19.567 47.248 21.776 45.737 22.476 40.594C23.693 31.643 18.056 28.46 18.571 20.755C18.8317 17.6071 19.9373 14.5879 21.771 12.016C14.145 19.346 12.329 37.227 12.329 37.227C11.0618 50.3038 12.1171 63.5016 15.446 76.211C18.693 76.489 24.3 76.999 31.37 77.805C40.343 78.828 43.227 79.364 45.68 77.489C47.1835 76.2386 48.1384 74.4499 48.341 72.505C45.2432 74.6001 41.5014 75.5259 37.784 75.117V75.117Z" fill="#FF9085"/>
</g>
</g>
<g id="Group 217">
<path id="Path 253" d="M29.224 147.488L5.75604 156.076C4.06807 156.694 2.61056 157.815 1.58087 159.288C0.55118 160.762 -0.00100048 162.516 -0.000976544 164.313V323.583C-0.00106208 324.887 0.289607 326.175 0.849915 327.352C1.41022 328.53 2.22608 329.567 3.23804 330.39L29.506 351.739L29.224 147.488Z" fill="#A2A7AE"/>
<g id="Group 216">
<path id="Path 254" d="M282.73 153.265L30.063 147.312C29.8074 147.304 29.553 147.348 29.3148 147.441C29.0766 147.534 28.8596 147.674 28.6768 147.852C28.494 148.031 28.3491 148.245 28.2508 148.481C28.1526 148.717 28.103 148.97 28.105 149.226V349.911C28.1023 350.164 28.1519 350.416 28.2507 350.649C28.3494 350.882 28.4952 351.093 28.6789 351.267C28.8626 351.442 29.0803 351.577 29.3185 351.663C29.5566 351.75 29.81 351.787 30.063 351.771L282.73 338.938C283.184 338.889 283.602 338.67 283.901 338.325C284.2 337.98 284.358 337.535 284.343 337.079V155.079C284.361 154.627 284.203 154.185 283.902 153.847C283.601 153.509 283.181 153.3 282.73 153.265V153.265Z" fill="#D8DEE8"/>
<path id="Path 255" d="M210.686 328.791L36.43 336.705V161.861L210.686 165.052V328.791Z" fill="#D8DEE8"/>
<g id="Group 211" style="mix-blend-mode:overlay" opacity="0.3">
<g id="Path 256" style="mix-blend-mode:overlay" opacity="0.3">
<path d="M273.711 229.747L224.265 230.095C223.188 230.145 222.173 230.617 221.442 231.41C220.71 232.203 220.321 233.252 220.357 234.33V246.63C220.337 247.16 220.422 247.689 220.608 248.186C220.794 248.683 221.077 249.138 221.441 249.524C221.805 249.911 222.242 250.22 222.727 250.436C223.212 250.651 223.735 250.768 224.265 250.779L273.711 250.031C274.756 249.962 275.733 249.487 276.433 248.708C277.133 247.928 277.5 246.906 277.457 245.86V233.837C277.481 233.322 277.404 232.807 277.228 232.323C277.053 231.838 276.783 231.393 276.435 231.013C276.087 230.632 275.667 230.325 275.2 230.108C274.732 229.891 274.226 229.768 273.711 229.747Z" fill="white"/>
</g>
<g id="Path 257" style="mix-blend-mode:overlay" opacity="0.3">
<path d="M273.711 255.099L224.265 255.947C223.185 256.01 222.173 256.492 221.443 257.291C220.713 258.089 220.323 259.141 220.357 260.222V272.522C220.335 273.051 220.42 273.578 220.606 274.073C220.792 274.569 221.076 275.021 221.44 275.405C221.805 275.788 222.243 276.094 222.728 276.305C223.213 276.516 223.736 276.627 224.265 276.631L273.711 275.383C274.758 275.302 275.733 274.818 276.432 274.033C277.13 273.249 277.497 272.225 277.457 271.175V259.15C277.482 258.637 277.405 258.124 277.23 257.641C277.054 257.158 276.784 256.715 276.435 256.337C276.086 255.96 275.666 255.656 275.198 255.444C274.73 255.231 274.225 255.114 273.711 255.099V255.099Z" fill="white"/>
</g>
<g id="Path 258" style="mix-blend-mode:overlay" opacity="0.3">
<path d="M273.711 280.453L224.265 281.802C223.183 281.877 222.171 282.368 221.443 283.172C220.714 283.976 220.325 285.031 220.357 286.116V298.416C220.334 298.943 220.418 299.469 220.605 299.962C220.791 300.456 221.075 300.906 221.441 301.286C221.806 301.667 222.244 301.969 222.73 302.175C223.215 302.381 223.738 302.487 224.265 302.485L273.711 300.736C274.76 300.642 275.734 300.15 276.431 299.36C277.128 298.57 277.495 297.543 277.457 296.49V284.465C277.483 283.953 277.406 283.442 277.231 282.961C277.055 282.479 276.785 282.039 276.435 281.664C276.086 281.29 275.664 280.99 275.196 280.782C274.728 280.574 274.223 280.462 273.711 280.453V280.453Z" fill="white"/>
</g>
<g id="Path 259" style="mix-blend-mode:overlay" opacity="0.3">
<path d="M273.711 305.805L224.265 307.654C223.181 307.743 222.171 308.243 221.444 309.053C220.717 309.863 220.328 310.92 220.357 312.008V324.308C220.333 324.833 220.416 325.358 220.602 325.85C220.788 326.342 221.073 326.79 221.44 327.168C221.806 327.546 222.245 327.844 222.731 328.045C223.217 328.247 223.739 328.346 224.265 328.338L273.711 326.089C274.762 325.983 275.734 325.482 276.429 324.686C277.125 323.891 277.492 322.861 277.457 321.805V309.781C277.485 309.271 277.409 308.76 277.234 308.281C277.058 307.801 276.787 307.362 276.437 306.99C276.086 306.618 275.664 306.321 275.195 306.117C274.727 305.914 274.222 305.807 273.711 305.805V305.805Z" fill="white"/>
</g>
</g>
<path id="Path 260" d="M193.587 247.317C193.587 285.789 163.939 318.179 126.416 319.7C87.801 321.266 55.663 289.718 55.663 249.194C55.663 208.67 87.801 176.247 126.416 176.762C163.939 177.262 193.587 208.845 193.587 247.317Z" fill="#A2A7AE"/>
<g id="Group 212">
<path id="Path 261" d="M39.54 155.161C39.5424 155.568 39.4632 155.97 39.3071 156.346C39.1511 156.721 38.9214 157.062 38.6315 157.347C38.3417 157.632 37.9976 157.856 37.6196 158.006C37.2417 158.155 36.8374 158.228 36.431 158.219C35.5992 158.197 34.8086 157.852 34.2269 157.257C33.6452 156.662 33.3181 155.864 33.315 155.032C33.3127 154.625 33.3922 154.221 33.5488 153.846C33.7053 153.47 33.9357 153.129 34.2263 152.844C34.5169 152.559 34.8618 152.335 35.2405 152.186C35.6192 152.037 36.024 151.965 36.431 151.975C37.2614 151.999 38.0501 152.344 38.6303 152.939C39.2105 153.533 39.5367 154.33 39.54 155.161V155.161Z" fill="#D8DEE8"/>
<path id="Path 262" d="M278.893 160.135C278.911 160.49 278.859 160.845 278.738 161.179C278.617 161.514 278.43 161.82 278.188 162.081C277.947 162.342 277.656 162.552 277.332 162.699C277.008 162.845 276.658 162.926 276.303 162.935C275.579 162.882 274.904 162.551 274.419 162.009C273.935 161.468 273.68 160.76 273.708 160.035C273.689 159.68 273.742 159.324 273.864 158.989C273.985 158.655 274.172 158.348 274.414 158.087C274.656 157.826 274.948 157.616 275.272 157.47C275.597 157.323 275.947 157.243 276.303 157.235C277.026 157.289 277.7 157.621 278.183 158.162C278.666 158.703 278.921 159.41 278.893 160.135V160.135Z" fill="#D8DEE8"/>
</g>
<g id="Group 213">
<path id="Path 263" d="M39.54 343.668C39.5326 344.506 39.2076 345.309 38.6305 345.916C38.0534 346.524 37.2672 346.889 36.431 346.939C36.0277 346.963 35.6239 346.903 35.2447 346.764C34.8654 346.625 34.5188 346.409 34.2265 346.13C33.9343 345.851 33.7025 345.515 33.5457 345.143C33.3889 344.77 33.3104 344.37 33.315 343.966C33.322 343.127 33.6479 342.322 34.2266 341.714C34.8053 341.107 35.5933 340.742 36.431 340.694C36.8338 340.671 37.237 340.732 37.6155 340.871C37.994 341.011 38.3397 341.227 38.6313 341.506C38.9228 341.785 39.1539 342.121 39.3102 342.493C39.4665 342.865 39.5448 343.264 39.54 343.668Z" fill="#D8DEE8"/>
<path id="Path 264" d="M278.893 332.182C278.916 332.913 278.662 333.626 278.182 334.177C277.701 334.729 277.03 335.078 276.303 335.156C275.95 335.159 275.601 335.09 275.276 334.952C274.951 334.815 274.658 334.612 274.415 334.356C274.171 334.101 273.983 333.798 273.862 333.467C273.74 333.136 273.688 332.783 273.708 332.431C273.684 331.699 273.938 330.985 274.42 330.433C274.901 329.881 275.574 329.532 276.303 329.457C276.655 329.455 277.004 329.525 277.329 329.663C277.653 329.801 277.945 330.003 278.188 330.259C278.431 330.514 278.618 330.817 278.74 331.148C278.861 331.478 278.913 331.83 278.893 332.182V332.182Z" fill="#D8DEE8"/>
</g>
<g id="rotate">
<g id="Path 265" style="mix-blend-mode:soft-light">
<path d="M149.571 204.844C149.571 217.978 139.354 252.063 126.641 252.255C113.805 252.449 103.308 218.082 103.308 204.716C103.308 191.35 113.808 180.64 126.641 180.792C139.354 180.942 149.571 191.71 149.571 204.844Z" fill="white"/>
</g>
<g id="Group 214" style="mix-blend-mode:soft-light">
<g id="Path 266" style="mix-blend-mode:soft-light">
<path d="M148.279 294.533C137.526 287.965 114.816 261.433 121.543 249.999C128.236 238.62 161.318 246.932 171.879 253.606C182.354 260.226 185.614 274.606 179.208 285.831C172.766 297.107 158.944 301.047 148.279 294.533Z" fill="white"/>
</g>
<g id="Path 267" style="mix-blend-mode:soft-light">
<path d="M104.644 295.899C115.665 288.593 138.361 260.999 131.719 249.853C125.043 238.653 91.0331 247.866 79.8061 255.07C74.3561 258.574 70.4839 264.061 69.0093 270.37C67.5347 276.679 68.5736 283.314 71.906 288.87C73.5422 291.539 75.7033 293.848 78.2582 295.657C80.8131 297.467 83.7087 298.739 86.7697 299.396C89.8306 300.053 92.9931 300.082 96.0656 299.481C99.138 298.88 102.056 297.661 104.644 295.899V295.899Z" fill="white"/>
</g>
</g>
<path id="Path 268" d="M145.688 247.97C145.688 259.008 137.094 268.138 126.416 268.364C115.651 268.592 106.86 259.699 106.86 248.498C106.86 237.297 115.651 228.165 126.416 228.098C137.094 228.035 145.688 236.927 145.688 247.97Z" fill="#D8DEE8"/>
</g>
<g id="Group 215">
<path id="Path 269" d="M212.505 173.851L33.314 171.181V166.664L212.505 169.628V173.851Z" fill="#D8DEE8"/>
<path id="Path 270" d="M212.505 184.587L33.314 182.667V178.152L212.505 180.367V184.587Z" fill="#D8DEE8"/>
<path id="Path 271" d="M212.505 195.324L33.314 194.153V189.635L212.505 191.101V195.324Z" fill="#D8DEE8"/>
<path id="Path 272" d="M212.505 206.061L33.314 205.639V201.124L212.505 201.84V206.061Z" fill="#D8DEE8"/>
<path id="Path 273" d="M212.505 216.795L33.314 217.123V212.608L212.505 212.575V216.795Z" fill="#D8DEE8"/>
<path id="Path 274" d="M212.505 227.534L33.314 228.611V224.096L212.505 223.314V227.534Z" fill="#D8DEE8"/>
<path id="Path 275" d="M212.505 238.27L33.314 240.096V235.581L212.505 234.049V238.27Z" fill="#D8DEE8"/>
<path id="Path 276" d="M212.505 249.007L33.314 251.583V247.068L212.505 244.787V249.007Z" fill="#D8DEE8"/>
<path id="Path 277" d="M212.505 259.744L33.314 263.069V258.554L212.505 255.523V259.744Z" fill="#D8DEE8"/>
<path id="Path 278" d="M212.505 270.48L33.314 274.554V270.039L212.505 266.259V270.48Z" fill="#D8DEE8"/>
<path id="Path 279" d="M212.505 281.217L33.314 286.041V281.526L212.505 276.997V281.217Z" fill="#D8DEE8"/>
<path id="Path 280" d="M212.505 291.954L33.314 297.527V293.012L212.505 287.733V291.954Z" fill="#D8DEE8"/>
<path id="Path 281" d="M212.505 302.69L33.314 309.013V304.498L212.505 298.47V302.69Z" fill="#D8DEE8"/>
<path id="Path 282" d="M212.505 313.426L33.314 320.498V315.983L212.505 309.206V313.426Z" fill="#D8DEE8"/>
<path id="Path 283" d="M212.505 324.161L33.314 331.982V327.467L212.505 319.94V324.161Z" fill="#D8DEE8"/>
</g>
<g id="Path 284" style="mix-blend-mode:soft-light" opacity="0.3">
<path d="M148.067 247.844C134.751 225.944 150.731 207.506 139.347 182.913C132.318 167.727 117.912 156.649 97.556 148.905L30.032 147.314C29.7809 147.308 29.531 147.352 29.2971 147.443C29.0633 147.535 28.8501 147.673 28.6704 147.848C28.4907 148.024 28.348 148.234 28.2507 148.465C28.1534 148.697 28.1035 148.946 28.104 149.197V349.987C28.1021 350.23 28.1502 350.472 28.2454 350.696C28.3405 350.92 28.4807 351.122 28.6573 351.29C28.8338 351.458 29.043 351.588 29.2717 351.671C29.5005 351.755 29.7439 351.79 29.987 351.776L257.605 340.215C257.192 312.787 249.505 297.879 241.305 289.066C214.76 260.518 167.678 280.104 148.067 247.844Z" fill="white"/>
</g>
</g>
</g>
<g id="translate_2">
<path id="Path 285" d="M341.889 197.301C343.361 198.786 343.957 200.38 343.422 201.314C343.053 201.959 342.236 202.128 341.341 202.3C339.928 202.571 338.455 202.5 335.426 201.643C332.599 200.843 330.937 200.375 330.935 199.696C330.935 199.06 332.387 198.566 333.663 198.133C335.107 197.644 336.613 197.363 338.136 197.301H341.889Z" fill="black"/>
<path id="Path 286" d="M297.92 173.219C298.31 173.348 298.668 173.56 298.968 173.84C299.269 174.121 299.504 174.463 299.659 174.844C300.017 176.161 298.609 177.52 296.359 179.644C294.67 181.235 292.389 183.384 291.595 182.844C291.109 182.512 291.395 181.319 291.663 180.207C292.178 178.136 293.133 176.2 294.463 174.531L297.92 173.219Z" fill="black"/>
<path id="Path 287" d="M338.66 194.029L341.827 197.54C341.902 197.623 341.954 197.723 341.98 197.831C342.005 197.94 342.002 198.053 341.972 198.16C341.941 198.267 341.884 198.365 341.805 198.444C341.727 198.523 341.629 198.58 341.522 198.611C340.697 198.87 339.817 198.905 338.974 198.711C338.78 198.65 338.604 198.543 338.462 198.397L335.301 195.31L338.66 194.029Z" fill="#EEE9DD"/>
<path id="Path 288" d="M296.166 171.098L297.874 173.558C297.931 173.64 297.97 173.734 297.988 173.832C298.006 173.93 298.004 174.031 297.981 174.129C297.958 174.226 297.914 174.317 297.853 174.397C297.793 174.476 297.716 174.542 297.628 174.59C297.357 174.741 297.074 174.872 296.783 174.98C296.542 175.068 296.279 175.082 296.03 175.02C295.78 174.958 295.555 174.822 295.383 174.631L293.531 172.546L296.166 171.098Z" fill="#EEE9DD"/>
<path id="Path 289" d="M326.834 119.562C324.639 124.142 323.037 128.984 322.067 133.97C320.233 144.381 320.983 155.084 324.252 165.137C327.731 175.861 333.875 185.526 342.109 193.228C340.045 194.977 337.454 195.981 334.751 196.082C324.669 189.032 316.479 179.605 310.908 168.636C300.523 147.871 303.128 127.487 307.668 118.865C309.158 116.034 310.842 114.501 312.75 113.819C318.869 111.632 325.966 118.683 326.834 119.562Z" fill="#26264F"/>
<g id="Path 290" style="mix-blend-mode:multiply" opacity="0.3">
<path d="M307.666 118.867C309.156 116.036 310.84 114.503 312.748 113.821C318.869 111.632 325.967 118.683 326.831 119.563C324.676 124.067 323.092 128.822 322.118 133.719C317.842 134.724 311.867 137.109 308.956 142.746C304.246 151.865 311.018 162.795 312.423 165.063C315.516 170.055 317.389 169.587 321.956 176.763C325.406 182.183 325.669 184.543 328.673 187.163C332.204 190.243 336.613 191.146 340.173 191.342C340.873 192.052 341.522 192.682 342.106 193.23C340.042 194.978 337.451 195.983 334.748 196.084C324.666 189.034 316.477 179.607 310.905 168.638C300.521 147.873 303.126 127.488 307.666 118.867Z" fill="#FFC444"/>
</g>
<path id="Path 291" d="M318.923 118.804C317.834 121.031 316.409 123.077 314.698 124.871C309.209 130.594 304.077 130.053 298.263 134.771C297.546 135.352 292.396 139.623 290.494 145.854C286.833 157.848 297.472 169.675 298.65 170.948C296.843 172.623 294.591 173.74 292.164 174.166C276.91 160.228 269.456 143.338 274.532 132.366C277.301 126.379 283.856 122.026 288.698 118.812C294.921 114.695 301.824 111.712 309.088 110.003L318.923 118.804Z" fill="#26264F"/>
<path id="Path 292" d="M309.823 86.9899C309.593 93.7349 311.157 97.233 308.967 102.737C307.625 105.985 305.511 108.856 302.807 111.101C305.046 115.42 308.44 119.032 312.612 121.534C316.784 124.036 321.57 125.329 326.434 125.27C334.037 121.411 340.595 115.772 345.548 108.832C349.772 102.84 354.41 96.2619 353.183 87.8759C351.624 77.2229 341.752 71.5319 338.953 69.9179C337.111 68.8559 324.389 61.5179 316.612 66.9119C310.359 71.2469 309.995 81.9449 309.823 86.9899Z" fill="#FFC444"/>
<path id="Path 293" d="M267.302 94.646C267.07 93.7437 266.572 92.9318 265.873 92.3159C265.356 91.7949 265.25 91.8769 264.913 91.4499C264.064 90.3759 264.269 89.266 263.943 89.229C263.659 89.197 263.161 89.9959 263.195 90.8219C263.233 91.7459 263.908 92.0219 263.781 92.5329C263.602 93.2529 262.002 93.7759 260.581 93.5079C258.938 93.1969 258.136 91.8729 257.494 92.2079C257.027 92.4519 257.057 93.3229 257.061 93.3999C257.133 95.0349 259.317 96.7509 261.448 96.9749C262.675 97.1039 263.134 96.6589 264.59 97.0289C265.555 97.2739 265.89 97.6069 266.378 97.4079C267.174 97.0829 267.496 95.688 267.302 94.646Z" fill="#EEE9DD"/>
<path id="Path 294" d="M267.068 94.069C280.203 94.978 288.049 91.562 292.779 88.291C303.508 80.871 305.613 69.075 318.057 65.902C320.326 65.324 324.278 64.3161 326.435 66.3351C330.916 70.5351 325.635 85.914 316.324 95.368C310.52 101.351 302.892 105.234 294.64 106.408C278.975 108.521 267.74 99.681 265.799 98.108C265.498 97.7729 265.295 97.3621 265.21 96.9199C265.125 96.4777 265.162 96.0207 265.317 95.598C265.47 95.2248 265.708 94.8923 266.012 94.6269C266.316 94.3616 266.678 94.1705 267.068 94.069V94.069Z" fill="#FFC444"/>
<g id="Path 295" style="mix-blend-mode:multiply" opacity="0.3">
<path d="M332.067 114.724C335.767 111.224 334.015 109.049 338.567 102.013C343.204 94.845 346.541 94.7129 348.678 89.8799C349.783 87.3799 350.465 83.79 349.247 78.632C351.31 81.3366 352.663 84.515 353.182 87.877C354.409 96.263 349.771 102.841 345.547 108.833C340.594 115.772 334.036 121.411 326.433 125.269C321.196 125.312 316.063 123.808 311.677 120.946C309.638 119.603 307.797 117.98 306.209 116.125C308.29 117.278 310.529 118.12 312.855 118.625C314.09 118.89 325.288 121.145 332.067 114.724Z" fill="#FFC444"/>
</g>
<path id="Path 296" d="M335.46 62.623L336.531 66.238C336.873 67.3945 337.567 68.4154 338.517 69.1589L341.357 71.3819C341.357 71.3819 332.697 69.9279 328.557 65.8919L331.086 65.092C331.216 65.0512 331.329 64.9701 331.409 64.8606C331.49 64.7511 331.533 64.6188 331.533 64.483V61.8249L335.46 62.623Z" fill="#EEE9DD"/>
<g id="Group 219">
<g id="Group 218">
<path id="Path 297" d="M332.347 64.4489C331.935 64.3579 328.947 64.849 328.095 63.41C326.941 61.459 328.089 58.3419 328.205 57.8609C328.69 55.8449 328.871 55.539 329.245 55.113L329.774 54.5539L329.842 54.505C330.486 54.1831 331.172 53.9546 331.88 53.826C332.828 53.779 334.755 57.176 335.859 62.411C335.948 62.5976 336.037 62.7863 336.126 62.977C336.354 63.473 332.374 64.6399 332.347 64.4489Z" fill="#EEE9DD"/>
<path id="Path 298" d="M327.526 53.582C327.857 54.8709 328.593 56.0195 329.626 56.8589C329.899 56.9771 330.152 57.1389 330.374 57.3379C330.428 57.3864 330.475 57.4415 330.515 57.502C331.134 58.417 329.848 60.0299 330.277 60.4019C330.589 60.6699 331.561 59.941 331.766 60.19C331.971 60.439 331.201 61.216 331.424 61.497C331.593 61.71 332.091 61.3409 332.541 61.6159C332.765 61.7529 332.752 61.916 333.087 62.424C333.261 62.695 333.46 62.9494 333.681 63.184C334.481 63.976 336.141 63.901 336.342 63.445C336.398 63.318 336.303 63.2449 336.294 62.8749C336.298 62.6094 336.338 62.3456 336.413 62.091C336.798 61.3454 337.305 60.6695 337.913 60.091C338.635 59.3208 339.114 58.3543 339.29 57.3129C339.304 57.1939 339.308 57.1049 339.311 57.0419C339.372 55.6301 338.945 54.2404 338.103 53.106C336.74 51.559 334.963 52.9389 332.852 51.6059C330.417 50.0709 330.8 46.983 329.692 46.949C328.466 46.915 326.728 50.627 327.526 53.582Z" fill="black"/>
<path id="Path 299" d="M330.75 59.87C330.999 59.227 331.822 59.549 332.012 60.245C332.06 60.4172 332.072 60.5974 332.048 60.7745C332.024 60.9517 331.965 61.1221 331.872 61.2753C331.78 61.4285 331.658 61.5612 331.513 61.6655C331.368 61.7699 331.203 61.8435 331.028 61.882C330.336 61.92 330.411 60.735 330.75 59.87Z" fill="#EEE9DD"/>
</g>
</g>
</g>
<g id="Group 221">
<path id="Path 300" d="M266.138 356.986C265.939 356.986 265.747 356.907 265.606 356.766C265.465 356.625 265.386 356.433 265.386 356.234V202.545C265.379 202.442 265.392 202.338 265.427 202.241C265.461 202.143 265.515 202.054 265.585 201.978C265.656 201.902 265.741 201.842 265.836 201.801C265.931 201.76 266.033 201.738 266.136 201.738C266.239 201.738 266.342 201.76 266.437 201.801C266.531 201.842 266.616 201.902 266.687 201.978C266.757 202.054 266.811 202.143 266.846 202.241C266.88 202.338 266.894 202.442 266.886 202.545V356.234C266.886 356.433 266.807 356.623 266.667 356.764C266.527 356.905 266.337 356.985 266.138 356.986Z" fill="#A2A7AE"/>
<path id="Path 301" d="M333.281 353.827C333.082 353.827 332.89 353.748 332.749 353.607C332.608 353.466 332.529 353.274 332.529 353.075V202.545C332.522 202.442 332.535 202.338 332.57 202.241C332.604 202.143 332.658 202.054 332.728 201.978C332.799 201.902 332.884 201.842 332.979 201.801C333.074 201.76 333.176 201.738 333.279 201.738C333.382 201.738 333.485 201.76 333.58 201.801C333.674 201.842 333.76 201.902 333.83 201.978C333.9 202.054 333.954 202.143 333.989 202.241C334.023 202.338 334.037 202.442 334.029 202.545V353.075C334.029 353.274 333.951 353.464 333.81 353.605C333.67 353.746 333.48 353.826 333.281 353.827V353.827Z" fill="#A2A7AE"/>
<path id="Path 302" d="M326.5 375C326.331 375 326.167 374.942 326.034 374.837C325.901 374.732 325.808 374.586 325.769 374.421L285.45 204.1C285.411 203.908 285.448 203.709 285.553 203.544C285.658 203.379 285.823 203.262 286.014 203.216C286.204 203.171 286.404 203.202 286.572 203.303C286.74 203.403 286.863 203.565 286.913 203.754L327.232 374.078C327.258 374.188 327.259 374.303 327.234 374.414C327.209 374.525 327.16 374.628 327.089 374.717C327.019 374.806 326.929 374.878 326.827 374.927C326.725 374.977 326.613 375.003 326.5 375.003V375Z" fill="#A2A7AE"/>
<path id="Path 303" d="M388.875 366.628C388.708 366.628 388.546 366.572 388.414 366.47C388.282 366.367 388.188 366.224 388.147 366.062L346.84 204.11C346.795 203.918 346.827 203.716 346.929 203.548C347.031 203.379 347.195 203.258 347.386 203.209C347.577 203.16 347.779 203.188 347.95 203.287C348.12 203.386 348.245 203.548 348.297 203.738L389.608 365.691C389.636 365.802 389.639 365.918 389.615 366.03C389.592 366.142 389.543 366.247 389.473 366.338C389.402 366.428 389.313 366.501 389.21 366.551C389.107 366.602 388.994 366.628 388.879 366.628H388.875Z" fill="#A2A7AE"/>
<path id="Path 304" d="M349.934 204.061L285.624 205.44L265.018 204.061V201.027L312.936 200.055L349.936 201.027L349.934 204.061Z" fill="#A2A7AE"/>
<path id="Path 305" d="M349.934 204.063L285.624 205.442V202.408L349.934 201.029V204.063Z" fill="url(#paint12_linear_258:2)"/>
<path id="Path 306" d="M294.888 241.455C294.698 241.447 294.517 241.368 294.383 241.232C294.249 241.096 294.172 240.915 294.167 240.724C294.162 240.534 294.229 240.348 294.355 240.205C294.482 240.063 294.657 239.973 294.847 239.955L355.431 236.581C355.532 236.571 355.635 236.581 355.732 236.611C355.829 236.641 355.919 236.691 355.996 236.757C356.074 236.823 356.137 236.904 356.182 236.995C356.227 237.086 356.253 237.186 356.259 237.288C356.265 237.389 356.25 237.491 356.215 237.587C356.18 237.682 356.126 237.77 356.056 237.844C355.987 237.918 355.903 237.977 355.81 238.018C355.716 238.059 355.616 238.08 355.514 238.081L294.93 241.455H294.888Z" fill="#A2A7AE"/>
<path id="Path 307" d="M302.903 275.314C302.724 275.323 302.548 275.266 302.409 275.152C302.271 275.039 302.18 274.877 302.154 274.7C302.153 274.608 302.171 274.516 302.206 274.431C302.241 274.346 302.292 274.268 302.357 274.203C302.423 274.138 302.5 274.086 302.585 274.051C302.671 274.017 302.762 273.999 302.854 274L364.463 270.4C364.65 270.379 364.837 270.431 364.987 270.545C365.136 270.66 365.235 270.827 365.263 271.013C365.264 271.105 365.246 271.196 365.211 271.282C365.176 271.367 365.125 271.445 365.06 271.51C364.995 271.575 364.917 271.626 364.832 271.661C364.747 271.696 364.655 271.714 364.563 271.713L302.954 275.313L302.903 275.314Z" fill="#A2A7AE"/>
<path id="Path 308" d="M310.872 308.98C310.681 308.975 310.499 308.897 310.363 308.763C310.227 308.629 310.147 308.447 310.14 308.256C310.133 308.065 310.199 307.878 310.324 307.734C310.45 307.59 310.626 307.499 310.816 307.48L372.873 302.754C372.972 302.747 373.071 302.758 373.164 302.789C373.258 302.82 373.345 302.869 373.42 302.933C373.495 302.998 373.557 303.076 373.601 303.164C373.646 303.252 373.673 303.348 373.68 303.447C373.688 303.545 373.676 303.645 373.645 303.738C373.614 303.832 373.565 303.919 373.501 303.994C373.436 304.069 373.358 304.131 373.27 304.175C373.182 304.22 373.086 304.247 372.987 304.254L310.93 308.98H310.872Z" fill="#A2A7AE"/>
<path id="Path 309" d="M318.796 342.453C318.604 342.45 318.421 342.374 318.283 342.241C318.145 342.107 318.064 341.926 318.056 341.734C318.047 341.542 318.112 341.355 318.238 341.21C318.363 341.065 318.539 340.973 318.73 340.953L381.167 335.386C381.366 335.368 381.564 335.43 381.717 335.558C381.87 335.686 381.966 335.87 381.984 336.069C382.002 336.268 381.94 336.466 381.812 336.619C381.684 336.772 381.5 336.868 381.301 336.886L318.865 342.454C318.841 342.452 318.818 342.453 318.796 342.453Z" fill="#A2A7AE"/>
</g>
<path id="Path 310" opacity="0.26" d="M164.175 120.348C161.853 120.268 159.574 119.695 157.489 118.668C155.405 117.642 153.562 116.183 152.083 114.391C151.184 113.315 150.071 112.439 148.814 111.819C147.556 111.199 146.184 110.849 144.783 110.791C143.353 110.745 141.928 110.996 140.6 111.529C139.272 112.062 138.069 112.864 137.067 113.886C135.296 115.667 133.18 117.068 130.849 118.003C128.518 118.938 126.02 119.387 123.509 119.324C120.934 119.255 118.4 118.656 116.067 117.564C113.733 116.472 111.65 114.911 109.947 112.978C108.911 111.817 107.65 110.879 106.24 110.219C104.831 109.559 103.302 109.192 101.747 109.139C100.143 109.081 98.5423 109.34 97.038 109.901C95.5336 110.462 94.1547 111.315 92.98 112.409C92.5666 112.803 92.0789 113.11 91.5453 113.313C91.0117 113.516 90.4428 113.61 89.8723 113.59C89.3018 113.57 88.7411 113.437 88.2228 113.197C87.7045 112.958 87.2392 112.618 86.8541 112.196C86.4691 111.775 86.172 111.281 85.9804 110.743C85.7887 110.205 85.7063 109.635 85.7379 109.065C85.7696 108.495 85.9146 107.937 86.1647 107.424C86.4147 106.91 86.7646 106.452 87.194 106.076C89.2129 104.232 91.5763 102.806 94.1482 101.878C96.7201 100.95 99.45 100.54 102.181 100.67C104.807 100.789 107.382 101.435 109.753 102.571C112.124 103.706 114.242 105.308 115.981 107.279C116.957 108.408 118.153 109.325 119.497 109.974C120.841 110.623 122.303 110.99 123.794 111.052C125.285 111.115 126.773 110.871 128.166 110.337C129.559 109.802 130.828 108.988 131.895 107.944C133.58 106.231 135.606 104.891 137.841 104.009C140.076 103.127 142.471 102.723 144.872 102.824C147.272 102.924 149.625 103.526 151.779 104.591C153.933 105.656 155.839 107.161 157.376 109.008C158.209 110.062 159.26 110.924 160.456 111.535C161.653 112.146 162.967 112.491 164.309 112.547C165.652 112.603 166.99 112.369 168.234 111.86C169.477 111.351 170.596 110.58 171.514 109.599C178.125 102.688 188.284 103.224 194.228 110.548C194.98 111.528 195.934 112.334 197.026 112.911C198.119 113.487 199.323 113.821 200.556 113.888C201.752 113.921 202.94 113.686 204.033 113.2C205.127 112.713 206.097 111.987 206.872 111.076C212.726 104.515 221.842 104.997 227.247 111.927C227.785 112.648 228.071 113.525 228.062 114.424C228.053 115.324 227.75 116.195 227.198 116.905C226.952 117.218 226.635 117.469 226.273 117.637C225.912 117.805 225.516 117.886 225.118 117.872C224.719 117.859 224.33 117.752 223.981 117.56C223.631 117.368 223.332 117.097 223.107 116.768C222.419 115.835 221.533 115.064 220.513 114.511C219.494 113.958 218.365 113.636 217.207 113.568C216.045 113.542 214.892 113.78 213.836 114.264C212.779 114.748 211.846 115.465 211.107 116.362C209.804 117.922 208.168 119.17 206.32 120.017C204.472 120.863 202.458 121.286 200.425 121.254C198.316 121.164 196.253 120.615 194.378 119.646C192.503 118.676 190.862 117.31 189.57 115.641C188.789 114.627 187.794 113.798 186.655 113.213C185.516 112.629 184.262 112.304 182.983 112.261C181.703 112.218 180.43 112.459 179.255 112.966C178.08 113.473 177.031 114.233 176.184 115.193C174.667 116.86 172.81 118.183 170.738 119.072C168.667 119.961 166.429 120.396 164.175 120.348V120.348Z" fill="#E38DDD"/>
<path id="Path 311" opacity="0.26" d="M232.041 138.199C230.114 138.153 228.223 137.668 226.512 136.78C224.801 135.893 223.315 134.627 222.167 133.079C221.47 132.152 220.574 131.393 219.544 130.859C218.515 130.326 217.378 130.03 216.219 129.995C215.037 130.002 213.872 130.273 212.809 130.787C211.745 131.302 210.81 132.048 210.071 132.97C204.113 139.93 194.353 139.953 188.364 132.77C187.569 131.777 186.567 130.97 185.426 130.407C184.286 129.844 183.036 129.537 181.764 129.51C180.456 129.51 179.164 129.79 177.974 130.332C176.784 130.873 175.724 131.663 174.864 132.648C173.347 134.364 171.485 135.741 169.4 136.689C167.315 137.638 165.054 138.137 162.764 138.154C160.437 138.139 158.142 137.619 156.036 136.63C153.929 135.642 152.063 134.209 150.564 132.429C149.653 131.362 148.524 130.501 147.254 129.905C145.983 129.308 144.6 128.99 143.197 128.971C141.741 128.965 140.3 129.256 138.96 129.827C137.621 130.398 136.413 131.237 135.41 132.292C135.06 132.668 134.635 132.968 134.163 133.171C133.691 133.374 133.181 133.477 132.667 133.472C132.153 133.468 131.646 133.356 131.177 133.144C130.708 132.933 130.289 132.626 129.946 132.243C129.245 131.419 128.881 130.36 128.926 129.279C128.971 128.198 129.422 127.173 130.189 126.41C131.913 124.631 133.984 123.224 136.273 122.276C138.562 121.328 141.022 120.86 143.499 120.9C145.869 120.961 148.2 121.523 150.337 122.55C152.474 123.576 154.37 125.044 155.899 126.856C156.762 127.901 157.841 128.747 159.062 129.335C160.283 129.924 161.617 130.241 162.972 130.264C164.327 130.288 165.671 130.018 166.912 129.472C168.153 128.926 169.26 128.119 170.159 127.104C176.827 119.953 187.071 120.245 193.059 127.504C193.799 128.484 194.752 129.283 195.847 129.84C196.941 130.397 198.148 130.698 199.376 130.719C200.604 130.741 201.821 130.482 202.934 129.964C204.048 129.445 205.028 128.68 205.802 127.726C211.702 120.95 220.887 121.212 226.33 128.082C226.998 128.992 227.863 129.738 228.86 130.266C229.857 130.794 230.961 131.089 232.089 131.13C233.194 131.123 234.282 130.863 235.271 130.369C236.259 129.875 237.121 129.161 237.789 128.281C243.039 121.843 251.322 122.081 256.295 128.602C256.792 129.3 257.059 130.136 257.059 130.993C257.059 131.85 256.792 132.686 256.295 133.384C256.088 133.689 255.809 133.937 255.483 134.108C255.157 134.279 254.794 134.367 254.426 134.363C254.058 134.36 253.696 134.266 253.374 134.089C253.051 133.913 252.776 133.659 252.575 133.351C251.977 132.459 251.171 131.725 250.226 131.215C249.281 130.705 248.225 130.433 247.151 130.423C246.077 130.413 245.017 130.666 244.063 131.159C243.109 131.651 242.289 132.37 241.675 133.251C240.552 134.755 239.1 135.983 237.431 136.84C235.761 137.698 233.918 138.163 232.041 138.199V138.199Z" fill="#E38DDD"/>
<g id="translate_1">
<path id="Path 312" d="M116.654 356.335C116.49 357.494 116.453 358.668 116.546 359.835C116.767 360.713 124.384 361.347 126.97 361.042C129.556 360.737 125.43 358.096 123.783 357.6C122.136 357.104 116.654 356.335 116.654 356.335Z" fill="black"/>
<path id="Path 313" d="M120.488 351.967L119.688 357.223C119.688 357.223 117.641 358.143 116.657 357.234L116.549 351.734L120.488 351.967Z" fill="#EEE9DD"/>
<path id="Path 314" d="M77.549 351.732C77.549 351.732 79.165 352.932 78.734 354.368C78.303 355.804 74.534 361.559 71.844 363.193C69.154 364.827 69.999 361.423 70.781 359.304C71.563 357.185 73.5621 352.515 74.3421 351.733C75.1221 350.951 77.549 351.732 77.549 351.732Z" fill="black"/>
<path id="Path 315" d="M80.455 345.957C79.674 348.135 78.922 349.925 78.335 351.246C77.6537 353.035 76.7041 354.711 75.519 356.215C74.819 357.043 73.1549 358.809 72.7089 358.515C72.2629 358.221 73.471 356.069 75.815 349.779C76.155 348.866 77.2299 345.957 77.2299 345.957H80.457H80.455Z" fill="#EEE9DD"/>
<path id="Path 316" d="M136.44 254.96C137.261 263.029 137.359 271.155 136.733 279.241C135.691 292.675 133.004 301.176 129.633 315.5C127.574 324.254 124.8 337.138 122.289 353.251C120.928 354.036 119.345 354.347 117.789 354.134C116.826 353.988 115.905 353.637 115.089 353.106C108.502 332.979 110.448 320.506 113.626 312.736C114.981 309.423 116.626 306.81 117.502 301.718C118.664 294.982 117.227 291.218 115.179 275.612C113.719 264.49 113.971 262.771 114.943 261.103C118.823 254.434 130.702 254.564 136.44 254.96Z" fill="#26264F"/>
<path id="Path 317" d="M113.769 257.299C109.734 278.137 105.769 289.082 102.777 295.272C100.617 299.641 98.7675 304.156 97.2411 308.785C95.8614 313.004 94.738 317.302 93.8771 321.657C92.4861 328.045 89.048 337.371 79.796 349.604C79.3138 349.883 78.7723 350.043 78.2159 350.072C77.6596 350.101 77.1044 349.997 76.5961 349.769C76.0363 349.465 75.584 348.996 75.301 348.425C76.51 336.725 77.9011 326.902 79.1011 319.317C79.3541 317.726 80.4671 310.766 82.2141 301.571C82.8971 297.971 83.899 292.7 85.098 287.284C86.592 280.54 88.882 271.365 92.411 260.371L113.769 257.299Z" fill="#26264F"/>
<path id="Path 318" d="M117.206 174.876C119.494 172.761 123.872 170.322 126.068 164.654C126.729 162.948 129.068 156.902 125.616 152.277C123.566 149.532 119.758 147.668 116.401 148.328C113.533 148.892 113.084 150.89 108.21 154.91C105.71 157.131 102.901 158.977 99.869 160.389C94.054 162.789 90.561 160.53 84.723 160.789C77.551 161.105 69.2231 165.108 65.2061 170.928C58.0821 181.258 68.406 191.737 60.598 203.839C58.041 207.804 56.781 206.915 50.725 214.59C44.669 222.265 41.625 226.117 42.168 230.826C42.917 237.361 49.9561 243.604 56.5841 244.026C63.0591 244.441 67.1751 239.347 70.4711 241.575C72.8171 243.16 71.4711 246.245 73.9711 249.952C77.1831 254.731 83.4971 255.683 84.5161 255.837C93.9801 257.265 106.741 246.167 112.161 233.019C121.937 209.309 104.765 186.376 117.206 174.876Z" fill="black"/>
<path id="Path 319" d="M156.04 181.458C156.104 174.84 141.07 169.551 134.192 167.847C127.203 166.087 119.911 165.9 112.842 167.301C103.324 169.391 94.6744 174.346 88.058 181.501C94.0852 185.418 98.6897 191.173 101.189 197.913C102.278 200.913 105.496 211.186 100.894 220.805C98.242 226.348 93.552 230.505 89.994 233.669C84.651 238.409 81.8831 239.138 80.0941 243.385C78.1431 248.01 80.109 250.265 77.686 253.431C75.086 256.831 72.036 255.25 67.626 258.689C63.108 262.211 64.716 265.109 60.605 269.001C54.631 274.655 46.7121 272.819 46.3441 275.364C46.0271 277.553 51.655 280.522 56.437 281.727C65.906 284.112 74.166 280.109 76.622 278.875C83.422 275.459 82.2471 273.248 87.4321 270.643C96.1141 266.282 102.046 271.135 121.82 271.635C132.528 271.906 137.942 271.967 140.908 268.344C143.617 265.035 142.193 261.405 140.567 245.762C139.793 238.317 139.514 230.828 138.944 223.362C137.331 202.25 137.282 200.392 138.714 197.473C143.837 187.019 155.983 187.398 156.04 181.458Z" fill="#FFC444"/>
<g id="Group 222" style="mix-blend-mode:multiply" opacity="0.3">
<g id="Path 320" style="mix-blend-mode:multiply" opacity="0.3">
<path d="M60.6 269.001C64.711 265.109 63.1 262.21 67.621 258.689C72.031 255.251 75.0791 256.831 77.6811 253.431C80.1041 250.265 78.1381 248.01 80.0891 243.385C81.8801 239.138 84.6481 238.41 89.9891 233.669C93.5511 230.508 98.242 226.347 100.889 220.805C105.489 211.186 102.273 200.917 101.184 197.913C98.6848 191.173 94.0802 185.418 88.0531 181.501C88.3001 181.235 88.5911 180.932 88.9011 180.614C105.777 182.933 115.617 192.685 116.834 195.572C119.647 202.247 115.194 204.699 115.079 223.949C115.024 233.149 116.017 236.783 113.031 240.624C109.617 245.016 105.682 243.657 100.744 249.4C96.9501 253.812 97.5581 256.609 94.0151 258.469C90.2061 260.469 87.7801 258.138 83.4841 259.054C76.3071 260.585 74.772 268.861 70.027 273.388C66.439 276.812 59.8051 279.206 46.7211 276.636C46.4351 276.276 46.2957 275.821 46.3311 275.363C46.7061 272.819 54.625 274.656 60.6 269.001Z" fill="#FFC444"/>
</g>
</g>
<path id="Path 321" d="M111.721 200.766C113.515 204.576 105.271 213.449 96.1091 217.666C94.2421 218.525 80.836 224.689 74.861 218.766C69.924 213.866 73.11 203.74 74.248 200.124C79.834 182.369 96.9881 173.338 104.177 170.08C109.542 183.495 106.382 189.473 105.139 191.34C102.514 194.819 99.5765 198.05 96.363 200.994C93.654 203.532 91.963 204.767 92.194 205.163C92.476 205.656 95.6521 204.725 107.984 198.722C109.413 198.945 111.108 199.465 111.721 200.766Z" fill="#FFC444"/>
<path id="Path 322" d="M163.325 178.879L157.274 209.015C157.179 209.488 156.948 209.922 156.61 210.265C156.271 210.608 155.839 210.845 155.368 210.946L110.248 220.629C109.872 220.71 109.482 220.702 109.109 220.605C108.736 220.509 108.391 220.327 108.101 220.073C107.812 219.82 107.585 219.502 107.44 219.146C107.294 218.789 107.234 218.404 107.264 218.02L109.645 187.371C109.685 186.853 109.888 186.36 110.224 185.964C110.56 185.567 111.012 185.286 111.517 185.162C118.674 183.395 146.223 176.78 160.753 175.92C161.131 175.897 161.51 175.961 161.859 176.108C162.209 176.255 162.52 176.48 162.768 176.766C163.017 177.052 163.196 177.391 163.293 177.757C163.389 178.124 163.4 178.508 163.325 178.879V178.879Z" fill="white"/>
<path id="Path 323" d="M118.32 156.87C118.32 156.87 117.469 163.67 114.958 165.233C112.447 166.796 108.387 168.827 107.94 169.38C107.493 169.933 123.497 171.653 131.428 167.651C128.814 167.106 128.104 166.905 128.104 166.905C126.934 166.601 125.806 166.155 124.745 165.575C123.276 164.725 122.014 163.559 121.052 162.16L121.081 158.392L118.32 156.87Z" fill="#EEE9DD"/>
<path id="Path 324" d="M117.938 159.279C118.413 159.911 119.074 160.378 119.829 160.613C120.584 160.849 121.393 160.84 122.143 160.59C124.443 159.751 123.07 153.813 121.243 153.136C120.829 153.026 120.397 152.999 119.973 153.057C119.548 153.116 119.14 153.258 118.771 153.476C118.186 153.944 117.763 154.584 117.561 155.306C117.36 156.028 117.39 156.794 117.647 157.498C117.066 157.33 116.555 157.482 116.427 157.77C116.265 158.135 116.756 158.632 116.868 158.744C117.16 159.03 117.534 159.217 117.938 159.279Z" fill="#EEE9DD"/>
<path id="Path 325" d="M122.691 204.935C127.537 203.569 131.556 206.962 135.417 204.277C139.372 201.527 136.791 196.829 140.902 192.21C145.302 187.271 150.875 189.69 154.944 185.189C156.455 183.518 157.814 180.795 157.834 176.152C158.853 176.052 159.834 175.975 160.753 175.921C161.131 175.898 161.509 175.962 161.859 176.109C162.208 176.256 162.519 176.48 162.768 176.766C163.016 177.052 163.196 177.391 163.292 177.758C163.389 178.124 163.4 178.508 163.325 178.879L157.273 209.015C157.178 209.487 156.948 209.922 156.609 210.265C156.271 210.608 155.839 210.845 155.368 210.946L112.005 220.252C115.067 209.51 119.152 205.932 122.691 204.935Z" fill="#F4F7FA"/>
<path id="Path 326" d="M160.452 194.91C160.452 194.91 163.33 192.249 163.643 189.159C163.769 187.832 163.448 186.501 162.729 185.379C162.011 184.256 160.938 183.406 159.68 182.965C157.58 182.335 156.453 183.265 157.865 186.307C159.277 189.349 161.519 191.326 160.452 194.91Z" fill="#311944"/>
</g>
</g>
</g>
<defs>
<linearGradient id="paint0_linear_258:2" x1="177.254" y1="59.1203" x2="177.245" y2="83.2188" gradientUnits="userSpaceOnUse">
<stop stop-color="#444B8C"/>
<stop offset="0.996" stop-color="#26264F"/>
</linearGradient>
<linearGradient id="paint1_linear_258:2" x1="47.5328" y1="31.6511" x2="47.1386" y2="98.9655" gradientUnits="userSpaceOnUse">
<stop stop-color="#444B8C"/>
<stop offset="0.996" stop-color="#26264F"/>
</linearGradient>
<linearGradient id="paint2_linear_258:2" x1="47.5328" y1="27.5809" x2="47.1319" y2="94.7743" gradientUnits="userSpaceOnUse">
<stop stop-color="#444B8C"/>
<stop offset="0.996" stop-color="#26264F"/>
</linearGradient>
<linearGradient id="paint3_linear_258:2" x1="110.221" y1="34.9283" x2="109.833" y2="100.262" gradientUnits="userSpaceOnUse">
<stop stop-color="#444B8C"/>
<stop offset="0.996" stop-color="#26264F"/>
</linearGradient>
<linearGradient id="paint4_linear_258:2" x1="110.221" y1="30.9112" x2="109.827" y2="96.1398" gradientUnits="userSpaceOnUse">
<stop stop-color="#444B8C"/>
<stop offset="0.996" stop-color="#26264F"/>
</linearGradient>
<linearGradient id="paint5_linear_258:2" x1="170.971" y1="38.1146" x2="170.59" y2="101.572" gradientUnits="userSpaceOnUse">
<stop stop-color="#444B8C"/>
<stop offset="0.996" stop-color="#26264F"/>
</linearGradient>
<linearGradient id="paint6_linear_258:2" x1="171.027" y1="34.1683" x2="170.639" y2="97.5083" gradientUnits="userSpaceOnUse">
<stop stop-color="#444B8C"/>
<stop offset="0.996" stop-color="#26264F"/>
</linearGradient>
<linearGradient id="paint7_linear_258:2" x1="229.984" y1="41.2187" x2="229.61" y2="102.883" gradientUnits="userSpaceOnUse">
<stop stop-color="#444B8C"/>
<stop offset="0.996" stop-color="#26264F"/>
</linearGradient>
<linearGradient id="paint8_linear_258:2" x1="230.039" y1="37.3273" x2="229.658" y2="98.8695" gradientUnits="userSpaceOnUse">
<stop stop-color="#444B8C"/>
<stop offset="0.996" stop-color="#26264F"/>
</linearGradient>
<linearGradient id="paint9_linear_258:2" x1="287.278" y1="44.2337" x2="286.909" y2="104.159" gradientUnits="userSpaceOnUse">
<stop stop-color="#444B8C"/>
<stop offset="0.996" stop-color="#26264F"/>
</linearGradient>
<linearGradient id="paint10_linear_258:2" x1="287.279" y1="40.3978" x2="286.904" y2="100.223" gradientUnits="userSpaceOnUse">
<stop stop-color="#444B8C"/>
<stop offset="0.996" stop-color="#26264F"/>
</linearGradient>
<linearGradient id="paint11_linear_258:2" x1="103.084" y1="16.6251" x2="99.471" y2="43.2215" gradientUnits="userSpaceOnUse">
<stop stop-color="#FFC444"/>
<stop offset="0.996" stop-color="#F36F56"/>
</linearGradient>
<linearGradient id="paint12_linear_258:2" x1="9.73505" y1="203.156" x2="-30.7766" y2="232.271" gradientUnits="userSpaceOnUse">
<stop offset="0.494" stop-color="#EBEFF2"/>
<stop offset="1" stop-color="white"/>
</linearGradient>
<clipPath id="clip0_258:2">
<rect width="389.627" height="375" fill="white"/>
</clipPath>
</defs>
</svg>
