<svg xmlns="http://www.w3.org/2000/svg" width="80" height="80"><path data-name="Path 335" d="M46.344 39.515a2.344 2.344 0 0 0-3.315 0l-5.374 5.374-1.858-1.861a2.344 2.344 0 1 0-3.315 3.315l3.516 3.516a2.344 2.344 0 0 0 3.315 0l7.031-7.031a2.344 2.344 0 0 0 0-3.313z" fill="#29bfe2"/><path data-name="Path 336" d="M51.622 13.914a2.344 2.344 0 0 0-1.581-2.913 35.257 35.257 0 0 0-20.082 0 2.344 2.344 0 1 0 1.332 4.494 30.576 30.576 0 0 1 17.418 0 2.344 2.344 0 0 0 2.913-1.581z" fill="#2f6bc1"/><path data-name="Path 337" d="M34.847 19.434a2.344 2.344 0 0 0 .931 4.594 21.155 21.155 0 0 1 8.444 0 2.344 2.344 0 0 0 .931-4.594 25.827 25.827 0 0 0-10.306 0z" fill="#2f6bc1"/><path data-name="Path 338" d="M56.407 44.687a16.406 16.406 0 1 0-16.406 16.406 16.425 16.425 0 0 0 16.406-16.406zm-28.125 0a11.719 11.719 0 1 1 11.719 11.719 11.732 11.732 0 0 1-11.719-11.719z" fill="#29bfe2"/><path data-name="Path 339" d="M72.969 32.969h-2.5v-2.344a30.469 30.469 0 1 0-60.937 0v2.344h-2.5A7.039 7.039 0 0 0 0 40v14.063a7.039 7.039 0 0 0 7.031 7.031h9.531a2.344 2.344 0 0 0 2.344-2.344V35.313a2.344 2.344 0 0 0-2.344-2.344h-2.343v-2.344a25.782 25.782 0 1 1 51.563 0v2.344h-2.344a2.344 2.344 0 0 0-2.344 2.344V58.75a2.344 2.344 0 0 0 2.344 2.344h2.344v2.5a7.039 7.039 0 0 1-7.031 7.031H46.628a7.031 7.031 0 1 0 0 4.688H58.75a11.732 11.732 0 0 0 11.719-11.719v-2.5h2.5A7.039 7.039 0 0 0 80 54.063V40a7.039 7.039 0 0 0-7.031-7.031zm-58.75 23.437H7.031a2.346 2.346 0 0 1-2.344-2.344V40a2.346 2.346 0 0 1 2.344-2.344h7.188zM40 75.313a2.344 2.344 0 1 1 2.344-2.344A2.346 2.346 0 0 1 40 75.313zm35.313-21.25a2.346 2.346 0 0 1-2.344 2.344h-7.188V37.656h7.188A2.346 2.346 0 0 1 75.313 40z" fill="#2f6bc1"/></svg>