<svg xmlns="http://www.w3.org/2000/svg" width="100.392" height="80"><path data-name="Path 327" d="M27.708 34.523H6.815A6.823 6.823 0 0 1 0 27.708V6.815A6.823 6.823 0 0 1 6.815 0h20.893a6.823 6.823 0 0 1 6.815 6.815v20.893a6.823 6.823 0 0 1-6.815 6.815zM6.815 6.277a.539.539 0 0 0-.538.538v20.893a.539.539 0 0 0 .538.538h20.893a.539.539 0 0 0 .538-.538V6.815a.539.539 0 0 0-.538-.538z" fill="#29bfe2"/><path data-name="Path 328" d="M27.708 80H6.815A6.823 6.823 0 0 1 0 73.185V52.292a6.823 6.823 0 0 1 6.815-6.815h20.893a6.823 6.823 0 0 1 6.815 6.815v20.892A6.823 6.823 0 0 1 27.708 80zM6.815 51.754a.539.539 0 0 0-.538.538v20.892a.539.539 0 0 0 .538.538h20.893a.539.539 0 0 0 .538-.538V52.292a.539.539 0 0 0-.538-.538z" fill="#2f6bc1"/><path data-name="Path 329" d="M97.254 15.692H47.038a3.139 3.139 0 1 1 0-6.277h50.216a3.139 3.139 0 1 1 0 6.277z" fill="#2f6bc1"/><path data-name="Path 330" d="M80.004 27.453H47.049a3.139 3.139 0 1 1 0-6.277h32.954a3.139 3.139 0 0 1 0 6.277z" fill="#2f6bc1"/><path data-name="Path 331" d="M97.254 60.393H47.038a3.139 3.139 0 1 1 0-6.277h50.216a3.139 3.139 0 1 1 0 6.277z" fill="#2f6bc1"/><path data-name="Path 332" d="M80.004 72.938H47.049a3.139 3.139 0 0 1 0-6.277h32.954a3.139 3.139 0 0 1 0 6.277z" fill="#2f6bc1"/></svg>