<svg xmlns="http://www.w3.org/2000/svg" width="70.313" height="80"><g data-name="Group 230"><g data-name="Group 229"><path data-name="Path 333" d="M48.512 52.857c8.513-13.357 7.443-11.692 7.688-12.04a25.589 25.589 0 0 0 4.737-14.88 25.781 25.781 0 1 0-46.689 15.07l7.552 11.85C13.726 54.1 0 57.8 0 65.938c0 2.968 1.937 7.2 11.166 10.494C17.61 78.732 26.13 80 35.156 80c16.879 0 35.156-4.761 35.156-14.062.001-8.144-13.712-11.838-21.8-13.081zM18.164 38.429q-.039-.06-.081-.118a21.094 21.094 0 1 1 34.317-.237c-.226.3.952-1.532-17.243 27.018zm16.992 36.884c-18.437 0-30.469-5.419-30.469-9.375 0-2.659 6.182-7.03 19.882-8.735l8.61 13.51a2.344 2.344 0 0 0 3.953 0l8.61-13.51c13.7 1.7 19.883 6.076 19.883 8.735 0 3.922-11.925 9.375-30.469 9.375z" fill="#2f6bc1"/></g></g><g data-name="Group 232"><g data-name="Group 231"><path data-name="Path 334" d="M35.157 14.219a11.719 11.719 0 1 0 11.719 11.719 11.732 11.732 0 0 0-11.719-11.719zm0 18.75a7.031 7.031 0 1 1 7.031-7.031 7.039 7.039 0 0 1-7.031 7.031z" fill="#29bfe2"/></g></g></svg>