<svg width="173" height="61" viewBox="0 0 173 61" fill="none" xmlns="http://www.w3.org/2000/svg">
<style>
 #cirle{transform-origin:center;transform-box:fill-box;animation:rotate 5s linear infinite}@keyframes rotate{0%{transform:rotate(0)}100%{transform:rotate(360deg)}}
</style>
<g id="logo 1" clip-path="url(#clip0_252:3)">
<g id="Group 180">
<g id="cirle">
<path id="Path 1" d="M154.753 34.82L152.501 35.063L149.17 31.263H152.501L154.753 34.82Z" fill="#9F7AB6"/>
<path id="Path 2" d="M153.739 24.58L153.733 24.589L153.004 25.649L149.168 31.239L152.958 25.66L153.687 24.587L153.739 24.58Z" stroke="#9F7AB6" stroke-miterlimit="10"/>
<path id="Path 3" d="M163.193 10.75L154.386 23.589L153.758 24.501L153.736 24.536L153.73 24.545L153.001 25.605L152.957 25.611L146.957 26.428L145.127 26.677L149.288 23.008L161.524 12.223L163.193 10.75Z" fill="#A9DFFA"/>
<path id="Path 4" d="M154.372 23.632L153.722 24.578H153.672L149.152 31.234L142.84 30.783L142.603 30.767L142.594 30.667L149.774 23.736L154.372 23.632Z" fill="#949DCF"/>
<path id="Path 5" d="M149.765 23.707L142.585 30.638L141.895 23.719L149.265 13.259V23.719L149.765 23.707Z" fill="#9F7AB6"/>
<path id="Path 6" d="M141.885 7.618L138.197 18.782L141.997 23.776L149.85 13.556L145.333 6.656L141.885 7.618Z" fill="#29BFE2"/>
<path id="Path 7" d="M149.384 13.315L142.964 19.971V8.322L140.824 11.65L143.912 0L151.126 8.4L149.384 13.315Z" fill="#5EDAF7"/>
<path id="Path 8" d="M149.298 13.195V23.655L164.752 9.155H151.913L149.298 6.539V13.195Z" fill="#29BFE2"/>
<path id="Path 9" d="M135.294 15.64L134.619 22.908L120.509 8.798H129.02L135.294 15.64Z" fill="#5EDAF7"/>
<path id="Path 10" d="M142.62 31.21L134.62 22.973L135.295 15.705L135.5 13.487L141.907 23.838L142.62 31.21Z" fill="#A9DFFA"/>
<path id="Path 12" d="M135.499 13.423L135.294 15.641L129.02 8.798H132.635L135.499 13.423Z" fill="#29BFE2"/>
<path id="Path 13" d="M134.619 22.909L130.619 23.578L120.629 8.915L134.619 22.909Z" fill="#949DCF"/>
<path id="Path 14" d="M142.481 30.779L142.381 30.879L142.261 30.989L120.749 51.798L131.849 35.773L131.874 35.738L135.246 30.877L137.886 30.839L142.286 30.782L142.481 30.779Z" fill="#949DCF"/>
<path id="Path 15" d="M142.501 30.697V38.547L135.586 47.231L135.409 37.559L142.501 30.697Z" fill="#6287C4"/>
<path id="Path 16" d="M135.56 46.962L132.279 51.205L132.379 51.319L132.279 51.442L129.541 51.556L135.251 45.143L135.56 46.962Z" fill="#2F6BC1"/>
<path id="Path 17" d="M135.588 47.287L132.379 51.318L132.279 51.204L135.56 46.961L132.872 49.895L129.541 51.554L120.629 51.917L135.411 37.617L135.581 46.936L135.588 47.287Z" fill="#46CAF4"/>
<path id="Path 18" d="M135.25 30.786L131.875 35.647L125.323 35.235L131.686 30.335L135.25 30.786Z" fill="#949DCF"/>
<path id="Path 19" d="M125.323 35.24L123.478 36.66L120.749 36.975L118.828 34.83L125.323 35.24Z" fill="#2F6BC1"/>
<path id="Path 20" d="M131.686 30.33L125.323 35.23L118.823 34.82L112.664 27.926L113.207 27.995L120.721 28.945H120.737L131.686 30.33Z" fill="#46CAF4"/>
<path id="Path 21" d="M136.439 31.005L132.158 30.769L129.347 26.069L132.032 25.75L136.439 31.005Z" fill="#949DCF"/>
<path id="Path 22" d="M132.159 30.768L120.74 28.931L112.784 28.031L113.207 27.981L129.349 26.071L132.159 30.768Z" fill="#A9DFFA"/>
<path id="Path 23" d="M142.506 30.879L135.73 30.999L130.62 23.668L134.62 22.999L142.506 30.879Z" fill="#A9DFFA"/>
<path id="Path 24" d="M162.968 51.085H153.868L149.215 46.577L149.9 38.012L162.968 51.085Z" fill="#6287C4"/>
<path id="Path 25" d="M149.868 37.957L149.013 48.664L142.59 38.964V30.724L142.64 30.73L149.868 37.957Z" fill="#A9DFFA"/>
<path id="Path 26" d="M172.249 32.924L154.883 34.807L152.517 31.255H149.186L150.139 30.782H154.976L172.249 32.924Z" fill="#949DCF"/>
<path id="Path 27" d="M154.875 34.808L154.761 34.821L152.509 31.259L154.875 34.808Z" fill="#949DCF"/>
<path id="Path 28" d="M163.439 26.022L162.493 27.912L152.509 31.24H149.177L152.967 25.66L153.696 24.587H153.746L153.74 24.596L158.64 25.318L163.439 26.022Z" fill="#6287C4"/>
<path id="Path 29" d="M172.257 32.91L152.527 31.244L153.019 30.771L158.657 25.317L163.457 26.027L167.047 26.554L172.257 32.91Z" fill="#46CAF4"/>
<path id="Path 30" d="M163.186 51.086H162.949L142.649 30.786L149.157 31.351H149.873L163.186 51.086Z" fill="#A9DFFA"/>
<path id="Line 1" d="M142.531 30.685L142.503 30.657" stroke="#949DCF" stroke-miterlimit="10"/>
<path id="Path 31" d="M140.721 40.29L140.008 59.577L139.888 60L134.118 53.331L135.588 47.287L132.377 51.32L132.277 51.206L135.558 46.963L135.58 46.935L140.721 40.29Z" fill="#6287C4"/>
<path id="Path 32" d="M144.937 42.521L144.38 44.483L140.822 40.231L142.582 37.953L144.937 42.521Z" fill="#A9DFFA"/>
<path id="Path 33" d="M144.375 44.439L139.884 60.02L140.694 40.082L144.375 44.439Z" fill="#949DCF"/>
<path id="Path 34" d="M135.587 47.287L134.117 53.331L132.376 51.318L135.587 47.287Z" fill="#2F6BC1"/>
<path id="Path 35" d="M140.723 40.388L134.856 45.388L131.856 51.464H132.503L133.828 49.899L140.723 40.388Z" fill="#2F6BC1"/>
<path id="Path 36" d="M153.852 51.085H150.593L149.028 48.719L149.198 46.577L153.852 51.085Z" fill="#2F6BC1"/>
<path id="Path 37" d="M131.875 35.656L131.85 35.691L123.478 36.659L125.323 35.239L131.875 35.656Z" fill="#9F7AB6"/>
<path id="Path 39" d="M140.721 40.388L133.349 51.088L132.554 51.567L127.371 51.667L140.721 40.388Z" fill="#2F6BC1"/>
<path id="Path 40" d="M167.045 26.539L163.455 26.012L158.655 25.302L153.755 24.58L153.761 24.571L164.647 23.625L167.045 26.539Z" fill="#29BFE2"/>
</g>
<g id="Group 179">
<path id="Path 100" d="M0.722046 34.142C1.36877 33.8974 1.96226 33.5303 2.47005 33.061C2.86551 32.6451 3.14183 32.1304 3.27005 31.571C3.44481 30.7456 3.52167 29.9024 3.49905 29.059V15.945H7.53805V29.059C7.63963 30.9722 7.21969 32.877 6.32305 34.57C5.32449 36.0565 3.88756 37.1949 2.21205 37.827L0.722046 34.142ZM19.83 29.67H17.108C17.1312 31.456 16.6657 33.2143 15.762 34.755C14.7615 36.1431 13.3776 37.2091 11.78 37.822L10.29 34.142C10.9368 33.8974 11.5303 33.5303 12.038 33.061C12.4335 32.6451 12.7098 32.1304 12.8381 31.571C13.0128 30.7456 13.0897 29.9024 13.067 29.059V15.945H17.106V25.058H19.828L19.83 29.67ZM15.0171 12.554C14.6731 12.5237 14.3473 12.3858 14.086 12.16C13.7335 11.898 13.4241 11.5825 13.169 11.225C12.9462 10.9556 12.8112 10.6244 12.7821 10.276C12.8051 9.92007 12.9347 9.57929 13.154 9.29802C13.3983 8.94139 13.7029 8.63007 14.054 8.37802C14.3269 8.15489 14.6624 8.0221 15.014 7.99802C15.3657 8.0221 15.7012 8.15489 15.974 8.37802C16.3252 8.63007 16.6298 8.94139 16.874 9.29802C17.0934 9.57929 17.223 9.92007 17.246 10.276C17.2169 10.6244 17.0819 10.9556 16.859 11.225C16.6039 11.5825 16.2946 11.898 15.942 12.16C15.6828 12.3858 15.3593 12.5246 15.0171 12.557V12.554ZM18.6841 25.054H26.82V29.67H18.6841V25.054ZM25.674 25.054H33.8101V29.67H25.674V25.054ZM32.664 25.054H40.8V29.67H32.664V25.054ZM39.654 25.054H44.009V15.941H48.048V29.67H39.6571L39.654 25.054ZM41.746 36.27C41.4021 36.2397 41.0763 36.1018 40.815 35.876C40.4625 35.614 40.1531 35.2986 39.898 34.941C39.6752 34.6716 39.5402 34.3404 39.511 33.992C39.5341 33.6361 39.6637 33.2953 39.883 33.014C40.1273 32.6574 40.4319 32.346 40.7831 32.094C41.0559 31.8709 41.3914 31.7381 41.743 31.714C42.0947 31.7381 42.4302 31.8709 42.703 32.094C43.0542 32.346 43.3588 32.6574 43.6031 33.014C43.8224 33.2953 43.952 33.6361 43.975 33.992C43.9459 34.3404 43.8109 34.6716 43.5881 34.941C43.333 35.2985 43.0236 35.614 42.6711 35.876C42.4114 36.1007 42.0879 36.2384 41.746 36.27V36.27ZM46.903 36.27C46.559 36.2397 46.2333 36.1018 45.972 35.876C45.6206 35.6151 45.3119 35.301 45.057 34.945C44.8342 34.6756 44.6992 34.3444 44.6701 33.996C44.6931 33.6401 44.8227 33.2993 45.042 33.018C45.2863 32.6614 45.5909 32.35 45.942 32.098C46.2149 31.8749 46.5504 31.7421 46.902 31.718C47.2537 31.7421 47.5892 31.8749 47.862 32.098C48.2132 32.35 48.5178 32.6614 48.762 33.018C48.9814 33.2993 49.111 33.6401 49.134 33.996C49.1049 34.3444 48.9699 34.6756 48.747 34.945C48.492 35.3026 48.1826 35.618 47.83 35.88C47.5693 36.1036 47.2452 36.24 46.903 36.27V36.27ZM60.367 29.67H57.6451C57.6682 31.456 57.2027 33.2143 56.299 34.755C55.2985 36.1431 53.9146 37.2091 52.317 37.822L50.827 34.142C51.4738 33.8974 52.0673 33.5303 52.5751 33.061C52.9705 32.6451 53.2468 32.1304 53.375 31.571C53.5498 30.7456 53.6267 29.9024 53.604 29.059V15.945H57.6431V25.058H60.365L60.367 29.67ZM59.221 25.055H67.357V29.67H59.221V25.055ZM66.211 25.055H74.347V29.67H66.211V25.055ZM73.201 25.055H81.3371V29.67H73.201V25.055ZM84.401 25.055C84.2243 24.4567 84.0906 23.8464 84.0011 23.229C83.9175 22.5557 83.8791 21.8775 83.886 21.199C83.8131 20.3993 83.9251 19.5934 84.2133 18.8438C84.5015 18.0943 84.9582 17.421 85.548 16.876C86.656 15.98 88.4704 15.532 90.9911 15.532C92.1751 15.5208 93.3582 15.6037 94.5291 15.78C95.6014 15.9595 96.6526 16.2483 97.666 16.642V29.67H80.192V25.058L84.401 25.055ZM92.451 25.055C92.7793 25.0903 93.1084 24.9959 93.368 24.792C93.569 24.5241 93.6612 24.1901 93.626 23.857V20.177H89.357C89.1922 20.1574 89.0251 20.1705 88.8653 20.2156C88.7055 20.2607 88.5563 20.337 88.426 20.44C88.2325 20.722 88.146 21.0639 88.1821 21.404V25.055H92.451ZM90.9901 12.555C90.6461 12.5247 90.3203 12.3868 90.0591 12.161C89.7065 11.899 89.3971 11.5835 89.142 11.226C88.9192 10.9566 88.7842 10.6254 88.7551 10.277C88.7781 9.92107 88.9077 9.58029 89.127 9.29902C89.3713 8.94238 89.6759 8.63105 90.027 8.37902C90.2999 8.15589 90.6354 8.0231 90.987 7.99902C91.3387 8.0231 91.6742 8.15589 91.9471 8.37902C92.2982 8.63105 92.6028 8.94238 92.847 9.29902C93.0664 9.58029 93.196 9.92107 93.219 10.277C93.1899 10.6254 93.0549 10.9566 92.832 11.226C92.5769 11.5835 92.2675 11.899 91.915 12.161C91.6562 12.386 91.3335 12.5245 90.9921 12.557L90.9901 12.555Z" fill="white"/>
<path id="Path 99" d="M1.03296 50.895C0.81717 50.9069 0.602915 50.8524 0.418961 50.739C0.25679 50.615 0.143209 50.4381 0.0979621 50.239C0.0227676 49.9244 -0.0108584 49.6013 -0.002044 49.278C-0.000840279 49.0295 0.0188868 48.7815 0.0569617 48.536C0.0856651 48.3186 0.136942 48.1048 0.209962 47.898L0.686951 47.986C0.569241 48.3822 0.506006 48.7927 0.498963 49.206C0.486513 49.5829 0.531353 49.9595 0.631959 50.323H4.94296V47.146H5.44296V50.894L1.03296 50.895ZM2.29996 46.979C2.25237 46.9744 2.20626 46.96 2.16458 46.9366C2.12291 46.9131 2.08659 46.8813 2.05795 46.843C1.98056 46.7787 1.93023 46.6877 1.91696 46.588C1.92869 46.4909 1.97784 46.4023 2.05396 46.341C2.11688 46.266 2.2038 46.2152 2.29996 46.197C2.39612 46.2152 2.48304 46.266 2.54596 46.341C2.62216 46.4023 2.67133 46.4909 2.68295 46.588C2.66969 46.6877 2.61935 46.7787 2.54196 46.843C2.51333 46.8813 2.47701 46.9131 2.43533 46.9366C2.39366 46.96 2.34755 46.9744 2.29996 46.979V46.979ZM3.34796 46.979C3.3002 46.9746 3.25389 46.9602 3.21204 46.9368C3.17018 46.9133 3.13369 46.8814 3.10495 46.843C3.02756 46.7787 2.97723 46.6877 2.96396 46.588C2.97569 46.4909 3.02484 46.4023 3.10095 46.341C3.16388 46.266 3.25079 46.2152 3.34696 46.197C3.44312 46.2152 3.53003 46.266 3.59296 46.341C3.66915 46.4023 3.71832 46.4909 3.72995 46.588C3.71668 46.6877 3.66635 46.7787 3.58896 46.843C3.56044 46.8812 3.52428 46.913 3.48279 46.9364C3.4413 46.9598 3.39538 46.9743 3.34796 46.979V46.979ZM7.10295 45.87H7.60295V50.32H8.58896V50.894H7.10295V45.87ZM13.628 50.32V50.894H8.27696V50.32H9.55196C9.50124 49.8431 9.48019 49.3635 9.48895 48.884C9.47423 48.5028 9.51499 48.1215 9.60996 47.752C9.64263 47.6371 9.69975 47.5306 9.77742 47.4398C9.85509 47.349 9.95147 47.2761 10.06 47.226C10.3775 47.1081 10.7157 47.0564 11.054 47.074C11.3092 47.0729 11.5642 47.0903 11.817 47.126C12.0953 47.1693 12.3707 47.229 12.642 47.305V50.32H13.628ZM12.14 47.665H10.388C10.3347 47.6587 10.2808 47.6644 10.2301 47.6817C10.1794 47.699 10.1332 47.7275 10.095 47.765C10.0336 47.8799 10.0078 48.0104 10.021 48.14V50.325H11.766C11.8196 50.3318 11.8741 50.3272 11.9259 50.3113C11.9776 50.2954 12.0254 50.2687 12.066 50.233C12.1276 50.1372 12.1551 50.0234 12.144 49.91L12.14 47.665ZM11.053 46.182C11.0052 46.1776 10.9589 46.1632 10.917 46.1398C10.8752 46.1163 10.8387 46.0844 10.81 46.046C10.7326 45.9817 10.6822 45.8907 10.669 45.791C10.6806 45.6939 10.7298 45.6053 10.806 45.544C10.8689 45.469 10.9558 45.4182 11.052 45.4C11.1481 45.4182 11.235 45.469 11.298 45.544C11.3742 45.6053 11.4233 45.6939 11.435 45.791C11.4217 45.8907 11.3714 45.9817 11.294 46.046C11.2655 46.0839 11.2294 46.1154 11.1881 46.1386C11.1468 46.1619 11.1011 46.1763 11.054 46.181L11.053 46.182ZM16.068 50.321V50.895H13.314V50.321H14.581V47.146H15.081V50.32L16.068 50.321ZM14.261 52.315C14.2132 52.3106 14.1669 52.2962 14.125 52.2728C14.0832 52.2493 14.0467 52.2174 14.018 52.179C13.9406 52.1147 13.8902 52.0237 13.877 51.924C13.8887 51.8269 13.9378 51.7383 14.014 51.677C14.0766 51.5998 14.1644 51.547 14.262 51.528C14.3581 51.5462 14.445 51.597 14.508 51.672C14.5841 51.7333 14.6332 51.8219 14.645 51.919C14.6317 52.0187 14.5813 52.1097 14.504 52.174C14.4757 52.213 14.4396 52.2456 14.3979 52.2698C14.3562 52.2939 14.3099 52.309 14.262 52.314L14.261 52.315ZM15.309 52.315C15.2612 52.3106 15.2149 52.2962 15.173 52.2728C15.1312 52.2493 15.0947 52.2174 15.066 52.179C14.9886 52.1147 14.9382 52.0237 14.925 51.924C14.9367 51.8269 14.9858 51.7383 15.062 51.677C15.1246 51.5998 15.2124 51.547 15.31 51.528C15.4061 51.5462 15.493 51.597 15.556 51.672C15.6321 51.7333 15.6812 51.8219 15.693 51.919C15.6797 52.0187 15.6293 52.1097 15.552 52.174C15.5237 52.213 15.4876 52.2456 15.4459 52.2698C15.4042 52.2939 15.3579 52.309 15.31 52.314L15.309 52.315ZM21.509 50.321V50.895H15.743V50.321H20.022V48.343H17.284C16.8173 48.343 16.584 48.141 16.584 47.737C16.5937 47.468 16.6478 47.2024 16.744 46.951C16.8549 46.6363 16.9963 46.3333 17.166 46.046C17.321 45.7742 17.5088 45.5223 17.725 45.296L18.163 45.527C17.8647 45.8594 17.611 46.2292 17.408 46.627C17.2212 46.9863 17.0907 47.3721 17.021 47.771H19.798C20 47.7483 20.203 47.8041 20.365 47.927C20.486 48.094 20.5405 48.3 20.518 48.505V50.323L21.509 50.321ZM26.563 50.321V50.895H21.196V50.321H22.3699C22.2533 49.9321 22.2006 49.5268 22.214 49.121C22.2228 48.5255 22.3478 47.9375 22.582 47.39C22.808 47.2747 23.0511 47.1967 23.302 47.159C23.591 47.1065 23.8842 47.0797 24.178 47.079C24.4612 47.07 24.7443 47.101 25.019 47.171C25.1944 47.2144 25.3477 47.3213 25.449 47.471C25.5441 47.6468 25.5887 47.8454 25.578 48.045V50.326L26.563 50.321ZM25.077 47.745C24.772 47.6732 24.4592 47.6396 24.146 47.645C23.7416 47.6445 23.3387 47.6928 22.946 47.789C22.8027 48.2163 22.7235 48.6625 22.711 49.113C22.6971 49.5194 22.7526 49.9252 22.875 50.313H25.075L25.077 47.745ZM26.251 50.895V50.321H27.518V45.871H28.018V50.895H26.251ZM29.678 45.871H30.178V50.895H29.678V45.871ZM38.002 50.321V50.895H35.272C34.935 50.9128 34.5977 50.8666 34.278 50.759C34.1724 50.7111 34.0793 50.6395 34.0061 50.5496C33.9329 50.4597 33.8815 50.3541 33.856 50.241C33.7681 49.8406 33.7311 49.4307 33.746 49.021C33.7311 48.6113 33.7681 48.2014 33.856 47.801C33.8815 47.6879 33.9329 47.5823 34.0061 47.4924C34.0793 47.4025 34.1724 47.3308 34.278 47.283C34.5977 47.1754 34.935 47.1292 35.272 47.147H37.142V50.321H38.002ZM36.641 47.721H34.873C34.7121 47.7067 34.5511 47.7461 34.415 47.833C34.3653 47.8811 34.3272 47.9398 34.3035 48.0048C34.2797 48.0697 34.271 48.1392 34.278 48.208V49.835C34.271 49.9038 34.2797 49.9733 34.3035 50.0382C34.3272 50.1031 34.3653 50.1619 34.415 50.21C34.5511 50.2969 34.7121 50.3363 34.873 50.322H36.641V47.721ZM34.889 46.182C34.8412 46.1776 34.7949 46.1632 34.753 46.1398C34.7112 46.1163 34.6747 46.0844 34.646 46.046C34.5686 45.9817 34.5182 45.8907 34.505 45.791C34.5166 45.6939 34.5658 45.6053 34.642 45.544C34.7049 45.469 34.7918 45.4182 34.888 45.4C34.9841 45.4182 35.071 45.469 35.134 45.544C35.2102 45.6053 35.2593 45.6939 35.271 45.791C35.2577 45.8907 35.2073 45.9817 35.13 46.046C35.1017 46.0836 35.0659 46.115 35.025 46.1383C34.984 46.1615 34.9388 46.176 34.892 46.181L34.889 46.182ZM35.937 46.182C35.8894 46.1774 35.8433 46.163 35.8016 46.1396C35.7599 46.1161 35.7236 46.0843 35.695 46.046C35.6176 45.9817 35.5672 45.8907 35.554 45.791C35.5657 45.6939 35.6149 45.6053 35.691 45.544C35.7539 45.469 35.8408 45.4182 35.937 45.4C36.0331 45.4182 36.12 45.469 36.183 45.544C36.2591 45.6053 36.3082 45.6939 36.32 45.791C36.3067 45.8907 36.2563 45.9817 36.179 46.046C36.1506 46.0837 36.1147 46.1152 36.0735 46.1384C36.0324 46.1617 35.9869 46.1762 35.94 46.181L35.937 46.182ZM37.6889 50.321H38.956V47.146H39.456V50.894H37.688L37.6889 50.321ZM39.207 46.182C39.1592 46.1776 39.1129 46.1632 39.071 46.1398C39.0292 46.1163 38.9927 46.0844 38.964 46.046C38.8866 45.9817 38.8362 45.8907 38.823 45.791C38.8347 45.6939 38.8838 45.6053 38.96 45.544C39.0229 45.469 39.1098 45.4182 39.206 45.4C39.3021 45.4182 39.389 45.469 39.452 45.544C39.5281 45.6053 39.5773 45.6939 39.589 45.791C39.5757 45.8907 39.5253 45.9817 39.448 46.046C39.4198 46.0835 39.3842 46.1148 39.3435 46.1381C39.3027 46.1613 39.2576 46.1759 39.211 46.181L39.207 46.182ZM41.116 45.871H41.616V50.321H42.602V50.895H41.116V45.871ZM45.043 50.321V50.895H42.289V50.321H43.556V47.146H44.056V50.32L45.043 50.321ZM43.24 52.314C43.1922 52.3096 43.1459 52.2952 43.104 52.2718C43.0622 52.2483 43.0257 52.2164 42.997 52.178C42.9196 52.1137 42.8692 52.0227 42.856 51.923C42.8677 51.8259 42.9168 51.7373 42.993 51.676C43.0555 51.5994 43.1429 51.547 43.24 51.528C43.3361 51.5462 43.423 51.597 43.486 51.672C43.5621 51.7333 43.6112 51.8219 43.623 51.919C43.6097 52.0187 43.5594 52.1097 43.482 52.174C43.4537 52.213 43.4176 52.2456 43.3759 52.2698C43.3342 52.2939 43.2879 52.309 43.24 52.314V52.314ZM44.288 52.314C44.2402 52.3096 44.1939 52.2952 44.152 52.2718C44.1102 52.2483 44.0737 52.2164 44.045 52.178C43.9676 52.1137 43.9172 52.0227 43.904 51.923C43.9156 51.8259 43.9648 51.7373 44.041 51.676C44.1035 51.5994 44.1909 51.547 44.288 51.528C44.3841 51.5462 44.471 51.597 44.534 51.672C44.6101 51.7333 44.6593 51.8219 44.671 51.919C44.6577 52.0187 44.6073 52.1097 44.53 52.174C44.5017 52.213 44.4656 52.2456 44.4239 52.2698C44.3822 52.2939 44.3359 52.309 44.288 52.314V52.314ZM49.24 47.066C49.4631 47.0584 49.6861 47.0854 49.901 47.146C50.0437 47.1868 50.1663 47.2791 50.2449 47.405C50.324 47.5614 50.3606 47.7359 50.351 47.911V50.894H44.734V50.32H46.001V47.146H46.501V48.709C46.6679 48.197 47.0155 47.7633 47.479 47.489C48.0165 47.1903 48.6255 47.0444 49.24 47.067V47.066ZM49.85 50.32V47.728C49.5712 47.6583 49.284 47.6287 48.997 47.64C48.6626 47.6144 48.3266 47.6598 48.0111 47.7732C47.6955 47.8866 47.4075 48.0654 47.166 48.298C46.7118 48.8715 46.4786 49.589 46.509 50.32H49.85ZM53.417 47.074C53.6982 47.0713 53.9792 47.0887 54.2579 47.126C54.5116 47.1643 54.7615 47.2242 55.005 47.305V50.32C54.9937 50.6381 54.9164 50.9504 54.778 51.237C54.6185 51.5909 54.4149 51.9232 54.172 52.226C53.9422 52.5231 53.6692 52.784 53.362 53L53.062 52.593C53.3541 52.3641 53.6156 52.0986 53.84 51.803C54.0591 51.5258 54.2394 51.2199 54.376 50.894H52.866C52.6409 50.9102 52.4165 50.8557 52.224 50.738C52.0621 50.5968 51.9578 50.4011 51.931 50.188C51.8662 49.7941 51.8388 49.395 51.849 48.996C51.8333 48.5844 51.874 48.1726 51.97 47.772C52 47.654 52.0555 47.544 52.1326 47.4497C52.2096 47.3554 52.3063 47.279 52.416 47.226C52.7359 47.1069 53.0771 47.0552 53.418 47.074H53.417ZM54.129 50.32C54.1826 50.3268 54.2371 50.3222 54.2889 50.3063C54.3406 50.2904 54.3883 50.2637 54.429 50.228C54.4906 50.1322 54.5181 50.0184 54.507 49.905V47.649H52.723C52.6739 47.6422 52.6239 47.647 52.5771 47.663C52.5302 47.679 52.4877 47.7057 52.453 47.741C52.3975 47.8563 52.3746 47.9846 52.387 48.112V50.321L54.129 50.32ZM64.878 50.32V50.894H59.478C59.2622 50.9059 59.0479 50.8514 58.864 50.738C58.7018 50.614 58.5882 50.4371 58.543 50.238C58.4678 49.9234 58.4341 49.6003 58.443 49.277C58.4442 49.0285 58.4639 48.7805 58.502 48.535C58.5307 48.3176 58.582 48.1038 58.655 47.897L59.132 47.985C59.0143 48.3813 58.951 48.7917 58.944 49.205C58.9315 49.5819 58.9764 49.9585 59.077 50.322H63.388V47.146H63.888V50.32H64.878ZM61.271 52.41C61.2232 52.4056 61.1769 52.3912 61.135 52.3678C61.0932 52.3443 61.0567 52.3124 61.028 52.274C60.9506 52.2097 60.9002 52.1187 60.887 52.019C60.8987 51.9219 60.9478 51.8333 61.024 51.772C61.0869 51.697 61.1738 51.6462 61.27 51.628C61.3661 51.6462 61.453 51.697 61.516 51.772C61.5921 51.8333 61.6412 51.9219 61.653 52.019C61.6397 52.1187 61.5894 52.2097 61.512 52.274C61.4837 52.3119 61.4478 52.3436 61.4067 52.367C61.3655 52.3904 61.32 52.405 61.2729 52.41H61.271ZM67.318 50.32V50.894H64.5639V50.32H65.831V47.146H66.331V50.32H67.318ZM65.511 52.314C65.4632 52.3096 65.4169 52.2952 65.375 52.2718C65.3332 52.2483 65.2967 52.2164 65.268 52.178C65.1906 52.1137 65.1402 52.0227 65.127 51.923C65.1387 51.8259 65.1878 51.7373 65.264 51.676C65.327 51.599 65.4152 51.5466 65.513 51.528C65.6091 51.5462 65.696 51.597 65.759 51.672C65.8351 51.7333 65.8842 51.8219 65.896 51.919C65.8827 52.0187 65.8323 52.1097 65.755 52.174C65.7267 52.213 65.6906 52.2456 65.6489 52.2698C65.6072 52.2939 65.5609 52.309 65.513 52.314H65.511ZM66.559 52.314C66.5112 52.3096 66.4649 52.2952 66.423 52.2718C66.3812 52.2483 66.3447 52.2164 66.316 52.178C66.2386 52.1137 66.1882 52.0227 66.175 51.923C66.1867 51.8259 66.2358 51.7373 66.312 51.676C66.375 51.599 66.4632 51.5466 66.561 51.528C66.6571 51.5462 66.744 51.597 66.807 51.672C66.8832 51.7333 66.9323 51.8219 66.944 51.919C66.9307 52.0187 66.8804 52.1097 66.803 52.174C66.7747 52.213 66.7386 52.2456 66.6969 52.2698C66.6552 52.2939 66.6089 52.309 66.561 52.314H66.559ZM66.997 50.32H71.276V48.343H68.54C68.0733 48.343 67.84 48.141 67.84 47.737C67.8497 47.468 67.9038 47.2024 68 46.951C68.1109 46.6364 68.2523 46.3333 68.422 46.046C68.577 45.7741 68.7648 45.5223 68.981 45.296L69.419 45.527C69.1207 45.8594 68.8669 46.2292 68.664 46.627C68.4773 46.9863 68.3467 47.3721 68.277 47.771H71.054C71.256 47.7483 71.459 47.8041 71.621 47.927C71.742 48.094 71.7965 48.3 71.774 48.505V50.898H66.994L66.997 50.32ZM75.141 50.894H74.163V50.942C74.1797 51.3612 74.091 51.7779 73.905 52.154C73.7105 52.4886 73.4185 52.7559 73.068 52.92L72.841 52.481C73.1098 52.3632 73.3335 52.1619 73.479 51.907C73.6157 51.6044 73.6788 51.2737 73.663 50.942V47.142H74.163V50.316H75.141V50.894ZM74.828 50.32H76.095V47.146H76.595V50.894H74.827L74.828 50.32ZM75.822 46.181C75.7742 46.1766 75.7279 46.1622 75.686 46.1388C75.6442 46.1153 75.6077 46.0834 75.579 46.045C75.5016 45.9807 75.4512 45.8897 75.438 45.79C75.4497 45.6929 75.4988 45.6043 75.575 45.543C75.6379 45.468 75.7248 45.4172 75.821 45.399C75.9171 45.4172 76.004 45.468 76.067 45.543C76.1432 45.6043 76.1923 45.6929 76.204 45.79C76.1907 45.8897 76.1403 45.9807 76.063 46.045C76.0347 46.0829 75.9988 46.1146 75.9577 46.138C75.9165 46.1614 75.871 46.176 75.824 46.181H75.822ZM76.87 46.181C76.8222 46.1766 76.7759 46.1622 76.734 46.1388C76.6922 46.1153 76.6557 46.0834 76.627 46.045C76.5496 45.9807 76.4992 45.8897 76.486 45.79C76.4976 45.6929 76.5468 45.6043 76.623 45.543C76.6859 45.468 76.7728 45.4172 76.869 45.399C76.9651 45.4172 77.052 45.468 77.115 45.543C77.1911 45.6043 77.2402 45.6929 77.252 45.79C77.2387 45.8897 77.1883 45.9807 77.111 46.045C77.0828 46.0828 77.0471 46.1144 77.0061 46.1378C76.9652 46.1612 76.9198 46.1759 76.873 46.181H76.87ZM79.71 47.074C79.9912 47.0713 80.2722 47.0887 80.551 47.126C80.8046 47.1643 81.0545 47.2242 81.298 47.305V50.32C81.2867 50.6381 81.2094 50.9504 81.071 51.237C80.9115 51.5909 80.7079 51.9232 80.465 52.226C80.2352 52.5231 79.9622 52.784 79.655 53L79.355 52.593C79.6471 52.3641 79.9086 52.0986 80.133 51.803C80.3521 51.5258 80.5324 51.2199 80.669 50.894H79.159C78.9339 50.9102 78.7095 50.8557 78.517 50.738C78.3551 50.5968 78.2508 50.4011 78.224 50.188C78.1592 49.7941 78.1318 49.395 78.142 48.996C78.1263 48.5844 78.167 48.1726 78.263 47.772C78.293 47.654 78.3485 47.544 78.4256 47.4497C78.5026 47.3554 78.5993 47.279 78.709 47.226C79.0292 47.1068 79.3707 47.055 79.712 47.074H79.71ZM80.422 50.32C80.4756 50.3268 80.5301 50.3222 80.5819 50.3063C80.6336 50.2904 80.6813 50.2637 80.722 50.228C80.7836 50.1322 80.8111 50.0184 80.8 49.905V47.649H79.016C78.9669 47.6422 78.9169 47.647 78.8701 47.663C78.8232 47.679 78.7807 47.7057 78.746 47.741C78.6905 47.8563 78.6676 47.9846 78.68 48.112V50.321L80.422 50.32ZM88.378 47.393L86.61 47.872V47.553L86.97 47.453C86.8852 47.2543 86.8475 47.0387 86.86 46.823C86.8404 46.6601 86.8611 46.495 86.9204 46.342C86.9797 46.1891 87.0757 46.0531 87.2 45.946C87.5014 45.7679 87.8514 45.6898 88.2 45.723V46.123C88.0396 46.1235 87.8797 46.1409 87.723 46.175C87.5848 46.2006 87.4524 46.2508 87.332 46.323L87.316 47.097C87.3114 47.1506 87.3251 47.2042 87.355 47.249C87.3721 47.2665 87.393 47.2799 87.416 47.2882C87.439 47.2965 87.4636 47.2995 87.488 47.297C87.5594 47.2956 87.6303 47.2849 87.699 47.265L88.38 47.074L88.378 47.393ZM91.171 50.32V50.894H85.771C85.5552 50.9059 85.3409 50.8514 85.157 50.738C84.9948 50.614 84.8812 50.4371 84.836 50.238C84.7608 49.9234 84.7271 49.6003 84.736 49.277C84.7372 49.0285 84.7569 48.7805 84.795 48.535C84.8237 48.3176 84.875 48.1038 84.948 47.897L85.425 47.985C85.3073 48.3813 85.244 48.7917 85.237 49.205C85.2245 49.5819 85.2694 49.9585 85.37 50.322H89.681V45.872H90.181V50.322L91.171 50.32ZM96.209 50.32V50.894H90.858V50.32H92.133C92.0822 49.8431 92.0612 49.3635 92.07 48.884C92.0552 48.5028 92.096 48.1215 92.191 47.752C92.2236 47.6371 92.2808 47.5306 92.3584 47.4398C92.4361 47.349 92.5325 47.2761 92.641 47.226C92.9585 47.1081 93.2967 47.0564 93.635 47.074C93.8902 47.0729 94.1452 47.0903 94.398 47.126C94.6763 47.1693 94.9517 47.229 95.223 47.305V50.32H96.209ZM94.723 47.664H92.971C92.9177 47.6577 92.8638 47.6634 92.8131 47.6807C92.7624 47.698 92.7162 47.7265 92.678 47.764C92.6166 47.8789 92.5909 48.0094 92.604 48.139V50.324H94.349C94.4026 50.3308 94.4571 50.3262 94.5089 50.3103C94.5606 50.2944 94.6084 50.2677 94.649 50.232C94.7106 50.1362 94.7381 50.0224 94.727 49.909L94.723 47.664ZM93.636 46.181C93.5882 46.1766 93.5419 46.1622 93.5 46.1388C93.4582 46.1153 93.4217 46.0834 93.393 46.045C93.3156 45.9807 93.2652 45.8897 93.252 45.79C93.2637 45.6929 93.3128 45.6043 93.389 45.543C93.4519 45.468 93.5388 45.4172 93.635 45.399C93.7311 45.4172 93.818 45.468 93.881 45.543C93.9571 45.6043 94.0062 45.6929 94.018 45.79C94.0047 45.8897 93.9543 45.9807 93.877 46.045C93.8489 46.0827 93.8134 46.1142 93.7726 46.1376C93.7318 46.161 93.6867 46.1758 93.64 46.181H93.636ZM95.897 50.894V50.32H97.164V45.87H97.664V50.894H95.897Z" fill="white"/>
</g>
</g>
</g>
<defs>
<clipPath id="clip0_252:3">
<rect width="172.258" height="60.022" fill="white"/>
</clipPath>
</defs>
</svg>
