<svg width="414" height="375" viewBox="0 0 414 375" fill="none" xmlns="http://www.w3.org/2000/svg">
<style>
 #rotate_1,#rotate_2,#rotate_3,#translate_1,#translate_2{transform-origin:center;transform-box:fill-box}#rotate_1,#rotate_2{animation:rotate 5s linear infinite}#rotate_3{animation:rotateReverse 5s linear infinite}#translate_1{animation:translateX 3s linear infinite}#translate_2{animation:translateY 3s linear infinite}@keyframes rotate{0%{transform:rotate(0)}100%{transform:rotate(360deg)}}@keyframes rotateReverse{0%{transform:rotate(0)}100%{transform:rotate(-360deg)}}@keyframes translateX{0%,100%{transform:translateX(2px)}50%{transform:translateX(-2px)}}@keyframes translateY{0%,100%{transform:translateY(2px)}50%{transform:translateY(-2px)}}
</style>
<g id="Group 202 2" clip-path="url(#clip0_257:334)">
<g id="Group 202">
<g id="Group 185">
<path id="Path 101" d="M47.718 -2.28882e-05L32.649 11.047C31.5181 11.8761 30.5985 12.9601 29.9648 14.211C29.3312 15.462 29.0013 16.8447 29.002 18.247V90.224L57.067 63.556L47.718 -2.28882e-05Z" fill="url(#paint0_linear_257:334)"/>
<g id="Group 184">
<path id="Path 102" d="M367.515 92.312L39.404 76.969V11.387L367.52 31.687L367.515 92.312Z" fill="#2F6BC1"/>
<path id="Path 103" d="M357.97 71.15L50.525 55.188C50.3266 55.168 50.1263 55.1891 49.9364 55.2497C49.7465 55.3104 49.5711 55.4094 49.4211 55.5406C49.2711 55.6719 49.1496 55.8326 49.0643 56.0128C48.979 56.193 48.9316 56.3887 48.925 56.588V56.588C48.9448 57.0031 49.1206 57.3953 49.4173 57.6863C49.714 57.9772 50.1096 58.1453 50.525 58.157L357.97 73.907C358.148 73.9181 358.327 73.8924 358.495 73.8314C358.663 73.7704 358.816 73.6756 358.946 73.5527C359.075 73.4298 359.178 73.2815 359.248 73.117C359.318 72.9526 359.353 72.7756 359.351 72.597V72.597C359.346 72.2262 359.2 71.871 358.944 71.6026C358.688 71.3343 358.34 71.1727 357.97 71.15V71.15Z" fill="url(#paint1_linear_257:334)"/>
<g id="Path 104" style="mix-blend-mode:soft-light" opacity="0.6">
<path d="M159.701 66.6581C159.701 73.5941 165.606 79.498 172.869 79.843L246.293 83.3301C247.901 83.4498 249.517 83.2374 251.04 82.7063C252.563 82.1751 253.96 81.3365 255.145 80.2425C256.33 79.1485 257.277 77.8226 257.928 76.347C258.579 74.8714 258.919 73.2777 258.928 71.665L159.701 66.6581Z" fill="white"/>
</g>
<path id="Path 105" d="M365.724 26.73L360.401 20.205L47.701 0.00498199L41.501 6.28501C40.152 7.64227 39.3968 9.47936 39.401 11.393L367.517 31.693C367.508 29.8817 366.875 28.129 365.724 26.73Z" fill="#2F6BC1"/>
<g id="Group 183">
<path id="Path 106" d="M110.706 11.196L51.306 7.463C51.1278 7.4429 50.9474 7.45987 50.7761 7.51287C50.6047 7.56586 50.4463 7.65377 50.3105 7.77098C50.1748 7.8882 50.0649 8.03218 49.9875 8.19396C49.9101 8.35574 49.8671 8.53182 49.861 8.71105C49.8797 9.08673 50.0385 9.44173 50.3059 9.70623C50.5734 9.97072 50.9302 10.1255 51.306 10.14L110.706 13.84C110.88 13.8585 111.057 13.8406 111.224 13.7874C111.391 13.7342 111.545 13.647 111.676 13.5312C111.808 13.4154 111.914 13.2736 111.988 13.1147C112.062 12.9558 112.102 12.7833 112.106 12.608C112.091 12.2403 111.939 11.8915 111.68 11.6302C111.421 11.3689 111.074 11.214 110.706 11.196V11.196Z" fill="url(#paint2_linear_257:334)"/>
<path id="Path 107" d="M110.706 6.99501L51.306 3.20399C51.1277 3.18281 50.947 3.19902 50.7753 3.25154C50.6036 3.30407 50.4447 3.39174 50.3087 3.50905C50.1728 3.62636 50.0628 3.77071 49.9857 3.93288C49.9086 4.09505 49.8662 4.27152 49.861 4.451C49.8799 4.82671 50.0387 5.18176 50.3061 5.44637C50.5735 5.71097 50.9301 5.866 51.306 5.881L110.706 9.63502C110.88 9.65377 111.057 9.63606 111.224 9.58308C111.391 9.5301 111.545 9.44297 111.677 9.32722C111.808 9.21148 111.914 9.06965 111.988 8.91072C112.062 8.75179 112.102 8.57925 112.106 8.40401C112.09 8.03698 111.938 7.68914 111.679 7.42854C111.42 7.16794 111.073 7.01334 110.706 6.99501V6.99501Z" fill="url(#paint3_linear_257:334)"/>
<path id="Path 108" d="M175.143 15.255L117.533 11.635C117.359 11.6161 117.183 11.6336 117.015 11.6865C116.848 11.7394 116.694 11.8264 116.562 11.942C116.431 12.0577 116.325 12.1995 116.251 12.3584C116.177 12.5173 116.137 12.6898 116.133 12.865C116.148 13.232 116.301 13.5798 116.56 13.8401C116.819 14.1003 117.166 14.254 117.533 14.271L175.143 17.856C175.314 17.8733 175.486 17.855 175.65 17.802C175.813 17.7491 175.963 17.6627 176.092 17.5484C176.22 17.4341 176.323 17.2944 176.394 17.1382C176.465 16.982 176.503 16.8127 176.505 16.641C176.492 16.2816 176.345 15.9399 176.093 15.6834C175.841 15.4268 175.502 15.274 175.143 15.255V15.255Z" fill="url(#paint4_linear_257:334)"/>
<path id="Path 109" d="M175.143 11.117L117.533 7.44004C117.359 7.42085 117.182 7.43814 117.015 7.49083C116.848 7.54351 116.694 7.6304 116.562 7.74601C116.431 7.86163 116.324 8.00342 116.25 8.16233C116.177 8.32125 116.137 8.49383 116.133 8.66905C116.149 9.03602 116.301 9.3839 116.56 9.64427C116.819 9.90464 117.166 10.0586 117.533 10.076L175.143 13.717C175.314 13.7345 175.486 13.7163 175.65 13.6634C175.813 13.6106 175.963 13.5243 176.092 13.4101C176.22 13.2959 176.323 13.1563 176.394 13.0001C176.465 12.8439 176.503 12.6747 176.505 12.503C176.492 12.1437 176.345 11.8024 176.093 11.5459C175.841 11.2895 175.502 11.1365 175.143 11.117V11.117Z" fill="url(#paint5_linear_257:334)"/>
<path id="Path 110" d="M237.666 19.192L181.766 15.68C181.595 15.6626 181.423 15.681 181.26 15.7338C181.097 15.7867 180.947 15.8729 180.819 15.987C180.691 16.1011 180.589 16.2406 180.518 16.3966C180.447 16.5526 180.409 16.7217 180.407 16.893C180.42 17.2517 180.566 17.5927 180.818 17.8488C181.069 18.1048 181.407 18.2572 181.766 18.276L237.666 21.754C237.833 21.7697 238.002 21.7504 238.161 21.6973C238.321 21.6442 238.467 21.5584 238.592 21.4455C238.716 21.3326 238.815 21.195 238.884 21.0415C238.952 20.888 238.987 20.722 238.988 20.554C238.978 20.2029 238.836 19.8684 238.592 19.6163C238.347 19.3642 238.017 19.2129 237.666 19.192V19.192Z" fill="url(#paint6_linear_257:334)"/>
<path id="Path 111" d="M237.666 15.116L181.766 11.549C181.596 11.5315 181.423 11.5496 181.26 11.6024C181.097 11.6551 180.947 11.7413 180.819 11.8553C180.691 11.9694 180.589 12.1088 180.518 12.2647C180.447 12.4207 180.409 12.5897 180.407 12.761C180.42 13.1199 180.566 13.4612 180.817 13.7175C181.069 13.9738 181.407 14.1267 181.766 14.146L237.666 17.679C237.833 17.695 238.002 17.6759 238.162 17.6229C238.321 17.5699 238.468 17.4842 238.592 17.3712C238.717 17.2582 238.816 17.1205 238.884 16.9669C238.953 16.8133 238.988 16.6471 238.988 16.479C238.978 16.1277 238.836 15.7931 238.592 15.5409C238.347 15.2886 238.017 15.1371 237.666 15.116V15.116Z" fill="url(#paint7_linear_257:334)"/>
<path id="Path 112" d="M298.358 23.015L244.098 19.605C243.931 19.5893 243.762 19.6086 243.603 19.6618C243.444 19.7149 243.298 19.8006 243.173 19.9136C243.049 20.0265 242.95 20.1642 242.882 20.3177C242.814 20.4712 242.779 20.6372 242.779 20.805C242.788 21.1559 242.929 21.4906 243.173 21.7426C243.417 21.9947 243.748 22.1458 244.098 22.166L298.358 25.542C298.522 25.5562 298.686 25.5361 298.842 25.4831C298.997 25.43 299.14 25.3452 299.261 25.234C299.381 25.1228 299.478 24.9877 299.543 24.8372C299.609 24.6867 299.643 24.5242 299.642 24.36C299.635 24.0157 299.5 23.6864 299.262 23.4373C299.024 23.1882 298.702 23.0375 298.358 23.015V23.015Z" fill="url(#paint8_linear_257:334)"/>
<path id="Path 113" d="M298.358 18.998L244.098 15.535C243.931 15.5183 243.762 15.537 243.602 15.5898C243.443 15.6426 243.296 15.7283 243.172 15.8414C243.047 15.9546 242.948 16.0926 242.88 16.2465C242.813 16.4005 242.778 16.5669 242.779 16.735C242.788 17.0863 242.928 17.4214 243.172 17.6739C243.417 17.9264 243.747 18.0778 244.098 18.098L298.358 21.528C298.522 21.5424 298.686 21.5227 298.842 21.4698C298.997 21.417 299.14 21.3322 299.261 21.2211C299.382 21.1099 299.478 20.9747 299.544 20.8242C299.609 20.6737 299.643 20.5112 299.642 20.347C299.636 20.0021 299.501 19.6721 299.263 19.4223C299.025 19.1724 298.702 19.021 298.358 18.998V18.998Z" fill="url(#paint9_linear_257:334)"/>
<path id="Path 114" d="M357.298 26.726L304.603 23.415C304.44 23.401 304.276 23.4211 304.121 23.4741C303.966 23.5271 303.823 23.6118 303.703 23.7228C303.582 23.8338 303.487 23.9687 303.421 24.1189C303.356 24.2691 303.322 24.4312 303.323 24.595C303.33 24.938 303.465 25.2659 303.702 25.514C303.939 25.7621 304.261 25.9123 304.603 25.935L357.297 29.214C357.457 29.2265 357.618 29.2056 357.77 29.1525C357.921 29.0994 358.06 29.0153 358.177 28.9056C358.294 28.7959 358.387 28.663 358.45 28.5153C358.513 28.3677 358.545 28.2085 358.543 28.048C358.538 27.7118 358.408 27.3896 358.177 27.1449C357.947 26.9002 357.633 26.7508 357.298 26.726V26.726Z" fill="url(#paint10_linear_257:334)"/>
<path id="Path 115" d="M304.603 21.926L357.297 25.257C357.457 25.2698 357.618 25.2491 357.77 25.1961C357.921 25.1432 358.06 25.0593 358.177 24.9496C358.295 24.84 358.388 24.707 358.451 24.5594C358.514 24.4117 358.545 24.2525 358.543 24.092C358.538 23.7556 358.408 23.4333 358.177 23.1885C357.946 22.9436 357.633 22.7939 357.297 22.769L304.603 19.405C304.44 19.3908 304.276 19.4108 304.121 19.4637C303.966 19.5165 303.823 19.6011 303.703 19.7121C303.582 19.823 303.487 19.9579 303.421 20.108C303.356 20.2581 303.322 20.4202 303.323 20.584C303.33 20.9272 303.465 21.2554 303.702 21.5038C303.939 21.7522 304.261 21.9028 304.603 21.926V21.926Z" fill="url(#paint11_linear_257:334)"/>
</g>
<g id="Path 116" style="mix-blend-mode:soft-light" opacity="0.3">
<path d="M367.521 31.687L88.0001 14.387C89.0911 21.287 91.7 27.365 96.373 32.066C117.566 53.382 161.322 27.137 212.273 39.251C234.561 44.551 260.585 57.776 287.349 88.56L367.524 92.31L367.521 31.687Z" fill="white"/>
</g>
</g>
<path id="Path 117" d="M29.002 90.2199L39.387 76.969L367.52 92.312L354.935 103.243L29.002 90.2199Z" fill="#2F6BC1"/>
</g>
<g id="Group 192">
<path id="Path 118" d="M74.95 154.639L50.35 163.639C48.5808 164.286 47.0533 165.462 45.9741 167.006C44.8948 168.55 44.316 170.388 44.316 172.272V339.203C44.316 340.57 44.6207 341.919 45.208 343.153C45.7953 344.387 46.6504 345.475 47.711 346.337L75.242 368.713L74.95 154.639Z" fill="#A2A7AE"/>
<g id="Group 191">
<path id="Path 119" d="M340.651 160.698L75.831 154.459C75.5635 154.452 75.2973 154.499 75.0482 154.596C74.799 154.694 74.572 154.84 74.3806 155.027C74.1891 155.214 74.0372 155.438 73.9337 155.685C73.8302 155.931 73.7772 156.196 73.778 156.464V366.801C73.7751 367.067 73.8271 367.33 73.9306 367.575C74.0341 367.82 74.187 368.04 74.3797 368.223C74.5723 368.406 74.8006 368.547 75.0503 368.638C75.3 368.729 75.5658 368.767 75.831 368.751L340.651 355.3C341.126 355.248 341.565 355.018 341.878 354.657C342.192 354.295 342.357 353.829 342.342 353.351V162.601C342.361 162.127 342.195 161.663 341.88 161.309C341.565 160.954 341.124 160.735 340.651 160.698Z" fill="#D8DEE8"/>
<path id="Path 120" d="M265.14 344.665L82.503 352.96V169.706L265.14 173.051V344.665Z" fill="#D8DEE8"/>
<g id="Group 186" style="mix-blend-mode:overlay" opacity="0.3">
<g id="Path 121" style="mix-blend-mode:overlay" opacity="0.3">
<path d="M331.195 240.857L279.372 241.222C278.242 241.274 277.178 241.769 276.411 242.6C275.643 243.431 275.234 244.531 275.272 245.661V258.552C275.25 259.108 275.34 259.663 275.535 260.184C275.73 260.705 276.027 261.182 276.409 261.587C276.791 261.991 277.25 262.316 277.758 262.542C278.267 262.767 278.816 262.889 279.372 262.9L331.195 262.116C332.29 262.043 333.314 261.545 334.047 260.728C334.781 259.912 335.166 258.841 335.121 257.744V245.144C335.146 244.604 335.064 244.065 334.88 243.557C334.696 243.049 334.414 242.583 334.049 242.184C333.684 241.786 333.244 241.464 332.754 241.236C332.265 241.008 331.735 240.879 331.195 240.857Z" fill="white"/>
</g>
<g id="Path 122" style="mix-blend-mode:overlay" opacity="0.3">
<path d="M331.195 267.429L279.372 268.318C278.239 268.383 277.177 268.888 276.412 269.725C275.646 270.562 275.237 271.664 275.272 272.798V285.688C275.249 286.242 275.338 286.796 275.533 287.315C275.728 287.834 276.026 288.309 276.409 288.711C276.791 289.113 277.251 289.434 277.76 289.654C278.269 289.875 278.817 289.991 279.372 289.995L331.195 288.686C332.292 288.601 333.314 288.094 334.046 287.271C334.778 286.449 335.163 285.375 335.121 284.275V271.675C335.147 271.137 335.066 270.599 334.883 270.093C334.699 269.587 334.416 269.123 334.05 268.727C333.684 268.332 333.244 268.013 332.753 267.79C332.263 267.568 331.733 267.445 331.195 267.429V267.429Z" fill="white"/>
</g>
<g id="Path 123" style="mix-blend-mode:overlay" opacity="0.3">
<path d="M331.195 294.002L279.372 295.416C278.237 295.495 277.177 296.009 276.412 296.852C275.648 297.694 275.24 298.8 275.272 299.937V312.828C275.248 313.381 275.336 313.932 275.531 314.45C275.727 314.967 276.025 315.44 276.409 315.839C276.792 316.238 277.252 316.554 277.762 316.77C278.271 316.986 278.819 317.095 279.372 317.093L331.195 315.26C332.294 315.162 333.315 314.645 334.045 313.818C334.775 312.99 335.16 311.913 335.121 310.81V298.21C335.149 297.674 335.069 297.137 334.885 296.633C334.701 296.128 334.417 295.665 334.051 295.273C333.685 294.88 333.243 294.565 332.752 294.347C332.262 294.129 331.732 294.011 331.195 294.002V294.002Z" fill="white"/>
</g>
<g id="Path 124" style="mix-blend-mode:overlay" opacity="0.3">
<path d="M331.195 320.573L279.372 322.511C278.234 322.603 277.176 323.127 276.413 323.976C275.65 324.825 275.242 325.933 275.272 327.074V339.964C275.246 340.515 275.334 341.065 275.53 341.581C275.725 342.097 276.024 342.567 276.408 342.963C276.792 343.359 277.253 343.672 277.763 343.882C278.273 344.093 278.82 344.197 279.372 344.188L331.195 341.831C332.297 341.72 333.315 341.195 334.044 340.361C334.773 339.527 335.158 338.448 335.121 337.341V324.741C335.15 324.206 335.071 323.671 334.887 323.168C334.703 322.665 334.419 322.205 334.052 321.815C333.685 321.425 333.242 321.114 332.751 320.9C332.26 320.687 331.73 320.576 331.195 320.573V320.573Z" fill="white"/>
</g>
</g>
<path id="Path 125" d="M247.218 259.27C247.218 299.592 216.144 333.541 176.818 335.135C136.346 336.776 102.662 303.711 102.662 261.235C102.662 218.759 136.346 184.78 176.818 185.319C216.144 185.848 247.218 218.949 247.218 259.27Z" fill="#A2A7AE"/>
<g id="Group 187">
<path id="Path 126" d="M85.761 162.683C85.7628 163.109 85.6794 163.531 85.5155 163.923C85.3516 164.316 85.1107 164.673 84.8069 164.971C84.5031 165.269 84.1427 165.503 83.7468 165.66C83.351 165.817 82.9277 165.893 82.5021 165.883C81.63 165.861 80.801 165.5 80.1912 164.876C79.5813 164.252 79.2387 163.415 79.2361 162.543C79.2342 162.117 79.3179 161.694 79.4822 161.301C79.6465 160.907 79.8881 160.551 80.1926 160.253C80.4972 159.954 80.8584 159.72 81.2551 159.564C81.6518 159.407 82.0759 159.332 82.5021 159.343C83.3729 159.367 84.2001 159.729 84.8085 160.353C85.4168 160.976 85.7585 161.812 85.761 162.683V162.683Z" fill="#D8DEE8"/>
<path id="Path 127" d="M336.628 167.896C336.646 168.268 336.591 168.639 336.464 168.989C336.336 169.339 336.141 169.66 335.888 169.933C335.635 170.206 335.33 170.425 334.991 170.579C334.652 170.732 334.286 170.816 333.914 170.826C333.154 170.771 332.446 170.423 331.938 169.855C331.431 169.287 331.164 168.544 331.195 167.783C331.176 167.411 331.232 167.039 331.359 166.689C331.487 166.339 331.683 166.017 331.936 165.744C332.19 165.471 332.495 165.252 332.835 165.099C333.175 164.946 333.542 164.862 333.914 164.853C334.673 164.909 335.38 165.258 335.886 165.826C336.392 166.394 336.658 167.136 336.628 167.896V167.896Z" fill="#D8DEE8"/>
</g>
<g id="Group 188">
<path id="Path 128" d="M85.7609 360.258C85.7536 361.136 85.4129 361.979 84.8079 362.615C84.2029 363.252 83.3787 363.635 82.502 363.687C82.0793 363.712 81.6559 363.649 81.2583 363.503C80.8608 363.358 80.4976 363.132 80.1912 362.839C79.8848 362.547 79.6419 362.195 79.4776 361.805C79.3132 361.414 79.231 360.994 79.236 360.571C79.2434 359.692 79.5851 358.848 80.1916 358.211C80.7981 357.574 81.624 357.192 82.502 357.142C82.9241 357.118 83.3465 357.181 83.7432 357.328C84.1398 357.474 84.5022 357.7 84.8078 357.993C85.1134 358.285 85.3556 358.637 85.5196 359.026C85.6835 359.416 85.7657 359.835 85.7609 360.258Z" fill="#D8DEE8"/>
<path id="Path 129" d="M336.628 348.214C336.653 348.98 336.387 349.728 335.884 350.306C335.38 350.884 334.676 351.251 333.914 351.331C333.544 351.334 333.178 351.262 332.837 351.117C332.497 350.973 332.19 350.761 331.935 350.493C331.68 350.225 331.483 349.908 331.355 349.561C331.228 349.214 331.174 348.844 331.195 348.475C331.169 347.708 331.436 346.959 331.94 346.381C332.445 345.802 333.15 345.437 333.914 345.358C334.283 345.356 334.649 345.429 334.989 345.573C335.329 345.718 335.635 345.93 335.89 346.198C336.144 346.466 336.341 346.783 336.468 347.13C336.595 347.476 336.649 347.845 336.628 348.214Z" fill="#D8DEE8"/>
</g>
<g id="rotate_3">
<g id="Path 130" style="mix-blend-mode:soft-light">
<path d="M201.085 214.756C201.085 228.522 190.377 264.246 177.052 264.447C163.599 264.647 152.597 228.63 152.597 214.622C152.597 200.614 163.597 189.388 177.052 189.547C190.376 189.704 201.085 200.99 201.085 214.756Z" fill="white"/>
</g>
<g id="Group 189" style="mix-blend-mode:soft-light">
<g id="Path 131" style="mix-blend-mode:soft-light">
<path d="M199.732 308.758C188.462 301.874 164.659 274.068 171.71 262.082C178.725 250.156 213.398 258.867 224.466 265.863C235.445 272.802 238.866 287.878 232.148 299.638C225.401 311.456 210.91 315.586 199.732 308.758Z" fill="white"/>
</g>
<g id="Path 132" style="mix-blend-mode:soft-light">
<path d="M153.995 310.191C165.547 302.533 189.334 273.612 182.373 261.931C175.373 250.191 139.73 259.848 127.963 267.4C122.25 271.072 118.191 276.823 116.646 283.436C115.1 290.049 116.189 297.003 119.682 302.827C121.397 305.624 123.662 308.044 126.34 309.94C129.018 311.836 132.053 313.169 135.261 313.857C138.47 314.546 141.784 314.576 145.004 313.946C148.224 313.315 151.283 312.038 153.995 310.191V310.191Z" fill="white"/>
</g>
</g>
<path id="Path 133" d="M197.016 259.956C197.016 271.525 188.009 281.094 176.816 281.331C165.533 281.57 156.316 272.249 156.316 260.51C156.316 248.771 165.53 239.198 176.816 239.13C188.008 239.063 197.016 248.387 197.016 259.956Z" fill="#D8DEE8"/>
</g>
<g id="Group 190">
<path id="Path 134" d="M267.046 182.273L79.236 179.473V174.741L267.046 177.848V182.273Z" fill="#D8DEE8"/>
<path id="Path 135" d="M267.046 193.525L79.2339 191.508V186.776L267.044 189.097L267.046 193.525Z" fill="#D8DEE8"/>
<path id="Path 136" d="M267.046 204.779L79.236 203.551V198.819L267.046 200.355V204.779Z" fill="#D8DEE8"/>
<path id="Path 137" d="M267.046 216.032L79.236 215.59V210.858L267.046 211.609V216.032Z" fill="#D8DEE8"/>
<path id="Path 138" d="M267.046 227.284L79.236 227.628V222.896L267.046 222.861V227.284Z" fill="#D8DEE8"/>
<path id="Path 139" d="M267.046 238.537L79.236 239.666V234.934L267.046 234.114V238.537Z" fill="#D8DEE8"/>
<path id="Path 140" d="M267.046 249.79L79.236 251.704V246.972L267.046 245.367V249.79Z" fill="#D8DEE8"/>
<path id="Path 141" d="M267.046 261.043L79.236 263.743V259.011L267.046 256.621V261.043Z" fill="#D8DEE8"/>
<path id="Path 142" d="M267.046 272.296L79.236 275.781V271.049L267.046 267.872V272.296Z" fill="#D8DEE8"/>
<path id="Path 143" d="M267.046 283.55L79.236 287.82V283.088L267.046 279.126V283.55Z" fill="#D8DEE8"/>
<path id="Path 144" d="M267.046 294.803L79.236 299.859V295.127L267.046 290.38V294.803Z" fill="#D8DEE8"/>
<path id="Path 145" d="M267.046 306.055L79.236 311.896V307.164L267.046 301.632V306.055Z" fill="#D8DEE8"/>
<path id="Path 146" d="M267.046 317.308L79.236 323.935V319.2L267.046 312.882V317.308Z" fill="#D8DEE8"/>
<path id="Path 147" d="M267.046 328.557L79.236 335.969V331.237L267.046 324.137V328.557Z" fill="#D8DEE8"/>
<path id="Path 148" d="M267.046 339.814L79.236 348.014V343.282L267.046 335.393V339.814Z" fill="#D8DEE8"/>
</g>
<g id="Path 149" style="mix-blend-mode:soft-light" opacity="0.3">
<path d="M199.509 259.821C185.553 236.863 202.301 217.543 190.37 191.767C183.003 175.85 167.904 164.239 146.57 156.123L75.799 154.456C75.5357 154.449 75.2738 154.495 75.0286 154.592C74.7835 154.688 74.5602 154.832 74.3718 155.016C74.1834 155.2 74.0337 155.42 73.9318 155.663C73.8298 155.906 73.7775 156.167 73.778 156.43V366.881C73.7759 367.136 73.8263 367.389 73.926 367.624C74.0257 367.859 74.1725 368.071 74.3575 368.247C74.5425 368.423 74.7616 368.559 75.0013 368.647C75.241 368.734 75.4962 368.772 75.751 368.757L314.317 356.639C313.884 327.892 305.826 312.267 297.237 303.03C269.41 273.107 220.063 293.636 199.509 259.821Z" fill="white"/>
</g>
</g>
</g>
<path id="Path 150" opacity="0.26" d="M185.511 126.146C183.077 126.062 180.688 125.462 178.503 124.385C176.318 123.309 174.387 121.781 172.837 119.902C171.894 118.775 170.726 117.857 169.408 117.207C168.09 116.558 166.65 116.191 165.182 116.131C163.683 116.083 162.19 116.346 160.798 116.904C159.406 117.462 158.145 118.303 157.095 119.374C155.239 121.241 153.021 122.709 150.578 123.689C148.134 124.669 145.517 125.14 142.885 125.074C140.186 125.002 137.53 124.374 135.085 123.229C132.639 122.085 130.455 120.449 128.67 118.423C127.583 117.206 126.26 116.221 124.782 115.53C123.304 114.838 121.701 114.453 120.07 114.399C118.388 114.338 116.711 114.61 115.135 115.198C113.558 115.786 112.113 116.679 110.882 117.826C110.452 118.257 109.94 118.597 109.375 118.824C108.81 119.051 108.205 119.162 107.597 119.149C106.988 119.136 106.389 118.999 105.834 118.748C105.28 118.496 104.783 118.135 104.372 117.685C103.961 117.236 103.646 116.708 103.446 116.133C103.245 115.558 103.163 114.949 103.205 114.342C103.246 113.734 103.411 113.142 103.688 112.6C103.965 112.058 104.35 111.578 104.818 111.189C106.934 109.257 109.411 107.761 112.106 106.789C114.802 105.817 117.663 105.386 120.525 105.523C123.277 105.648 125.977 106.325 128.462 107.515C130.947 108.705 133.166 110.384 134.989 112.45C136.011 113.634 137.266 114.595 138.674 115.276C140.082 115.956 141.615 116.341 143.178 116.407C144.74 116.472 146.3 116.217 147.76 115.657C149.221 115.097 150.551 114.244 151.669 113.15C153.435 111.354 155.558 109.949 157.9 109.024C160.243 108.099 162.753 107.676 165.27 107.781C167.786 107.886 170.253 108.517 172.51 109.634C174.767 110.751 176.766 112.329 178.376 114.265C179.249 115.37 180.35 116.273 181.604 116.913C182.859 117.553 184.236 117.915 185.643 117.974C187.05 118.033 188.453 117.787 189.756 117.254C191.059 116.721 192.232 115.912 193.194 114.884C200.123 107.641 210.771 108.202 217.001 115.878C217.789 116.905 218.789 117.75 219.934 118.354C221.079 118.958 222.341 119.307 223.633 119.378C224.886 119.413 226.132 119.166 227.277 118.656C228.423 118.146 229.439 117.386 230.252 116.431C236.387 109.555 245.942 110.059 251.606 117.323C252.169 118.078 252.469 118.998 252.46 119.94C252.451 120.882 252.133 121.796 251.555 122.54C251.297 122.868 250.965 123.131 250.586 123.307C250.207 123.483 249.792 123.568 249.374 123.554C248.957 123.54 248.549 123.428 248.182 123.227C247.816 123.025 247.503 122.741 247.267 122.396C246.545 121.418 245.616 120.611 244.546 120.032C243.477 119.453 242.293 119.116 241.079 119.046C239.861 119.018 238.653 119.268 237.545 119.775C236.438 120.282 235.46 121.034 234.685 121.974C233.318 123.609 231.603 124.918 229.665 125.805C227.728 126.692 225.616 127.135 223.485 127.101C221.275 127.007 219.112 126.431 217.147 125.415C215.182 124.399 213.462 122.967 212.108 121.218C211.289 120.155 210.246 119.287 209.052 118.674C207.859 118.062 206.544 117.722 205.204 117.677C203.863 117.632 202.529 117.884 201.297 118.415C200.065 118.946 198.966 119.742 198.078 120.748C196.489 122.492 194.546 123.876 192.379 124.807C190.211 125.738 187.869 126.194 185.511 126.146V126.146Z" fill="#9571F6"/>
<path id="Path 151" opacity="0.26" d="M256.648 144.858C254.628 144.81 252.646 144.301 250.853 143.371C249.06 142.442 247.502 141.115 246.299 139.492C245.569 138.52 244.629 137.725 243.55 137.166C242.471 136.606 241.28 136.297 240.065 136.26C238.827 136.267 237.605 136.551 236.491 137.091C235.376 137.63 234.395 138.412 233.621 139.378C227.377 146.673 217.147 146.696 210.87 139.178C210.037 138.137 208.986 137.292 207.791 136.702C206.596 136.111 205.287 135.79 203.954 135.761C202.584 135.762 201.23 136.056 199.983 136.623C198.737 137.19 197.626 138.018 196.725 139.05C195.135 140.848 193.184 142.291 190.999 143.286C188.814 144.28 186.444 144.803 184.044 144.821C181.606 144.804 179.201 144.259 176.995 143.223C174.788 142.188 172.832 140.686 171.262 138.821C170.307 137.702 169.124 136.8 167.792 136.175C166.461 135.55 165.011 135.217 163.54 135.197C162.014 135.191 160.503 135.496 159.1 136.095C157.696 136.693 156.43 137.573 155.378 138.678C155.011 139.073 154.566 139.388 154.071 139.601C153.576 139.814 153.042 139.922 152.503 139.917C151.964 139.912 151.432 139.795 150.941 139.572C150.45 139.35 150.01 139.028 149.651 138.626C148.917 137.762 148.536 136.652 148.583 135.519C148.63 134.386 149.103 133.313 149.906 132.512C151.713 130.647 153.884 129.173 156.283 128.179C158.683 127.186 161.26 126.695 163.857 126.737C166.342 126.8 168.785 127.389 171.026 128.465C173.267 129.541 175.254 131.08 176.857 132.98C177.761 134.076 178.892 134.962 180.172 135.579C181.452 136.196 182.85 136.528 184.27 136.553C185.69 136.577 187.099 136.294 188.4 135.722C189.7 135.15 190.861 134.303 191.803 133.24C198.792 125.74 209.529 126.051 215.803 133.656C216.579 134.683 217.578 135.521 218.725 136.105C219.872 136.689 221.137 137.004 222.425 137.026C223.712 137.048 224.987 136.777 226.154 136.234C227.32 135.69 228.348 134.888 229.159 133.888C235.343 126.788 244.97 127.061 250.675 134.261C251.375 135.214 252.281 135.997 253.327 136.551C254.372 137.104 255.529 137.413 256.711 137.456C257.868 137.449 259.009 137.175 260.044 136.658C261.079 136.14 261.982 135.392 262.682 134.47C268.182 127.723 276.865 127.97 282.082 134.806C282.603 135.538 282.882 136.414 282.882 137.312C282.882 138.21 282.603 139.086 282.082 139.818C281.865 140.137 281.573 140.398 281.231 140.577C280.889 140.756 280.509 140.848 280.123 140.845C279.737 140.841 279.358 140.743 279.019 140.557C278.681 140.372 278.393 140.106 278.182 139.783C277.555 138.848 276.709 138.08 275.718 137.546C274.727 137.012 273.621 136.728 272.495 136.718C271.369 136.708 270.258 136.973 269.258 137.49C268.258 138.006 267.398 138.759 266.755 139.683C265.576 141.259 264.053 142.544 262.301 143.441C260.549 144.338 258.616 144.823 256.648 144.858Z" fill="#9571F6"/>
<g id="translate_2">
<path id="Path 152" d="M396.675 353.15L398.218 355.614C398.432 355.954 398.574 356.334 398.635 356.73C398.697 357.127 398.677 357.532 398.576 357.92C398.043 359.973 396.976 363.975 396.514 365.02C395.88 366.442 387.331 367.306 387.331 367.306C387.331 367.306 386.566 366.235 388.338 364.935C390.11 363.635 391.251 363.428 391.873 361.514C392.396 359.101 392.739 356.653 392.9 354.189L396.675 353.15Z" fill="black"/>
<path id="Path 153" d="M390.263 346.898C390.826 347.344 393.592 355.674 393.592 355.674C393.592 355.674 394.484 356.809 396.168 355.127C397.852 353.445 396.93 354.373 396.93 354.373L396.594 346.173L390.263 346.898Z" fill="#EEE9DD"/>
<path id="Path 154" d="M346.252 353.669C346.666 355.287 346.973 356.93 347.171 358.588C347.2 359.896 332.802 361.72 332.578 360.756C332.354 359.792 334.764 358.038 336.504 357.347C338.244 356.656 343.348 354.777 343.348 354.777L346.252 353.669Z" fill="black"/>
<path id="Path 155" d="M342.451 350.302L343.276 354.815C343.763 355.083 344.31 355.223 344.865 355.223C345.421 355.223 345.967 355.083 346.454 354.815L346.797 349.803L342.451 350.302Z" fill="#EEE9DD"/>
<path id="Path 156" d="M353.974 227.889L344.03 229.739C338.853 240.692 338.046 251.726 339.488 256.461C341.528 263.161 345.655 265.03 345.988 271.895C346.316 278.688 342.465 280.765 340.572 288.954C339.262 294.624 340.132 299.671 341.926 309.533C345.539 329.398 350.866 335.133 347.342 342.026C345.812 344.828 343.418 347.061 340.517 348.394C340.717 349.614 340.911 350.838 341.117 352.045L347.887 351.189C351.738 341.989 353.517 332.054 353.099 322.089C352.454 309.38 348.476 308.004 347.746 295.845C346.801 280.085 353.063 275.358 355.062 256.145C356.018 246.722 355.651 237.211 353.974 227.889Z" fill="url(#paint12_linear_257:334)"/>
<path id="Path 157" d="M335.27 233.334C359.798 269.023 378.345 308.471 390.18 350.127C391.398 350.69 392.749 350.898 394.08 350.727C395.789 350.477 397.354 349.627 398.492 348.327C399.974 338.969 400.291 329.463 399.437 320.027C398.886 312.813 397.534 305.682 395.406 298.767C392.165 288.401 389.952 287.823 385.729 276.857C381.346 265.475 382.395 262.63 378.189 248.383C375.659 239.847 372.526 231.501 368.814 223.408L335.27 233.334Z" fill="#26264F"/>
<path id="Path 158" d="M304.652 225.946L299.625 223.086C299.625 223.086 298.657 219.998 298.533 198.83C298.409 177.662 322.791 158.722 330.286 158.284C337.781 157.846 330.105 191.667 330.105 191.667C327.63 191.109 325.053 191.209 322.629 191.959C315.19 194.393 312.086 203.048 309.429 210.446C308.031 214.363 305.152 218.561 304.652 225.946Z" fill="#2F6BC1"/>
<path id="Path 159" d="M335.556 231.313L331.356 241.874C331.562 261.307 332.577 282.374 334.807 304.815C336.466 321.515 338.629 337.278 341.107 352.044L347.876 351.188C351.727 341.988 353.507 332.053 353.089 322.088C352.445 309.379 348.466 308.003 347.737 295.844C346.792 280.084 353.054 275.357 355.052 256.144C356.009 246.721 355.645 237.21 353.969 227.888L335.556 231.313Z" fill="#26264F"/>
<path id="Path 160" d="M329.738 245.493C327.038 241.732 329.726 237.681 329.807 230.139C329.899 221.591 326.516 220.439 322.157 206.639C319.257 197.458 316.474 188.645 318.095 177.939C318.872 172.807 320.19 164.103 326.93 159.41C330.408 156.988 335.407 156.802 345.264 156.529C357.452 156.191 363.546 156.022 368.264 158.043C368.954 158.343 383.323 164.725 385.249 176.857C387.209 189.205 373.812 191.957 373.335 208.673C373.121 216.173 375.481 227.5 377.012 234.845C378.482 241.898 379.247 243.672 378.012 245.945C375.04 251.416 364.547 250.765 343.56 249.465C335.325 248.945 331.748 248.301 329.738 245.493Z" fill="#2F6BC1"/>
<path id="Path 161" d="M358.438 207.173C359.574 210.332 362.923 212.491 365.749 220.173C366.359 221.831 370.705 233.638 366.562 236.962C364.168 238.882 361.636 235.811 355.462 235.878C344.762 235.995 340.406 245.346 333.262 243.461C331.439 242.929 329.817 241.866 328.601 240.408C328.318 242.186 328.726 244.005 329.742 245.491C331.755 248.298 335.333 248.943 343.565 249.453C364.552 250.753 375.045 251.404 378.017 245.933C379.25 243.664 378.485 241.889 377.017 234.833C375.486 227.488 373.125 216.164 373.34 208.661C373.817 191.947 387.214 189.193 385.254 176.845C384.707 173.707 383.394 170.753 381.431 168.245C364.813 176.573 354.866 197.251 358.438 207.173Z" fill="#2F6BC1"/>
<path id="Path 162" d="M368.315 185.651C366.532 182.125 365.361 178.321 364.854 174.402C364.174 168.62 364.475 162.766 365.743 157.084C379.079 161.142 389.528 168.945 396.191 178.178C400.63 184.33 408.891 196.442 403.923 207.854C399.816 217.293 387.989 223.093 374.59 222.293L380.876 214.061C383.909 210.613 384.352 207.903 384.298 206.204C384.069 198.91 374.258 197.305 368.315 185.651Z" fill="#2F6BC1"/>
<path id="Path 163" d="M343.986 146.296C344.291 148.555 344.925 150.757 345.869 152.832C347.141 155.318 352.876 156.485 354.058 156.968C355.24 157.451 352.11 159.39 348.858 159.983C345.606 160.576 336.181 160.583 334.394 159.474C332.607 158.365 335.658 158.216 337.93 157.169C340.202 156.122 341.189 151.436 340.608 149.392C340.027 147.348 343.986 146.296 343.986 146.296Z" fill="#EEE9DD"/>
<path id="Path 164" d="M339.97 145.317C338.12 143.769 337.865 143.592 337.631 143.024C336.694 140.746 338.251 137.399 340.566 136.424C340.687 136.373 342.241 135.735 342.905 136.378C343.469 136.924 342.774 137.797 343.226 138.901C343.65 139.934 344.575 139.94 346.39 141.194C347.89 142.226 348.814 142.869 349.096 143.854C349.676 145.885 347.417 149.078 345.196 149.173C344.405 149.204 344.156 148.815 339.97 145.317Z" fill="black"/>
<g id="Group 193">
<path id="Path 165" d="M345.012 149.506C344.479 150.161 343.785 150.667 342.998 150.973C342.211 151.28 341.358 151.378 340.522 151.257C337.986 150.845 338.164 145.087 339.91 144.029C340.307 143.843 340.738 143.74 341.176 143.726C341.615 143.711 342.051 143.786 342.46 143.946C342.969 144.146 343.125 144.377 343.96 144.683C344.733 144.965 344.966 144.898 345.185 145.123C345.46 145.404 345.62 146.042 344.959 147.667C345.15 147.463 345.399 147.32 345.672 147.259C345.945 147.198 346.231 147.22 346.491 147.323C346.625 147.414 346.732 147.54 346.799 147.687C347.095 148.375 346.418 149.152 345.012 149.506Z" fill="#EEE9DD"/>
</g>
<path id="Path 166" d="M365.201 251.017C365.201 251.017 330.101 253.005 328.536 245.359C326.971 237.713 328.517 235.441 328.536 228.997C328.555 222.553 316.73 199.588 318.027 190.361C319.324 181.134 317.642 179.195 325.9 180.929C334.158 182.663 357.939 179.388 360.307 182.969C362.675 186.55 371.007 201.625 374.528 204.378C374.528 204.378 377.892 237.256 379.422 241.996C380.952 246.736 375.909 252.852 365.201 251.017Z" fill="url(#paint13_linear_257:334)"/>
<path id="Path 167" d="M359.178 156.317C359.178 156.317 353.178 165.382 351.525 183.117C356.334 184.035 356.487 184.39 357.252 180.924C358.017 177.458 361.531 157.524 364.489 156.916C362.862 156.039 360.959 155.825 359.178 156.317V156.317Z" fill="url(#paint14_linear_257:334)"/>
<path id="Path 168" d="M329.778 157.634C329.778 157.634 323.815 165.382 322.165 183.121C326.974 184.038 327.127 184.394 327.892 180.928C328.657 177.462 332.172 157.528 335.129 156.92C333.326 156.983 331.534 157.222 329.778 157.634V157.634Z" fill="url(#paint15_linear_257:334)"/>
<path id="Path 169" d="M328.54 188.32C328.54 188.32 323.712 197.903 337.271 197.699C350.83 197.495 348.813 186.999 348.813 186.999L328.54 188.32Z" fill="#F67648"/>
<g id="Group 194">
<path id="Path 170" d="M219.317 199.708L244.603 180.56L240.663 149.087L199.879 134.518C197.333 133.445 198.82 127.878 201.331 126.727C208.666 123.365 216.724 121.886 224.775 122.423C232.826 122.959 240.616 125.495 247.441 129.801C254.265 134.106 259.907 140.046 263.858 147.082C267.809 154.117 269.942 162.027 270.066 170.095C270.19 178.163 268.299 186.135 264.566 193.288C260.833 200.442 255.376 206.551 248.687 211.064C241.998 215.577 234.289 218.351 226.258 219.134C218.227 219.917 210.128 218.685 202.693 215.55C189.65 210.05 179.25 201.505 174.833 189.15C173.902 186.55 177.519 182.082 180.068 183.157L219.317 199.708Z" fill="url(#paint16_linear_257:334)"/>
<path id="Path 171" d="M259.634 173.666L402.65 228.023C404.843 228.887 406.842 230.181 408.528 231.828C410.214 233.476 411.553 235.444 412.467 237.617C413.381 239.789 413.852 242.123 413.851 244.48C413.85 246.838 413.378 249.171 412.462 251.343V251.343C411.546 253.515 410.206 255.481 408.519 257.127C406.832 258.773 404.833 260.065 402.64 260.927C400.447 261.79 398.104 262.205 395.748 262.149C393.392 262.092 391.07 261.565 388.921 260.599L250.121 196.222L259.634 173.666Z" fill="url(#paint17_linear_257:334)"/>
<path id="Path 172" d="M218.431 202.207L243.717 183.059L239.777 151.586L200.53 135.036C199.962 134.797 199.477 134.397 199.132 133.886C198.788 133.375 198.6 132.775 198.591 132.159C198.582 131.542 198.753 130.937 199.082 130.416C199.412 129.895 199.886 129.482 200.446 129.226C209.334 125.152 219.244 123.858 228.88 125.513C238.516 127.168 247.426 131.695 254.445 138.501C261.464 145.306 266.264 154.074 268.215 163.654C270.166 173.234 269.178 183.18 265.38 192.189C261.582 201.197 255.151 208.849 246.93 214.141C238.709 219.432 229.082 222.117 219.309 221.844C209.536 221.57 200.074 218.351 192.161 212.608C184.249 206.865 178.256 198.866 174.968 189.659C174.759 189.079 174.724 188.451 174.866 187.852C175.008 187.252 175.322 186.707 175.769 186.283C176.216 185.858 176.777 185.573 177.383 185.463C177.99 185.352 178.615 185.42 179.183 185.659L218.431 202.207Z" fill="#2F6BC1"/>
<path id="Path 173" d="M258.747 176.165L401.763 230.522C403.956 231.386 405.955 232.68 407.64 234.327C409.326 235.975 410.666 237.943 411.58 240.116C412.494 242.289 412.965 244.622 412.964 246.979C412.963 249.337 412.491 251.67 411.575 253.842V253.842C410.659 256.014 409.319 257.98 407.632 259.626C405.945 261.272 403.947 262.564 401.753 263.426C399.56 264.289 397.216 264.704 394.86 264.648C392.504 264.591 390.184 264.064 388.034 263.098L249.234 198.721L258.747 176.165Z" fill="#2F6BC1"/>
<path id="Path 174" d="M258.108 189.127C257.556 190.435 257.405 191.878 257.673 193.272C257.941 194.666 258.616 195.95 259.614 196.96C260.611 197.971 261.886 198.662 263.277 198.948C264.668 199.234 266.112 199.101 267.427 198.566C268.742 198.031 269.869 197.117 270.665 195.942C271.461 194.766 271.891 193.381 271.899 191.961C271.908 190.541 271.495 189.151 270.714 187.965C269.932 186.78 268.816 185.853 267.508 185.302C265.754 184.563 263.779 184.551 262.016 185.268C260.253 185.985 258.847 187.374 258.108 189.127V189.127Z" fill="#29BFE2"/>
<path id="Path 175" d="M272.388 199.757L390.503 249.564C391.541 250.002 392.709 250.009 393.753 249.585C394.796 249.161 395.627 248.34 396.065 247.302V247.302C396.502 246.264 396.51 245.095 396.086 244.052C395.661 243.009 394.84 242.178 393.802 241.74L275.687 191.932L272.388 199.757Z" fill="#29BFE2"/>
</g>
<path id="Path 176" d="M381.561 218.652C381.561 218.652 380.697 216.363 379.07 215.966C377.459 215.77 375.829 215.804 374.228 216.066C374.108 216.298 374.04 216.553 374.028 216.814C374.015 217.075 374.06 217.336 374.157 217.578C374.629 218.442 375.99 218.068 377.594 218.611C380.194 219.493 381.278 222.236 381.682 221.703C381.99 221.289 381.561 218.652 381.561 218.652Z" fill="url(#paint18_linear_257:334)"/>
<path id="Path 177" d="M306.732 225.893C306.732 225.893 302.048 227.121 299.894 225.754C297.74 224.387 296.794 219.611 296.794 219.611C297.535 219.471 298.301 219.539 299.005 219.81C299.709 220.08 300.324 220.542 300.781 221.142C302.362 223.237 307.683 223.802 306.732 225.893Z" fill="url(#paint19_linear_257:334)"/>
</g>
<g id="translate_1">
<path id="Path 178" d="M142.338 204.64C142.338 204.64 144.322 200.556 145.683 200.011C147.044 199.466 151.829 194.76 151.557 196.938C151.285 199.116 148.017 200.555 148.717 201.8C149.417 203.045 146.461 206.507 144.011 207.013C141.561 207.519 142.338 204.64 142.338 204.64Z" fill="#EEE9DD"/>
<path id="Path 179" d="M79.8859 367.194C79.7097 368.435 79.6708 369.692 79.77 370.942C80.007 371.883 88.17 372.562 90.94 372.235C93.71 371.908 89.289 369.078 87.524 368.547C85.759 368.016 79.8859 367.194 79.8859 367.194Z" fill="black"/>
<path id="Path 180" d="M83.9931 362.511L83.133 368.144C83.133 368.144 80.9391 369.13 79.8841 368.156L79.768 362.256L83.9931 362.511Z" fill="#EEE9DD"/>
<path id="Path 181" d="M37.9781 362.259C37.9781 362.259 39.7101 363.544 39.2481 365.083C38.7861 366.622 34.7481 372.79 31.8651 374.54C28.9821 376.29 29.888 372.64 30.726 370.373C31.564 368.106 33.7061 363.098 34.5421 362.259C35.3781 361.42 37.9781 362.259 37.9781 362.259Z" fill="black"/>
<path id="Path 182" d="M41.093 356.068C40.256 358.401 39.45 360.32 38.821 361.735C38.0908 363.652 37.0731 365.448 35.803 367.059C35.05 367.946 33.269 369.839 32.791 369.524C32.313 369.209 33.608 366.903 36.119 360.162C36.484 359.184 37.636 356.067 37.636 356.067H41.094L41.093 356.068Z" fill="#EEE9DD"/>
<path id="Path 183" d="M101.087 258.556C101.967 267.203 102.072 275.91 101.4 284.576C100.283 298.976 97.4 308.082 93.795 323.431C91.589 332.812 88.616 346.619 85.926 363.886C84.4671 364.728 82.7698 365.06 81.101 364.832C80.0669 364.677 79.0781 364.301 78.2011 363.732C71.1421 342.164 73.227 328.798 76.634 320.471C78.086 316.921 79.8461 314.121 80.7871 308.665C82.0321 301.446 80.4931 297.41 78.2971 280.689C76.7321 268.771 77.003 266.929 78.044 265.141C82.208 257.993 94.938 258.133 101.087 258.556Z" fill="#26264F"/>
<path id="Path 184" d="M76.793 261.065C72.469 283.395 68.225 295.124 65.013 301.757C62.6986 306.439 60.7161 311.278 59.08 316.238C57.6014 320.759 56.3976 325.366 55.475 330.032C53.984 336.877 50.3 346.871 40.386 359.98C39.8693 360.279 39.2888 360.452 38.6924 360.482C38.096 360.513 37.5009 360.402 36.9561 360.157C36.3564 359.831 35.8718 359.328 35.5681 358.717C36.8681 346.184 38.352 335.652 39.643 327.525C39.914 325.82 41.107 318.361 42.979 308.508C43.711 304.652 44.784 299.001 46.07 293.198C47.67 285.971 50.125 276.139 53.907 264.358L76.793 261.065Z" fill="#26264F"/>
<path id="Path 185" d="M145.51 206.472L142.581 203.04C142.116 203.395 135.368 208.371 127.303 205.461C121.75 203.461 119.103 198.301 117.403 195.009C112.303 185.121 117.016 179.039 111.029 171.97C109.366 170.007 105.929 167.433 103.406 167.723C97.398 168.414 91.64 185.395 95.352 199.895C96.101 202.822 100.226 218.936 114.152 222.551C125.401 225.47 138.631 219.099 145.51 206.472Z" fill="url(#paint20_linear_257:334)"/>
<path id="Path 186" d="M80.475 172.737C82.927 170.47 87.619 167.857 89.975 161.783C90.683 159.954 93.192 153.476 89.491 148.52C87.291 145.578 83.213 143.581 79.616 144.288C76.542 144.888 76.062 147.033 70.838 151.342C68.1594 153.722 65.1485 155.7 61.9 157.213C55.669 159.781 51.925 157.365 45.669 157.64C37.984 157.979 29.056 162.268 24.755 168.505C17.12 179.575 28.179 190.805 19.818 203.772C17.078 208.02 15.727 207.072 9.23805 215.293C2.74905 223.514 -0.509996 227.645 0.0680042 232.693C0.868004 239.693 8.414 246.386 15.516 246.84C22.454 247.285 26.865 241.826 30.398 244.214C32.912 245.914 31.475 249.214 34.145 253.19C37.587 258.311 44.353 259.332 45.445 259.496C55.587 261.026 69.262 249.133 75.07 235.044C85.541 209.637 67.144 185.063 80.475 172.737Z" fill="black"/>
<g id="Path 187" style="mix-blend-mode:multiply" opacity="0.3">
<path d="M76.635 320.47C78.087 316.92 79.847 314.12 80.788 308.664C82.033 301.445 80.494 297.41 78.298 280.688C76.733 268.77 77.004 266.927 78.045 265.14C80.307 261.257 85.1 259.534 89.991 258.829C89.925 259.08 89.86 259.329 89.807 259.574C87.241 271.294 97.035 278.446 92.617 291.33C90.439 297.682 86.9631 299.137 86.1541 306.506C85.3951 313.406 88.146 314.846 87.554 321.119C86.676 330.497 80.014 332.766 78.28 339.948C77.154 344.615 78.102 351.438 86.329 361.315C86.192 362.166 86.056 363.015 85.921 363.888C84.4621 364.73 82.7647 365.063 81.096 364.834C80.0619 364.679 79.0731 364.303 78.196 363.734C71.144 342.162 73.229 328.794 76.635 320.47Z" fill="#311944"/>
</g>
<g id="Path 188" style="mix-blend-mode:multiply" opacity="0.3">
<path d="M102.392 184.606C111.708 194.319 108.346 210.006 114.665 211.7C116.595 212.218 116.696 210.7 121.592 209.823C128.754 208.546 131.661 211.242 136.716 210.218C139.796 209.51 142.575 207.852 144.662 205.478L145.511 206.473C138.632 219.099 125.397 225.473 114.154 222.553C100.229 218.939 96.104 202.824 95.354 199.897C93.7678 193.284 93.7946 186.387 95.432 179.787C98.0418 180.928 100.405 182.565 102.392 184.606V184.606Z" fill="#FFC444"/>
</g>
<path id="Path 189" d="M110.115 171.051C109.468 170.046 107.415 167.26 98.679 165.207C93.9139 163.994 89.003 163.452 84.088 163.594C81.3015 163.705 78.5292 164.049 75.8 164.622C67.828 166.349 51.935 172.422 51.381 180.688C50.981 186.593 58.859 186.973 63.313 197.426C64.9421 201.319 65.7547 205.505 65.7003 209.724C65.646 213.944 64.7259 218.107 62.997 221.957C60.156 227.897 55.129 232.357 51.312 235.743C45.586 240.823 42.62 241.603 40.701 246.154C38.61 251.11 40.717 253.526 38.121 256.919C35.333 260.562 32.066 258.869 27.34 262.553C22.499 266.327 24.2221 269.433 19.8161 273.604C13.4161 279.663 4.92804 277.695 4.53304 280.422C4.19304 282.767 10.224 285.95 15.348 287.24C25.495 289.796 34.348 285.506 36.979 284.184C44.266 280.523 43.007 278.154 48.563 275.362C57.863 270.689 64.224 275.889 85.413 276.425C96.888 276.715 102.689 276.781 105.868 272.899C108.768 269.353 107.245 265.463 105.503 248.699C104.943 243.099 103.771 231.38 103.764 224.699C103.764 220.751 105.129 214.299 107.864 201.399C108.026 200.639 109.507 193.669 110.705 184.359C111.785 175.978 111.629 173.404 110.115 171.051Z" fill="#FFC444"/>
<g id="Group 196" style="mix-blend-mode:multiply" opacity="0.3">
<g id="Path 190" style="mix-blend-mode:multiply" opacity="0.3">
<path d="M19.8161 273.604C24.2211 269.433 22.499 266.327 27.34 262.553C32.066 258.868 35.332 260.562 38.121 256.919C40.721 253.526 38.611 251.11 40.701 246.154C42.621 241.603 45.586 240.823 51.312 235.743C55.129 232.356 60.156 227.897 62.997 221.957C67.928 211.65 64.48 200.645 63.313 197.426C60.6348 190.204 55.7006 184.037 49.242 179.839C49.506 179.554 62.33 190.97 62.663 190.629C80.748 193.114 78.78 191.824 80.084 194.918C83.098 202.07 78.326 204.699 78.203 225.327C78.145 235.187 79.203 239.081 76.009 243.196C72.35 247.903 68.133 246.446 62.842 252.596C58.777 257.324 59.428 260.322 55.632 262.314C51.55 264.456 48.95 261.959 44.346 262.941C36.655 264.581 35.01 273.45 29.926 278.302C26.081 281.971 18.972 284.536 4.95204 281.783C4.64536 281.397 4.496 280.91 4.53401 280.418C4.92801 277.696 13.4141 279.664 19.8161 273.604Z" fill="#FFC444"/>
</g>
</g>
<path id="Path 191" d="M81.669 153.445C81.669 153.445 80.757 160.736 78.069 162.407C75.381 164.078 71.027 166.259 70.548 166.851C70.069 167.443 87.219 169.287 95.718 164.998C92.918 164.414 92.156 164.198 92.156 164.198C90.902 163.873 89.6928 163.394 88.556 162.773C86.9811 161.862 85.629 160.612 84.598 159.113L84.629 155.076L81.669 153.445Z" fill="#EEE9DD"/>
<path id="Path 192" d="M81.4271 155.701C81.4538 156.548 81.7462 157.364 82.2629 158.036C82.7796 158.707 83.4944 159.199 84.3061 159.441C86.8391 160.122 89.294 154.07 88.112 152.352C87.8169 152 87.4548 151.711 87.0467 151.501C86.6386 151.291 86.1927 151.164 85.7351 151.128C84.9337 151.178 84.1683 151.479 83.5469 151.987C82.9256 152.496 82.4796 153.186 82.272 153.962C81.866 153.457 81.324 153.276 81.034 153.449C80.667 153.669 80.792 154.407 80.82 154.574C80.8994 155.004 81.1117 155.398 81.4271 155.701Z" fill="#EEE9DD"/>
<path id="Path 193" d="M63.327 168.922C57.883 171.622 40.767 179.71 37.033 203.05C33.299 226.39 53.215 238.527 53.215 238.527L57.883 235.415C57.883 235.415 52.904 199.005 70.642 188.735C88.38 178.465 63.327 168.922 63.327 168.922Z" fill="#FFC444"/>
<path id="Path 194" d="M56.776 236.15C57.876 236.35 58.502 237.281 60.992 236.037C63.482 234.793 69.706 236.348 69.706 236.348C69.706 236.348 66.594 239.148 63.171 238.526C59.748 237.904 56.571 239.593 55.671 239.838C54.771 240.083 54.459 237.696 54.459 237.696L56.776 236.15Z" fill="#EEE9DD"/>
</g>
<g id="rotate_2">
<g id="Group 198">
<path id="Path 195" d="M173.157 112.917L169.194 114.131C168.143 111.642 166.756 109.308 165.071 107.196L167.831 104.231C168.193 103.829 168.384 103.302 168.362 102.761C168.341 102.221 168.109 101.71 167.716 101.338L165.536 99.2379C165.347 99.0492 165.122 98.8999 164.874 98.7987C164.627 98.6976 164.361 98.6465 164.094 98.6486C163.826 98.6506 163.562 98.7057 163.316 98.8107C163.07 98.9157 162.848 99.0684 162.661 99.26L159.923 102.147C157.715 100.451 155.284 99.0666 152.7 98.031L153.608 94.18C153.726 93.636 153.629 93.0675 153.336 92.5938C153.044 92.12 152.58 91.7778 152.041 91.6389L149.028 90.839C148.764 90.7632 148.488 90.7412 148.215 90.7743C147.943 90.8074 147.68 90.8949 147.442 91.0316C147.204 91.1684 146.995 91.3516 146.829 91.5703C146.664 91.7891 146.543 92.0388 146.476 92.305L145.554 96.1241C142.691 95.7217 139.786 95.7217 136.923 96.1241L135.753 92.2851C135.574 91.7322 135.192 91.2682 134.683 90.9875C134.174 90.7067 133.578 90.6303 133.015 90.774L129.886 91.574C129.61 91.6384 129.349 91.7589 129.121 91.9279C128.893 92.0969 128.702 92.3109 128.56 92.5567C128.418 92.8024 128.328 93.0748 128.296 93.3567C128.263 93.6387 128.289 93.9243 128.371 94.196L129.553 98.0771C126.793 99.175 124.202 100.659 121.859 102.486L118.73 99.604C118.281 99.1952 117.694 98.9707 117.087 98.9754C116.48 98.98 115.897 99.2134 115.454 99.6291L113.073 101.936C112.86 102.138 112.692 102.383 112.578 102.654C112.465 102.925 112.409 103.216 112.415 103.51C112.42 103.804 112.487 104.093 112.61 104.36C112.734 104.626 112.912 104.864 113.132 105.058L116.36 107.998C114.529 110.359 113.047 112.971 111.96 115.754L107.435 114.746C106.827 114.602 106.187 114.695 105.646 115.006C105.104 115.317 104.702 115.823 104.52 116.421L103.651 119.656C103.576 119.95 103.563 120.255 103.611 120.554C103.66 120.854 103.77 121.139 103.935 121.394C104.099 121.648 104.314 121.866 104.567 122.034C104.819 122.201 105.104 122.315 105.402 122.367L110.07 123.361C109.733 126.296 109.834 129.264 110.37 132.169L105.581 133.637C104.975 133.801 104.459 134.198 104.146 134.741C103.832 135.285 103.747 135.931 103.908 136.537L104.883 139.737C104.983 140.029 105.141 140.298 105.346 140.529C105.551 140.76 105.801 140.948 106.079 141.081C106.357 141.215 106.66 141.292 106.968 141.308C107.277 141.324 107.585 141.278 107.876 141.174L112.776 139.615C114.019 142.234 115.641 144.655 117.589 146.801L113.998 150.587C113.781 150.799 113.609 151.053 113.494 151.334C113.379 151.615 113.322 151.916 113.328 152.22C113.333 152.523 113.401 152.822 113.527 153.099C113.653 153.375 113.834 153.622 114.059 153.826L116.577 156.003C117.064 156.393 117.682 156.582 118.303 156.53C118.925 156.478 119.503 156.189 119.918 155.724L123.533 151.84C125.924 153.382 128.519 154.584 131.242 155.41L130.019 160.475C129.943 160.758 129.928 161.054 129.974 161.343C130.019 161.633 130.125 161.909 130.284 162.155C130.443 162.402 130.652 162.612 130.897 162.772C131.142 162.933 131.418 163.04 131.707 163.088L134.957 163.636C135.559 163.723 136.173 163.582 136.676 163.24C137.18 162.898 137.537 162.38 137.678 161.788L138.878 156.71C141.67 156.831 144.466 156.575 147.19 155.949L148.655 160.757C148.737 161.027 148.875 161.278 149.059 161.492C149.243 161.706 149.47 161.88 149.725 162.002C149.979 162.124 150.257 162.192 150.539 162.202C150.821 162.211 151.103 162.162 151.365 162.057L154.394 160.933C154.94 160.729 155.39 160.326 155.654 159.806C155.917 159.285 155.975 158.684 155.816 158.123L154.367 153.367C156.815 152.14 159.092 150.597 161.139 148.778L164.662 151.987C164.868 152.168 165.108 152.306 165.368 152.392C165.628 152.478 165.903 152.51 166.176 152.488C166.449 152.465 166.715 152.387 166.957 152.259C167.199 152.131 167.413 151.956 167.586 151.743L169.63 149.363C169.999 148.944 170.192 148.4 170.17 147.843C170.148 147.285 169.912 146.758 169.511 146.37L166.076 143.206C167.607 140.996 168.844 138.597 169.758 136.069L174.165 137.007C174.428 137.057 174.699 137.056 174.962 137.001C175.224 136.947 175.473 136.842 175.695 136.691C175.917 136.54 176.107 136.348 176.254 136.123C176.401 135.899 176.503 135.648 176.553 135.385L177.184 132.403C177.305 131.877 177.214 131.324 176.93 130.864C176.647 130.405 176.194 130.075 175.669 129.947L171.393 128.994C171.679 126.34 171.608 123.659 171.181 121.023L175.237 119.732C175.745 119.561 176.166 119.196 176.408 118.718C176.65 118.239 176.695 117.684 176.532 117.173L175.656 114.299C175.584 114.043 175.462 113.805 175.297 113.597C175.132 113.389 174.927 113.216 174.695 113.087C174.462 112.959 174.207 112.877 173.943 112.848C173.679 112.819 173.412 112.842 173.157 112.917V112.917ZM148.265 146.354C145.541 147.335 142.647 147.754 139.757 147.587C136.868 147.42 134.041 146.669 131.449 145.381C128.856 144.093 126.551 142.294 124.672 140.092C122.794 137.889 121.38 135.33 120.516 132.567C119.697 129.779 119.443 126.856 119.77 123.969C120.097 121.081 120.999 118.289 122.421 115.755C123.844 113.222 125.759 110.998 128.053 109.216C130.348 107.433 132.976 106.128 135.783 105.376C141.171 103.824 146.953 104.439 151.894 107.091C156.834 109.743 160.543 114.221 162.227 119.57C163.803 124.973 163.23 130.777 160.629 135.768C158.027 140.759 153.598 144.552 148.266 146.355L148.265 146.354Z" fill="#311944"/>
<path id="Path 196" d="M119.28 98.2951L116.426 99.058L116.226 101.886L119.28 98.2951Z" fill="url(#paint21_linear_257:334)"/>
<path id="Path 197" d="M147.637 90.9331L150.903 89.9741L151.635 92.3741L147.637 90.9331Z" fill="url(#paint22_linear_257:334)"/>
<path id="Path 198" d="M163.576 98.74L166.862 97.8821L166.604 99.9471L163.576 98.74Z" fill="url(#paint23_linear_257:334)"/>
<path id="Path 199" d="M173.448 112.867L176.805 112.128L176.218 114.045L173.448 112.867Z" fill="url(#paint24_linear_257:334)"/>
<path id="Path 200" d="M174.848 137.022L178.167 136.508L177.767 133.793L174.848 137.022Z" fill="url(#paint25_linear_257:334)"/>
<path id="Path 201" d="M166.244 152.446L169.258 152.095L168.843 149.916L166.244 152.446Z" fill="url(#paint26_linear_257:334)"/>
<path id="Path 202" d="M153.505 161.859L150.805 162.186L152.014 158.235L153.505 161.859Z" fill="url(#paint27_linear_257:334)"/>
<path id="Path 203" d="M138.772 163.333L135.598 163.626L137.052 160.133L138.772 163.333Z" fill="url(#paint28_linear_257:334)"/>
<path id="Path 204" d="M105.698 114.954L108.844 114.102L108.303 116.75L105.698 114.954Z" fill="url(#paint29_linear_257:334)"/>
<path id="Path 205" d="M106.943 141.283L109.928 140.835L108.989 138.567L106.943 141.283Z" fill="url(#paint30_linear_257:334)"/>
<path id="Path 206" d="M118.288 156.52L121.218 156.12L120.882 154.201L118.288 156.52Z" fill="url(#paint31_linear_257:334)"/>
</g>
<path id="Path 207" d="M176.44 112.199L172.44 113.423C171.381 110.914 169.982 108.561 168.283 106.432L171.066 103.443C171.431 103.038 171.624 102.506 171.602 101.961C171.58 101.416 171.346 100.901 170.95 100.526L168.75 98.405C168.559 98.2146 168.332 98.0641 168.082 97.962C167.832 97.86 167.565 97.8085 167.295 97.8107C167.025 97.8128 166.759 97.8685 166.511 97.9745C166.262 98.0805 166.038 98.2347 165.85 98.4281L163.089 101.339C160.862 99.6296 158.412 98.2332 155.806 97.1891L156.722 93.307C156.841 92.7587 156.743 92.1858 156.448 91.7083C156.153 91.2308 155.685 90.8859 155.142 90.7461L152.104 89.9391C151.838 89.8629 151.559 89.8408 151.284 89.8743C151.01 89.9078 150.744 89.9961 150.504 90.134C150.264 90.272 150.055 90.4567 149.887 90.6773C149.72 90.8978 149.599 91.1498 149.531 91.4181L148.601 95.2681C145.715 94.8625 142.787 94.8625 139.901 95.2681L138.722 91.3981C138.542 90.8403 138.157 90.372 137.644 90.089C137.13 89.806 136.529 89.7294 135.961 89.875L132.807 90.681C132.528 90.7461 132.266 90.8676 132.036 91.038C131.806 91.2084 131.614 91.4241 131.471 91.6718C131.327 91.9195 131.237 92.1938 131.204 92.478C131.171 92.7622 131.196 93.0502 131.279 93.3241L132.471 97.2371C129.687 98.3439 127.075 99.8405 124.713 101.682L121.559 98.7771C121.106 98.3659 120.515 98.1402 119.904 98.145C119.292 98.1498 118.705 98.3848 118.259 98.8031L115.859 101.129C115.644 101.333 115.474 101.579 115.36 101.852C115.246 102.126 115.19 102.42 115.195 102.716C115.201 103.012 115.268 103.303 115.392 103.572C115.517 103.841 115.696 104.08 115.918 104.276L119.172 107.24C117.324 109.62 115.828 112.254 114.73 115.06L110.167 114.044C109.554 113.899 108.909 113.993 108.363 114.306C107.817 114.62 107.411 115.13 107.228 115.733L106.352 118.994C106.277 119.29 106.263 119.598 106.313 119.9C106.362 120.201 106.473 120.489 106.639 120.746C106.805 121.002 107.022 121.222 107.276 121.391C107.531 121.56 107.817 121.674 108.118 121.727L112.824 122.727C112.483 125.686 112.585 128.678 113.124 131.607L108.296 133.087C107.686 133.252 107.167 133.652 106.85 134.199C106.534 134.746 106.448 135.395 106.609 136.006L107.592 139.233C107.693 139.528 107.852 139.799 108.059 140.032C108.266 140.265 108.517 140.454 108.798 140.589C109.079 140.724 109.383 140.801 109.695 140.817C110.006 140.833 110.317 140.787 110.61 140.682L115.551 139.109C116.804 141.749 118.439 144.19 120.403 146.353L116.782 150.171C116.563 150.385 116.39 150.641 116.274 150.924C116.157 151.207 116.1 151.511 116.106 151.817C116.112 152.123 116.18 152.424 116.307 152.703C116.434 152.981 116.616 153.231 116.843 153.436L119.381 155.631C119.872 156.024 120.494 156.214 121.121 156.162C121.747 156.109 122.33 155.819 122.749 155.35L126.395 151.434C128.806 152.989 131.422 154.201 134.167 155.034L132.933 160.141C132.857 160.426 132.841 160.725 132.887 161.016C132.932 161.308 133.039 161.587 133.199 161.835C133.359 162.083 133.569 162.295 133.816 162.457C134.063 162.619 134.341 162.727 134.633 162.775L137.91 163.327C138.517 163.415 139.135 163.273 139.643 162.928C140.151 162.583 140.511 162.061 140.653 161.464L141.86 156.345C144.675 156.467 147.494 156.209 150.241 155.578L151.718 160.425C151.801 160.698 151.94 160.95 152.125 161.166C152.311 161.382 152.539 161.558 152.796 161.681C153.053 161.804 153.332 161.873 153.617 161.883C153.902 161.892 154.185 161.843 154.45 161.737L157.505 160.603C158.056 160.397 158.509 159.991 158.775 159.467C159.041 158.942 159.099 158.336 158.939 157.77L157.478 152.976C159.946 151.739 162.242 150.183 164.306 148.349L167.858 151.584C168.065 151.767 168.307 151.906 168.57 151.992C168.832 152.079 169.109 152.112 169.384 152.089C169.66 152.066 169.928 151.988 170.172 151.859C170.416 151.73 170.632 151.552 170.806 151.338L172.868 148.938C173.239 148.516 173.434 147.967 173.412 147.405C173.389 146.843 173.152 146.311 172.748 145.92L169.285 142.731C170.829 140.502 172.077 138.082 172.998 135.531L177.442 136.477C177.707 136.528 177.98 136.526 178.245 136.471C178.51 136.417 178.761 136.311 178.985 136.159C179.208 136.007 179.4 135.812 179.548 135.586C179.697 135.361 179.799 135.108 179.85 134.842L180.486 131.835C180.608 131.305 180.516 130.747 180.23 130.284C179.944 129.821 179.488 129.488 178.959 129.359L174.648 128.399C174.937 125.723 174.865 123.02 174.434 120.363L178.524 119.063C179.036 118.89 179.46 118.523 179.704 118.041C179.948 117.558 179.993 116.999 179.829 116.484L178.946 113.584C178.797 113.068 178.449 112.633 177.979 112.373C177.51 112.114 176.956 112.051 176.44 112.199V112.199ZM151.34 145.91C148.594 146.899 145.676 147.322 142.762 147.153C139.848 146.985 136.998 146.229 134.384 144.93C131.771 143.632 129.446 141.817 127.552 139.597C125.657 137.377 124.232 134.796 123.361 132.01C122.535 129.199 122.279 126.252 122.61 123.341C122.94 120.43 123.849 117.615 125.283 115.06C126.717 112.506 128.648 110.264 130.962 108.467C133.275 106.67 135.925 105.354 138.755 104.596C144.187 103.031 150.016 103.651 154.998 106.324C159.979 108.998 163.718 113.512 165.417 118.904C167.006 124.352 166.429 130.204 163.806 135.237C161.183 140.269 156.717 144.094 151.341 145.912L151.34 145.91Z" fill="#29BFE2"/>
</g>
<g id="rotate_1">
<g id="Group 200">
<path id="Path 208" d="M121.027 36.791L115.443 38.5021C113.963 34.9944 112.008 31.7064 109.634 28.73L113.523 24.552C114.033 23.9859 114.302 23.2426 114.272 22.4811C114.242 21.7195 113.915 20.9999 113.361 20.4761L110.289 17.511C110.022 17.2449 109.705 17.0345 109.356 16.8919C109.007 16.7493 108.634 16.6773 108.257 16.6802C107.88 16.683 107.508 16.7607 107.161 16.9087C106.815 17.0566 106.501 17.2719 106.238 17.542L102.379 21.611C99.267 19.2216 95.8421 17.2701 92.2 15.811L93.479 10.385C93.6452 9.61863 93.5081 8.81761 93.0964 8.15012C92.6847 7.48263 92.0305 7.00054 91.271 6.80503L87.027 5.676C86.655 5.56869 86.2651 5.53732 85.8807 5.58372C85.4962 5.63011 85.125 5.75334 84.7892 5.94608C84.4533 6.13883 84.1597 6.39714 83.9256 6.70567C83.6916 7.01419 83.522 7.36666 83.427 7.74204L82.127 13.123C78.0932 12.5562 73.9998 12.5562 69.966 13.123L68.318 7.71305C68.0662 6.93395 67.5269 6.28002 66.81 5.8845C66.0931 5.48897 65.2524 5.38154 64.459 5.58402L60.051 6.71C59.6616 6.80092 59.295 6.97073 58.9739 7.2089C58.6527 7.44707 58.3837 7.74858 58.1836 8.09476C57.9836 8.44095 57.8566 8.82447 57.8105 9.22166C57.7645 9.61885 57.8004 10.0213 57.916 10.404L59.582 15.873C55.6921 17.4203 52.0417 19.5122 48.74 22.086L44.332 18.026C43.6992 17.4501 42.8726 17.1339 42.017 17.1406C41.1614 17.1473 40.3397 17.4763 39.716 18.062L36.361 21.313C36.0609 21.5981 35.8234 21.9426 35.6637 22.3245C35.504 22.7064 35.4255 23.1174 35.4333 23.5313C35.4411 23.9452 35.535 24.3529 35.709 24.7286C35.883 25.1042 36.1333 25.4395 36.444 25.7131L40.992 29.856C38.4099 33.1825 36.3198 36.8632 34.786 40.785L28.409 39.3641C27.5524 39.1609 26.6506 39.292 25.8873 39.7307C25.124 40.1694 24.5567 40.8826 24.301 41.725L23.076 46.283C22.9704 46.6967 22.9514 47.1278 23.0203 47.5492C23.0891 47.9706 23.2442 48.3733 23.4759 48.7319C23.7076 49.0906 24.0109 49.3975 24.3668 49.6334C24.7227 49.8693 25.1234 50.0292 25.544 50.103L32.121 51.503C31.6461 55.6381 31.7884 59.8208 32.543 63.914L25.795 65.982C24.9427 66.2127 24.2163 66.7712 23.7745 67.5357C23.3327 68.3001 23.2114 69.2084 23.437 70.062L24.811 74.572C24.9524 74.9838 25.1741 75.3634 25.4634 75.6888C25.7527 76.0141 26.1038 76.2787 26.4963 76.4672C26.8887 76.6557 27.3147 76.7643 27.7495 76.7868C28.1843 76.8092 28.6193 76.7451 29.029 76.598L35.929 74.398C37.6803 78.088 39.9655 81.4999 42.711 84.524L37.651 89.859C37.3448 90.1577 37.103 90.5159 36.9405 90.9115C36.7781 91.3072 36.6985 91.732 36.7065 92.1596C36.7146 92.5873 36.8102 93.0088 36.9874 93.398C37.1647 93.7873 37.4197 94.1361 37.737 94.423L41.285 97.491C41.9709 98.0406 42.8415 98.3062 43.7174 98.2331C44.5933 98.16 45.4078 97.7537 45.993 97.098L51.087 91.625C54.4566 93.7987 58.1128 95.4921 61.95 96.656L60.226 103.794C60.1192 104.193 60.0971 104.61 60.1612 105.018C60.2253 105.426 60.3741 105.816 60.5982 106.163C60.8222 106.509 61.1165 106.806 61.462 107.032C61.8074 107.258 62.1965 107.409 62.604 107.476L67.184 108.248C68.0323 108.372 68.8961 108.173 69.6056 107.692C70.3151 107.211 70.8189 106.482 71.018 105.648L72.705 98.493C76.6398 98.6629 80.5795 98.3023 84.418 97.421L86.482 104.196C86.5979 104.577 86.7916 104.93 87.0509 105.232C87.3103 105.534 87.6296 105.78 87.9886 105.952C88.3477 106.124 88.7386 106.22 89.1366 106.234C89.5347 106.247 89.9312 106.178 90.301 106.03L94.57 104.446C95.3394 104.157 95.9721 103.59 96.3426 102.856C96.7131 102.123 96.7943 101.277 96.57 100.486L94.529 93.786C97.9785 92.0567 101.186 89.8829 104.071 87.32L109.035 91.841C109.325 92.0962 109.663 92.2902 110.03 92.4114C110.396 92.5326 110.784 92.5785 111.168 92.5464C111.553 92.5142 111.927 92.4048 112.269 92.2245C112.61 92.0441 112.912 91.7967 113.155 91.497L116.036 88.143C116.555 87.5531 116.828 86.7859 116.797 86.0006C116.766 85.2152 116.433 84.472 115.869 83.925L111.029 79.467C113.186 76.3532 114.931 72.9726 116.218 69.41L122.428 70.732C122.799 70.8032 123.18 70.8006 123.55 70.7243C123.92 70.6479 124.272 70.4994 124.584 70.2871C124.897 70.0749 125.164 69.8032 125.372 69.4874C125.579 69.1717 125.722 68.8181 125.793 68.447L126.682 64.247C126.851 63.5057 126.722 62.7277 126.323 62.0805C125.924 61.4334 125.286 60.9689 124.548 60.787L118.523 59.445C118.926 55.7045 118.826 51.9267 118.223 48.2131L123.938 46.394C124.654 46.1522 125.246 45.6389 125.587 44.9646C125.929 44.2904 125.991 43.5091 125.762 42.789L124.528 38.7391C124.322 38.0165 123.838 37.4053 123.181 37.04C122.524 36.6746 121.75 36.5851 121.027 36.791ZM85.952 83.908C69.607 89.557 51.865 80.941 46.852 64.481C41.839 48.021 51.711 30.799 68.365 26.166C84.453 21.69 100.917 30.705 105.627 46.166C110.337 61.627 101.741 78.446 85.952 83.908Z" fill="#311944"/>
<path id="Path 209" d="M45.107 16.185L41.086 17.26L40.8011 21.245L45.107 16.185Z" fill="url(#paint32_linear_257:334)"/>
<path id="Path 210" d="M85.066 5.813L89.6661 4.46101L90.6971 7.84602L85.066 5.813Z" fill="url(#paint33_linear_257:334)"/>
<path id="Path 211" d="M107.526 16.813L112.156 15.605L111.793 18.515L107.526 16.813Z" fill="url(#paint34_linear_257:334)"/>
<path id="Path 212" d="M121.437 36.719L126.168 35.678L125.341 38.378L121.437 36.719Z" fill="url(#paint35_linear_257:334)"/>
<path id="Path 213" d="M123.408 70.755L128.085 70.03L127.519 66.204L123.408 70.755Z" fill="url(#paint36_linear_257:334)"/>
<path id="Path 214" d="M111.286 92.491L115.534 91.997L114.949 88.9269L111.286 92.491Z" fill="url(#paint37_linear_257:334)"/>
<path id="Path 215" d="M93.3351 105.756L89.527 106.216L91.2271 100.649L93.3351 105.756Z" fill="url(#paint38_linear_257:334)"/>
<path id="Path 216" d="M72.575 107.832L68.103 108.245L70.152 103.322L72.575 107.832Z" fill="url(#paint39_linear_257:334)"/>
<path id="Path 217" d="M25.968 39.659L30.401 38.459L29.638 42.19L25.968 39.659Z" fill="url(#paint40_linear_257:334)"/>
<path id="Path 218" d="M27.724 76.76L31.93 76.129L30.607 72.929L27.724 76.76Z" fill="url(#paint41_linear_257:334)"/>
<path id="Path 219" d="M43.7101 98.2311L47.838 97.673L47.364 94.973L43.7101 98.2311Z" fill="url(#paint42_linear_257:334)"/>
</g>
<path id="Path 220" d="M125.652 35.779L120.022 37.505C118.529 33.9689 116.559 30.6543 114.165 27.654L118.087 23.441C118.602 22.8702 118.873 22.1208 118.842 21.3528C118.812 20.5849 118.482 19.8592 117.924 19.331L114.824 16.342C114.555 16.0737 114.235 15.8616 113.883 15.7178C113.532 15.5741 113.155 15.5016 112.775 15.5046C112.395 15.5076 112.019 15.586 111.67 15.7352C111.32 15.8845 111.004 16.1016 110.739 16.374L106.848 20.474C103.71 18.0651 100.257 16.0978 96.585 14.627L97.875 9.15601C98.0427 8.38335 97.9045 7.57577 97.4894 6.90283C97.0744 6.22989 96.4148 5.74393 95.649 5.547L91.368 4.41003C90.9932 4.30258 90.6006 4.27147 90.2135 4.3186C89.8265 4.36574 89.4528 4.49012 89.1147 4.68439C88.7766 4.87866 88.481 5.13885 88.2454 5.44952C88.0098 5.7602 87.8389 6.11503 87.743 6.49298L86.432 11.918C82.3647 11.3465 78.2374 11.3465 74.17 11.918L72.509 6.46399C72.2551 5.67866 71.7115 5.01959 70.9889 4.62091C70.2662 4.22223 69.4187 4.11392 68.619 4.31799L64.174 5.453C63.7814 5.54462 63.4118 5.71573 63.088 5.95581C62.7641 6.19589 62.4929 6.49982 62.2912 6.84882C62.0894 7.19781 61.9614 7.58448 61.9149 7.98492C61.8684 8.38536 61.9045 8.79107 62.021 9.177L63.7 14.691C59.7782 16.2511 56.0978 18.3602 52.769 20.955L48.324 16.862C47.6859 16.2815 46.8525 15.9629 45.99 15.9695C45.1274 15.9762 44.299 16.3077 43.67 16.898L40.287 20.175C39.9846 20.4624 39.7452 20.8097 39.5843 21.1946C39.4233 21.5796 39.3443 21.9938 39.3522 22.411C39.3601 22.8282 39.4548 23.2391 39.6302 23.6177C39.8056 23.9963 40.0579 24.3342 40.371 24.61L44.956 28.786C42.3524 32.1399 40.2448 35.8509 38.698 39.805L32.268 38.373C31.4044 38.1682 30.4952 38.3004 29.7256 38.7426C28.9561 39.1848 28.384 39.9038 28.126 40.753L26.891 45.353C26.7852 45.7701 26.7665 46.2045 26.8361 46.6291C26.9057 47.0537 27.0621 47.4594 27.2956 47.8208C27.5291 48.1822 27.8347 48.4916 28.1931 48.7296C28.5516 48.9676 28.9553 49.1291 29.379 49.204L36.011 50.615C35.532 54.784 35.6752 59.0011 36.436 63.128L29.636 65.213C28.7768 65.4456 28.0445 66.0086 27.599 66.7792C27.1534 67.5498 27.0309 68.4653 27.258 69.326L28.643 73.872C28.7856 74.2872 29.0093 74.6698 29.301 74.9978C29.5927 75.3258 29.9467 75.5925 30.3424 75.7825C30.7381 75.9725 31.1677 76.082 31.6061 76.1046C32.0444 76.1271 32.4829 76.0623 32.896 75.914L39.858 73.698C41.6236 77.4178 43.9273 80.8574 46.695 83.906L41.595 89.285C41.2864 89.5861 41.0428 89.9471 40.8791 90.3459C40.7154 90.7447 40.6352 91.1728 40.6433 91.6038C40.6515 92.0348 40.7478 92.4596 40.9265 92.8519C41.1051 93.2443 41.3623 93.5959 41.682 93.885L45.259 96.978C45.9509 97.5316 46.8288 97.7986 47.7118 97.7242C48.5947 97.6498 49.4155 97.2395 50.005 96.578L55.142 91.06C58.5392 93.2513 62.2254 94.958 66.094 96.131L64.355 103.331C64.2473 103.733 64.2251 104.154 64.2899 104.565C64.3547 104.977 64.505 105.37 64.7311 105.72C64.9573 106.069 65.2542 106.368 65.6028 106.596C65.9514 106.824 66.3439 106.976 66.755 107.043L71.373 107.821C72.2287 107.945 73.0998 107.745 73.8151 107.259C74.5304 106.773 75.0379 106.037 75.238 105.196L76.938 97.983C80.9054 98.1543 84.8777 97.7907 88.748 96.902L90.828 103.732C90.9449 104.116 91.1402 104.472 91.4018 104.777C91.6633 105.082 91.9853 105.329 92.3473 105.503C92.7094 105.676 93.1035 105.773 93.5049 105.787C93.9063 105.8 94.3061 105.73 94.679 105.581L98.979 103.981C99.7558 103.691 100.395 103.119 100.769 102.379C101.143 101.639 101.226 100.786 100.999 99.988L98.941 93.233C102.419 91.4892 105.654 89.2972 108.563 86.713L113.568 91.271C113.86 91.5282 114.201 91.7238 114.571 91.8459C114.94 91.9681 115.331 92.0144 115.719 91.982C116.107 91.9496 116.484 91.8391 116.828 91.6573C117.173 91.4756 117.477 91.2261 117.722 90.924L120.622 87.543C121.146 86.9484 121.42 86.1749 121.389 85.3832C121.357 84.5915 121.022 83.8423 120.453 83.291L115.573 78.797C117.748 75.6577 119.507 72.2496 120.805 68.658L127.066 69.991C127.821 70.1356 128.602 69.9745 129.239 69.5432C129.875 69.1119 130.314 68.4457 130.459 67.691L131.359 63.454C131.531 62.7064 131.401 61.9214 130.999 61.2685C130.596 60.6156 129.953 60.1474 129.208 59.965L123.133 58.612C123.541 54.8413 123.44 51.0329 122.833 47.289L128.596 45.455C129.318 45.2112 129.915 44.6936 130.259 44.0137C130.603 43.3338 130.666 42.546 130.435 41.82L129.191 37.737C129.088 37.3758 128.914 37.0385 128.68 36.7445C128.446 36.4505 128.157 36.2055 127.828 36.0236C127.499 35.8417 127.138 35.7265 126.764 35.6845C126.391 35.6425 126.013 35.6746 125.652 35.779V35.779ZM90.285 83.279C73.805 88.979 55.915 80.289 50.861 63.695C45.807 47.101 55.761 29.738 72.553 25.066C88.774 20.553 105.375 29.641 110.123 45.228C114.871 60.815 106.205 77.779 90.285 83.281V83.279Z" fill="#29BFE2"/>
</g>
</g>
</g>
<defs>
<linearGradient id="paint0_linear_257:334" x1="37.9267" y1="123.066" x2="76.8134" y2="62.4522" gradientUnits="userSpaceOnUse">
<stop stop-color="#AA80F9"/>
<stop offset="0.996" stop-color="#6165D7"/>
</linearGradient>
<linearGradient id="paint1_linear_257:334" x1="204.448" y1="61.9605" x2="204.439" y2="87.2078" gradientUnits="userSpaceOnUse">
<stop stop-color="#444B8C"/>
<stop offset="0.996" stop-color="#26264F"/>
</linearGradient>
<linearGradient id="paint2_linear_257:334" x1="68.4723" y1="33.1836" x2="68.0587" y2="103.763" gradientUnits="userSpaceOnUse">
<stop stop-color="#444B8C"/>
<stop offset="0.996" stop-color="#26264F"/>
</linearGradient>
<linearGradient id="paint3_linear_257:334" x1="68.4723" y1="28.9004" x2="68.0522" y2="99.3161" gradientUnits="userSpaceOnUse">
<stop stop-color="#444B8C"/>
<stop offset="0.996" stop-color="#26264F"/>
</linearGradient>
<linearGradient id="paint4_linear_257:334" x1="134.184" y1="36.6039" x2="133.778" y2="105.091" gradientUnits="userSpaceOnUse">
<stop stop-color="#444B8C"/>
<stop offset="0.996" stop-color="#26264F"/>
</linearGradient>
<linearGradient id="paint5_linear_257:334" x1="134.184" y1="32.3952" x2="133.771" y2="100.754" gradientUnits="userSpaceOnUse">
<stop stop-color="#444B8C"/>
<stop offset="0.996" stop-color="#26264F"/>
</linearGradient>
<linearGradient id="paint6_linear_257:334" x1="197.864" y1="39.9431" x2="197.465" y2="106.44" gradientUnits="userSpaceOnUse">
<stop stop-color="#444B8C"/>
<stop offset="0.996" stop-color="#26264F"/>
</linearGradient>
<linearGradient id="paint7_linear_257:334" x1="197.923" y1="35.8094" x2="197.516" y2="102.2" gradientUnits="userSpaceOnUse">
<stop stop-color="#444B8C"/>
<stop offset="0.996" stop-color="#26264F"/>
</linearGradient>
<linearGradient id="paint8_linear_257:334" x1="259.724" y1="43.2082" x2="259.331" y2="107.856" gradientUnits="userSpaceOnUse">
<stop stop-color="#444B8C"/>
<stop offset="0.996" stop-color="#26264F"/>
</linearGradient>
<linearGradient id="paint9_linear_257:334" x1="259.781" y1="39.1408" x2="259.381" y2="103.705" gradientUnits="userSpaceOnUse">
<stop stop-color="#444B8C"/>
<stop offset="0.996" stop-color="#26264F"/>
</linearGradient>
<linearGradient id="paint10_linear_257:334" x1="319.779" y1="46.3594" x2="319.392" y2="109.169" gradientUnits="userSpaceOnUse">
<stop stop-color="#444B8C"/>
<stop offset="0.996" stop-color="#26264F"/>
</linearGradient>
<linearGradient id="paint11_linear_257:334" x1="319.779" y1="42.3429" x2="319.386" y2="105.05" gradientUnits="userSpaceOnUse">
<stop stop-color="#444B8C"/>
<stop offset="0.996" stop-color="#26264F"/>
</linearGradient>
<linearGradient id="paint12_linear_257:334" x1="215.432" y1="289.967" x2="239.654" y2="289.967" gradientUnits="userSpaceOnUse">
<stop offset="0.004" stop-color="#26264F"/>
<stop offset="1" stop-color="#444B8C"/>
</linearGradient>
<linearGradient id="paint13_linear_257:334" x1="121.274" y1="161.4" x2="111.648" y2="417.036" gradientUnits="userSpaceOnUse">
<stop stop-color="#FFC444"/>
<stop offset="0.996" stop-color="#F36F56"/>
</linearGradient>
<linearGradient id="paint14_linear_257:334" x1="129.584" y1="145.566" x2="117.334" y2="238.881" gradientUnits="userSpaceOnUse">
<stop stop-color="#FFC444"/>
<stop offset="0.996" stop-color="#F36F56"/>
</linearGradient>
<linearGradient id="paint15_linear_257:334" x1="100.181" y1="146.619" x2="89.0409" y2="237.559" gradientUnits="userSpaceOnUse">
<stop stop-color="#FFC444"/>
<stop offset="0.996" stop-color="#F36F56"/>
</linearGradient>
<linearGradient id="paint16_linear_257:334" x1="207.211" y1="-50.7215" x2="154.604" y2="147.103" gradientUnits="userSpaceOnUse">
<stop stop-color="#40447E"/>
<stop offset="0.996" stop-color="#3C3B6B"/>
</linearGradient>
<linearGradient id="paint17_linear_257:334" x1="96.5427" y1="-79.2311" x2="81.4683" y2="121.845" gradientUnits="userSpaceOnUse">
<stop stop-color="#40447E"/>
<stop offset="0.996" stop-color="#3C3B6B"/>
</linearGradient>
<linearGradient id="paint18_linear_257:334" x1="376.853" y1="207.633" x2="377.33" y2="216.292" gradientUnits="userSpaceOnUse">
<stop stop-color="#FFC444"/>
<stop offset="0.996" stop-color="#F36F56"/>
</linearGradient>
<linearGradient id="paint19_linear_257:334" x1="298.563" y1="184.604" x2="300.903" y2="243.059" gradientUnits="userSpaceOnUse">
<stop stop-color="#FFC444"/>
<stop offset="0.473" stop-color="#F99C4D"/>
<stop offset="0.996" stop-color="#F36F56"/>
</linearGradient>
<linearGradient id="paint20_linear_257:334" x1="862.45" y1="197.92" x2="936.134" y2="192.222" gradientUnits="userSpaceOnUse">
<stop stop-color="#FFC444"/>
<stop offset="0.996" stop-color="#F36F56"/>
</linearGradient>
<linearGradient id="paint21_linear_257:334" x1="-206.25" y1="51.9899" x2="-65.5867" y2="35.2261" gradientUnits="userSpaceOnUse">
<stop stop-color="#311944"/>
<stop offset="1" stop-color="#A03976"/>
</linearGradient>
<linearGradient id="paint22_linear_257:334" x1="-205.372" y1="58.769" x2="-80.8019" y2="1.90047" gradientUnits="userSpaceOnUse">
<stop stop-color="#311944"/>
<stop offset="1" stop-color="#A03976"/>
</linearGradient>
<linearGradient id="paint23_linear_257:334" x1="-203.153" y1="72.3016" x2="-75.6833" y2="19.1467" gradientUnits="userSpaceOnUse">
<stop stop-color="#311944"/>
<stop offset="1" stop-color="#A03976"/>
</linearGradient>
<linearGradient id="paint24_linear_257:334" x1="-200.33" y1="89.0417" x2="-79.5175" y2="28.0132" gradientUnits="userSpaceOnUse">
<stop stop-color="#311944"/>
<stop offset="1" stop-color="#A03976"/>
</linearGradient>
<linearGradient id="paint25_linear_257:334" x1="-196.943" y1="109.611" x2="-57.1687" y2="85.2984" gradientUnits="userSpaceOnUse">
<stop stop-color="#311944"/>
<stop offset="1" stop-color="#A03976"/>
</linearGradient>
<linearGradient id="paint26_linear_257:334" x1="-195.245" y1="119.73" x2="-57.4083" y2="87.512" gradientUnits="userSpaceOnUse">
<stop stop-color="#311944"/>
<stop offset="1" stop-color="#A03976"/>
</linearGradient>
<linearGradient id="paint27_linear_257:334" x1="-194.845" y1="120.61" x2="-54.0244" y2="109.769" gradientUnits="userSpaceOnUse">
<stop stop-color="#311944"/>
<stop offset="1" stop-color="#A03976"/>
</linearGradient>
<linearGradient id="paint28_linear_257:334" x1="-196.001" y1="115.621" x2="-55.4527" y2="96.5123" gradientUnits="userSpaceOnUse">
<stop stop-color="#311944"/>
<stop offset="1" stop-color="#A03976"/>
</linearGradient>
<linearGradient id="paint29_linear_257:334" x1="-204.935" y1="61.5138" x2="-67.0017" y2="29.4558" gradientUnits="userSpaceOnUse">
<stop stop-color="#311944"/>
<stop offset="1" stop-color="#A03976"/>
</linearGradient>
<linearGradient id="paint30_linear_257:334" x1="-201.266" y1="83.6862" x2="-62.1688" y2="56.0202" gradientUnits="userSpaceOnUse">
<stop stop-color="#311944"/>
<stop offset="1" stop-color="#A03976"/>
</linearGradient>
<linearGradient id="paint31_linear_257:334" x1="-198.19" y1="102.347" x2="-61.5631" y2="66.3733" gradientUnits="userSpaceOnUse">
<stop stop-color="#311944"/>
<stop offset="1" stop-color="#A03976"/>
</linearGradient>
<linearGradient id="paint32_linear_257:334" x1="-289.148" y1="-42.0657" x2="-90.8213" y2="-65.7124" gradientUnits="userSpaceOnUse">
<stop stop-color="#311944"/>
<stop offset="1" stop-color="#A03976"/>
</linearGradient>
<linearGradient id="paint33_linear_257:334" x1="-287.454" y1="-32.5473" x2="-111.925" y2="-112.582" gradientUnits="userSpaceOnUse">
<stop stop-color="#311944"/>
<stop offset="1" stop-color="#A03976"/>
</linearGradient>
<linearGradient id="paint34_linear_257:334" x1="-284.455" y1="-13.4423" x2="-104.841" y2="-88.3295" gradientUnits="userSpaceOnUse">
<stop stop-color="#311944"/>
<stop offset="1" stop-color="#A03976"/>
</linearGradient>
<linearGradient id="paint35_linear_257:334" x1="-280.586" y1="10.1602" x2="-110.358" y2="-75.8723" gradientUnits="userSpaceOnUse">
<stop stop-color="#311944"/>
<stop offset="1" stop-color="#A03976"/>
</linearGradient>
<linearGradient id="paint36_linear_257:334" x1="-275.774" y1="39.1254" x2="-78.8107" y2="4.86558" gradientUnits="userSpaceOnUse">
<stop stop-color="#311944"/>
<stop offset="1" stop-color="#A03976"/>
</linearGradient>
<linearGradient id="paint37_linear_257:334" x1="-273.477" y1="53.4073" x2="-79.2061" y2="7.96938" gradientUnits="userSpaceOnUse">
<stop stop-color="#311944"/>
<stop offset="1" stop-color="#A03976"/>
</linearGradient>
<linearGradient id="paint38_linear_257:334" x1="-273.229" y1="54.6376" x2="-74.6262" y2="39.3332" gradientUnits="userSpaceOnUse">
<stop stop-color="#311944"/>
<stop offset="1" stop-color="#A03976"/>
</linearGradient>
<linearGradient id="paint39_linear_257:334" x1="-274.371" y1="47.5891" x2="-76.3464" y2="20.6741" gradientUnits="userSpaceOnUse">
<stop stop-color="#311944"/>
<stop offset="1" stop-color="#A03976"/>
</linearGradient>
<linearGradient id="paint40_linear_257:334" x1="-286.987" y1="-28.6348" x2="-92.6298" y2="-73.8149" gradientUnits="userSpaceOnUse">
<stop stop-color="#311944"/>
<stop offset="1" stop-color="#A03976"/>
</linearGradient>
<linearGradient id="paint41_linear_257:334" x1="-281.816" y1="2.52567" x2="-85.8018" y2="-36.4198" gradientUnits="userSpaceOnUse">
<stop stop-color="#311944"/>
<stop offset="1" stop-color="#A03976"/>
</linearGradient>
<linearGradient id="paint42_linear_257:334" x1="-277.427" y1="29.1114" x2="-85.0141" y2="-21.6912" gradientUnits="userSpaceOnUse">
<stop stop-color="#311944"/>
<stop offset="1" stop-color="#A03976"/>
</linearGradient>
<clipPath id="clip0_257:334">
<rect width="413.855" height="375" fill="white"/>
</clipPath>
</defs>
</svg>
