<svg data-name="Group 175" xmlns="http://www.w3.org/2000/svg" width="24" height="24"><path data-name="Path 95" d="M0 0h24v24H0z" fill="none"/><path data-name="Path 96" d="m2 22 1.352-4.968a10 10 0 1 1 3.618 3.613zM8.391 7.308a.961.961 0 0 0-.371.1 1.293 1.293 0 0 0-.294.228 2.229 2.229 0 0 0-.261.306A2.729 2.729 0 0 0 6.9 9.62a3.5 3.5 0 0 0 .33 1.413 9.553 9.553 0 0 0 1.97 2.742c.214.213.423.427.648.626a9.448 9.448 0 0 0 3.84 2.046l.569.087a5.438 5.438 0 0 0 .556-.013 1.99 1.99 0 0 0 .833-.231 4.83 4.83 0 0 0 .383-.22s.043-.028.125-.09a2.294 2.294 0 0 0 .33-.288 1.148 1.148 0 0 0 .21-.3 2.785 2.785 0 0 0 .188-.733 1.961 1.961 0 0 0 .014-.373.341.341 0 0 0-.19-.265l-.582-.261s-.87-.379-1.4-.621a.5.5 0 0 0-.177-.041.482.482 0 0 0-.378.127 12.044 12.044 0 0 0-.8.933.35.35 0 0 1-.368.13 1.416 1.416 0 0 1-.191-.066c-.124-.052-.167-.072-.252-.109h-.005a6.01 6.01 0 0 1-1.57-1c-.126-.11-.243-.23-.363-.346a6.3 6.3 0 0 1-1.02-1.274l-.059-.1a.923.923 0 0 1-.1-.2.321.321 0 0 1 .061-.265s.243-.266.356-.41a4.38 4.38 0 0 0 .263-.373.605.605 0 0 0 .093-.536Q9.8 8.583 9.349 7.568a.507.507 0 0 0-.393-.249c-.054-.006-.108-.012-.162-.016a3.385 3.385 0 0 0-.4 0z" fill="#2f6bc1"/></svg>